<?xml version="1.0" encoding="UTF-8"?><svg xmlns="http://www.w3.org/2000/svg" xmlns:xlink="http://www.w3.org/1999/xlink" version="1.1" x="0px" y="0px" width="100px" height="100px" viewBox="0 0 100 100" xml:space="preserve"><g id="_x37_7_Essential_Icons"><path id="Bar_Graph" d="M86 12H68c-1.1 0-2 .9-2 2v33.8H52V34c0-1.1-.9-2-2-2H32c-1.1 0-2 .9-2 2v30.9H14c-1.1 0-2 .9-2 2V86c0 1.1.9 2 2 2h72c1.1 0 2-.9 2-2V14c0-1.1-.9-2-2-2zM30 84H16V68.9h14V84zm18 0H34V36h14v48zm18 0H52V51.8h14V84zm18 0H70V16h14v68z"/></g><g id="Info"><path fill="#00F" d="M524-1070V614h-1784v-1684H524m8-8h-1800V622H532v-1700z" id="BORDER"/></g><metadata><rdf:RDF xmlns:rdf="http://www.w3.org/1999/02/22-rdf-syntax-ns#" xmlns:rdfs="http://www.w3.org/2000/01/rdf-schema#" xmlns:dc="http://purl.org/dc/elements/1.1/"><rdf:Description about="https://iconscout.com/legal#licenses" dc:title="essential,s,bar,graph" dc:description="essential,s,bar,graph" dc:publisher="Iconscout" dc:date="2017-09-15" dc:format="image/svg+xml" dc:language="en"><dc:creator><rdf:Bag><rdf:li>Bryn Taylor</rdf:li></rdf:Bag></dc:creator></rdf:Description></rdf:RDF></metadata></svg>