<?xml version="1.0" encoding="UTF-8"?><svg xmlns="http://www.w3.org/2000/svg" xmlns:xlink="http://www.w3.org/1999/xlink" version="1.1" x="0px" y="0px" width="100px" height="100px" viewBox="0 0 100 100" xml:space="preserve"><g id="_x37_7_Essential_Icons"><path id="Message_Lines" d="M74 43c0 1.1-.9 2-2 2H28c-1.1 0-2-.9-2-2s.9-2 2-2h44c1.1 0 2 .9 2 2zm-14.2 8H28c-1.1 0-2 .9-2 2s.9 2 2 2h31.8c1.1 0 2-.9 2-2s-.9-2-2-2zM72 31H28c-1.1 0-2 .9-2 2s.9 2 2 2h44c1.1 0 2-.9 2-2s-.9-2-2-2zm16-12v48c0 1.1-.9 2-2 2H47L33.4 82.4c-.5.6-3.4 1.4-3.4-1.4V69H14c-1.1 0-2-.9-2-2V19c0-1.1.9-2 2-2h72c1.1 0 2 .9 2 2zm-4 2H16v44h16c1.1 0 2 .9 2 2v9.2l10.8-10.6c.4-.4.9-.6 1.4-.6H84V21z"/></g><g id="Info"><path fill="#00F" d="M1224-510v1684H-560V-510h1784m8-8H-568v1700h1800V-518z" id="BORDER"/></g><metadata><rdf:RDF xmlns:rdf="http://www.w3.org/1999/02/22-rdf-syntax-ns#" xmlns:rdfs="http://www.w3.org/2000/01/rdf-schema#" xmlns:dc="http://purl.org/dc/elements/1.1/"><rdf:Description about="https://iconscout.com/legal#licenses" dc:title="essential,s,comment,lines" dc:description="essential,s,comment,lines" dc:publisher="Iconscout" dc:date="2017-09-15" dc:format="image/svg+xml" dc:language="en"><dc:creator><rdf:Bag><rdf:li>Bryn Taylor</rdf:li></rdf:Bag></dc:creator></rdf:Description></rdf:RDF></metadata></svg>