<?xml version="1.0" encoding="UTF-8"?><svg xmlns="http://www.w3.org/2000/svg" xmlns:xlink="http://www.w3.org/1999/xlink" version="1.1" x="0px" y="0px" width="100px" height="100px" viewBox="0 0 100 100" xml:space="preserve"><g id="_x37_7_Essential_Icons"><path id="Crosshair" d="M88 48h-6.1C80.9 32 68 19.1 52 18.1V12c0-1.1-.9-2-2-2s-2 .9-2 2v6.1C32 19.1 19.1 32 18.1 48H12c-1.1 0-2 .9-2 2s.9 2 2 2h6.1C19.1 68 32 80.9 48 81.9V88c0 1.1.9 2 2 2s2-.9 2-2v-6.1C68 80.9 80.9 68 81.9 52H88c1.1 0 2-.9 2-2s-.9-2-2-2zm-16 4h5.9c-1 13.9-12.1 24.9-25.9 25.9V72c0-1.1-.9-2-2-2s-2 .9-2 2v5.9c-13.8-1-24.9-12.1-25.9-25.9H28c1.1 0 2-.9 2-2s-.9-2-2-2h-5.9c1-13.8 12.1-24.9 25.9-25.9V28c0 1.1.9 2 2 2s2-.9 2-2v-5.9c13.8 1 24.9 12.1 25.9 25.9H72c-1.1 0-2 .9-2 2s.9 2 2 2z"/></g><g id="Info"><path fill="#00F" d="M1224-370v1684H-560V-370h1784m8-8H-568v1700h1800V-378z" id="BORDER"/></g><metadata><rdf:RDF xmlns:rdf="http://www.w3.org/1999/02/22-rdf-syntax-ns#" xmlns:rdfs="http://www.w3.org/2000/01/rdf-schema#" xmlns:dc="http://purl.org/dc/elements/1.1/"><rdf:Description about="https://iconscout.com/legal#licenses" dc:title="essential,s,crosshair" dc:description="essential,s,crosshair" dc:publisher="Iconscout" dc:date="2017-09-15" dc:format="image/svg+xml" dc:language="en"><dc:creator><rdf:Bag><rdf:li>Bryn Taylor</rdf:li></rdf:Bag></dc:creator></rdf:Description></rdf:RDF></metadata></svg>