<?xml version="1.0" encoding="UTF-8"?><svg xmlns="http://www.w3.org/2000/svg" xmlns:xlink="http://www.w3.org/1999/xlink" version="1.1" x="0px" y="0px" width="100px" height="100px" viewBox="0 0 100 100" xml:space="preserve"><g id="_x37_7_Essential_Icons"><path id="Document" d="M79.2 32.4L57.4 10.6c-.4-.4-.9-.6-1.4-.6H24c-2.2 0-4 1.8-4 4v72c0 2.2 1.8 4 4 4h52c2.2 0 4-1.8 4-4V33.7c-.1-.6-.4-.9-.8-1.3zM58 16.8L73.2 32H58V16.8zM76 86H24V14h30v20c0 1.1.9 2 2 2h20v50z"/></g><g id="Info"><path fill="#00F" d="M384-790V894h-1784V-790H384m8-8h-1800V902H392V-798z" id="BORDER"/></g><metadata><rdf:RDF xmlns:rdf="http://www.w3.org/1999/02/22-rdf-syntax-ns#" xmlns:rdfs="http://www.w3.org/2000/01/rdf-schema#" xmlns:dc="http://purl.org/dc/elements/1.1/"><rdf:Description about="https://iconscout.com/legal#licenses" dc:title="essential,s,document" dc:description="essential,s,document" dc:publisher="Iconscout" dc:date="2017-09-15" dc:format="image/svg+xml" dc:language="en"><dc:creator><rdf:Bag><rdf:li>Bryn Taylor</rdf:li></rdf:Bag></dc:creator></rdf:Description></rdf:RDF></metadata></svg>