<?xml version="1.0" encoding="UTF-8"?><svg xmlns="http://www.w3.org/2000/svg" xmlns:xlink="http://www.w3.org/1999/xlink" version="1.1" x="0px" y="0px" width="100px" height="100px" viewBox="0 0 100 100" xml:space="preserve"><g id="_x37_7_Essential_Icons"><path id="Email" d="M88 23H12c-1.1 0-2 .9-2 2v50c0 1.1.9 2 2 2h76c1.1 0 2-.9 2-2V25c0-1.1-.9-2-2-2zm-4.8 4L50 60.2 16.8 27h66.4zM14 29.8L34.2 50 14 70.2V29.8zM16.9 73L37 52.9l11.6 11.6c.8.8 2 .8 2.8 0L63 52.9 83.1 73H16.9zM86 70.2L65.8 50 86 29.8v40.4z"/></g><g id="Info"><path fill="#00F" d="M804-510v1684H-980V-510H804m8-8H-988v1700H812V-518z" id="BORDER"/></g><metadata><rdf:RDF xmlns:rdf="http://www.w3.org/1999/02/22-rdf-syntax-ns#" xmlns:rdfs="http://www.w3.org/2000/01/rdf-schema#" xmlns:dc="http://purl.org/dc/elements/1.1/"><rdf:Description about="https://iconscout.com/legal#licenses" dc:title="essential,s,email" dc:description="essential,s,email" dc:publisher="Iconscout" dc:date="2017-09-15" dc:format="image/svg+xml" dc:language="en"><dc:creator><rdf:Bag><rdf:li>Bryn Taylor</rdf:li></rdf:Bag></dc:creator></rdf:Description></rdf:RDF></metadata></svg>