<?xml version="1.0" encoding="UTF-8"?><svg xmlns="http://www.w3.org/2000/svg" xmlns:xlink="http://www.w3.org/1999/xlink" version="1.1" x="0px" y="0px" width="100px" height="100px" viewBox="0 0 100 100" xml:space="preserve"><g id="_x37_7_Essential_Icons"><path id="Home" d="M89.2 49.4L51.4 11.6c-.7-.8-2.1-.8-2.8 0l-38 38C9.3 50.8 10.2 53 12 53h10v34c0 1.1.9 2 2 2h18c1.1 0 2-.9 2-2V71h12v16c0 1.1.9 2 2 2h18c1.1 0 2-.9 2-2V53h10c2.2 0 2.5-2.3 1.2-3.6zM74 85H60V69c0-1.1-.9-2-2-2H42c-1.1 0-2 .9-2 2v16H26V53h48v32zM16.8 49L50 15.8 83.2 49H16.8z"/></g><g id="Info"><path fill="#00F" d="M384-370v1684h-1784V-370H384m8-8h-1800v1700H392V-378z" id="BORDER"/></g><metadata><rdf:RDF xmlns:rdf="http://www.w3.org/1999/02/22-rdf-syntax-ns#" xmlns:rdfs="http://www.w3.org/2000/01/rdf-schema#" xmlns:dc="http://purl.org/dc/elements/1.1/"><rdf:Description about="https://iconscout.com/legal#licenses" dc:title="essential,s,home" dc:description="essential,s,home" dc:publisher="Iconscout" dc:date="2017-09-15" dc:format="image/svg+xml" dc:language="en"><dc:creator><rdf:Bag><rdf:li>Bryn Taylor</rdf:li></rdf:Bag></dc:creator></rdf:Description></rdf:RDF></metadata></svg>