<?xml version="1.0" encoding="UTF-8"?><svg xmlns="http://www.w3.org/2000/svg" xmlns:xlink="http://www.w3.org/1999/xlink" version="1.1" x="0px" y="0px" width="100px" height="100px" viewBox="0 0 100 100" xml:space="preserve"><g id="_x37_7_Essential_Icons"><path id="Inbox" d="M81 60.6l-8-40c-.2-.9-1-1.6-2-1.6H30c-.9 0-1.8.6-2 1.6l-9 40V79c0 1.1.9 2 2 2h58c1.1 0 2-.9 2-2V61v-.4zM31.6 23h37.7l7.2 36H59c-1.1 0-2 .9-2 2 0 2.8-4.2 6.1-7 6.1s-7-3.3-7-6.1c0-1.1-.9-2-2-2H23.5l8.1-36zM77 77H23V63h16.2c.9 4 6.5 8 10.8 8 4.3 0 9.9-4 10.8-8H77v14z"/></g><g id="Info"><path fill="#00F" d="M1504-650v1684H-280V-650h1784m8-8H-288v1700h1800V-658z" id="BORDER"/></g><metadata><rdf:RDF xmlns:rdf="http://www.w3.org/1999/02/22-rdf-syntax-ns#" xmlns:rdfs="http://www.w3.org/2000/01/rdf-schema#" xmlns:dc="http://purl.org/dc/elements/1.1/"><rdf:Description about="https://iconscout.com/legal#licenses" dc:title="essential,s,inbox" dc:description="essential,s,inbox" dc:publisher="Iconscout" dc:date="2017-09-15" dc:format="image/svg+xml" dc:language="en"><dc:creator><rdf:Bag><rdf:li>Bryn Taylor</rdf:li></rdf:Bag></dc:creator></rdf:Description></rdf:RDF></metadata></svg>