<?xml version="1.0" encoding="UTF-8"?><svg xmlns="http://www.w3.org/2000/svg" xmlns:xlink="http://www.w3.org/1999/xlink" version="1.1" x="0px" y="0px" width="100px" height="100px" viewBox="0 0 100 100" xml:space="preserve"><g id="_x37_7_Essential_Icons"><path id="Layers" d="M84 14H36c-1.1 0-2 .9-2 2v18H16c-1.1 0-2 .9-2 2v48c0 1.1.9 2 2 2h48c1.1 0 2-.9 2-2V66h18c1.1 0 2-.9 2-2V16c0-1.1-.9-2-2-2zM62 82H18V38h16v26c0 1.1.9 2 2 2h26v16zm20-20H38V18h44v44z"/></g><g id="Info"><path fill="#00F" d="M1364-1070V614H-420v-1684h1784m8-8H-428V622h1800v-1700z" id="BORDER"/></g><metadata><rdf:RDF xmlns:rdf="http://www.w3.org/1999/02/22-rdf-syntax-ns#" xmlns:rdfs="http://www.w3.org/2000/01/rdf-schema#" xmlns:dc="http://purl.org/dc/elements/1.1/"><rdf:Description about="https://iconscout.com/legal#licenses" dc:title="essential,s,layers" dc:description="essential,s,layers" dc:publisher="Iconscout" dc:date="2017-09-15" dc:format="image/svg+xml" dc:language="en"><dc:creator><rdf:Bag><rdf:li>Bryn Taylor</rdf:li></rdf:Bag></dc:creator></rdf:Description></rdf:RDF></metadata></svg>