<?xml version="1.0" encoding="UTF-8"?><svg xmlns="http://www.w3.org/2000/svg" xmlns:xlink="http://www.w3.org/1999/xlink" version="1.1" x="0px" y="0px" width="100px" height="100px" viewBox="0 0 100 100" xml:space="preserve"><g id="_x37_7_Essential_Icons"><path id="Location" d="M86.3 11.2l-74 30.7c-1.7.7-1.6 3.3.3 3.8l34.1 7.7 7.7 34.1c.4 1.9 3 2.1 3.7.3l30.8-74c.6-1.7-1-3.3-2.6-2.6zm-66.8 32l59.1-24.6-30.9 30.9-28.2-6.3zm37.3 37.3l-6.4-28.2 30.9-30.9-24.5 59.1z"/></g><g id="Info"><path fill="#00F" d="M1504-370v1684H-280V-370h1784m8-8H-288v1700h1800V-378z" id="BORDER"/></g><metadata><rdf:RDF xmlns:rdf="http://www.w3.org/1999/02/22-rdf-syntax-ns#" xmlns:rdfs="http://www.w3.org/2000/01/rdf-schema#" xmlns:dc="http://purl.org/dc/elements/1.1/"><rdf:Description about="https://iconscout.com/legal#licenses" dc:title="essential,s,location" dc:description="essential,s,location" dc:publisher="Iconscout" dc:date="2017-09-15" dc:format="image/svg+xml" dc:language="en"><dc:creator><rdf:Bag><rdf:li>Bryn Taylor</rdf:li></rdf:Bag></dc:creator></rdf:Description></rdf:RDF></metadata></svg>