<?xml version="1.0" encoding="UTF-8"?><svg xmlns="http://www.w3.org/2000/svg" xmlns:xlink="http://www.w3.org/1999/xlink" version="1.1" x="0px" y="0px" width="100px" height="100px" viewBox="0 0 100 100" xml:space="preserve"><g id="_x37_7_Essential_Icons"><path id="Medal" d="M81.3 50.9l-12.8-1.7L77 10.4c.2-1.2-.7-2.4-2-2.4H25c-1.3 0-2.2 1.2-2 2.4l8.6 38.8-12.9 1.7c-1.6.2-2.4 2.2-1.1 3.4l15.1 14.5-3.8 20.8c-.3 1.7 1.5 2.9 2.9 2.1l18.2-10 18.2 10.1c-2.2-1.3 2.9 2.3 2.9-2.1l-3.8-20.8 15.1-14.5c1.2-1.2.5-3.2-1.1-3.5zM52 12h20.5l-8.1 36.7-3.7-.5L52 29.5V12zm-24.5 0H48v17.5l-8.7 18.7-3.7.5L27.5 12zm36.3 54.7c-.5.5-.7 1.1-.6 1.8l3.2 17.7L51 77.6c-.3-.2-.6-.3-1-.3-.3 0-.7.1-1 .3l-15.5 8.6 3.2-17.7c.1-.7-.1-1.3-.6-1.8L23.4 54.3 40.9 52c.7-.1 1.3-.5 1.5-1.1L50 34.7l7.5 16.2c.3.6.9 1 1.5 1.1l17.5 2.3-12.7 12.4z"/></g><g id="Info"><path fill="#00F" d="M664-790V894h-1784V-790H664m8-8h-1800V902H672V-798z" id="BORDER"/></g><metadata><rdf:RDF xmlns:rdf="http://www.w3.org/1999/02/22-rdf-syntax-ns#" xmlns:rdfs="http://www.w3.org/2000/01/rdf-schema#" xmlns:dc="http://purl.org/dc/elements/1.1/"><rdf:Description about="https://iconscout.com/legal#licenses" dc:title="essential,s,medal" dc:description="essential,s,medal" dc:publisher="Iconscout" dc:date="2017-09-15" dc:format="image/svg+xml" dc:language="en"><dc:creator><rdf:Bag><rdf:li>Bryn Taylor</rdf:li></rdf:Bag></dc:creator></rdf:Description></rdf:RDF></metadata></svg>