<?xml version="1.0" encoding="UTF-8"?><svg xmlns="http://www.w3.org/2000/svg" xmlns:xlink="http://www.w3.org/1999/xlink" version="1.1" x="0px" y="0px" width="100px" height="100px" viewBox="0 0 100 100" xml:space="preserve"><g id="_x37_7_Essential_Icons"><path id="No_Volume" d="M87.4 57.6c.8.8.8 2 0 2.8-.4.4-.9.6-1.4.6s-1-.2-1.4-.6L77 52.8l-7.6 7.6c-.4.4-.9.6-1.4.6s-1-.2-1.4-.6c-.8-.8-.8-2 0-2.8l7.6-7.6-7.6-7.6c-.8-.8-.8-2 0-2.8.8-.8 2-.8 2.8 0l7.6 7.6 7.6-7.6c.8-.8 2-.8 2.8 0 .8.8.8 2 0 2.8L79.8 50l7.6 7.6zM60 16v68c0 .8-.5 1.5-1.2 1.8-.3.2-.5.2-.8.2-.5 0-1-.2-1.4-.6L38.2 67H14c-1.1 0-2-.9-2-2V35c0-1.1.9-2 2-2h24.2l18.4-18.4c.6-.6 1.4-.7 2.2-.4.7.3 1.2 1 1.2 1.8zM37 37H16v26h21V37zm19-16.2l-15 15v28.3l15 15V20.8z"/></g><g id="Info"><path fill="#00F" d="M384-650v1684h-1784V-650H384m8-8h-1800v1700H392V-658z" id="BORDER"/></g><metadata><rdf:RDF xmlns:rdf="http://www.w3.org/1999/02/22-rdf-syntax-ns#" xmlns:rdfs="http://www.w3.org/2000/01/rdf-schema#" xmlns:dc="http://purl.org/dc/elements/1.1/"><rdf:Description about="https://iconscout.com/legal#licenses" dc:title="essential,s,no,volume" dc:description="essential,s,no,volume" dc:publisher="Iconscout" dc:date="2017-09-15" dc:format="image/svg+xml" dc:language="en"><dc:creator><rdf:Bag><rdf:li>Bryn Taylor</rdf:li></rdf:Bag></dc:creator></rdf:Description></rdf:RDF></metadata></svg>