<?xml version="1.0" encoding="UTF-8"?><svg xmlns="http://www.w3.org/2000/svg" xmlns:xlink="http://www.w3.org/1999/xlink" version="1.1" x="0px" y="0px" width="100px" height="100px" viewBox="0 0 100 100" xml:space="preserve"><g id="_x37_7_Essential_Icons"><path id="Padlock" d="M83 39h-9c0-13.2-10.8-24-24-24S26 25.8 26 39h-9c-1.1 0-2 .9-2 2v42c0 1.1.9 2 2 2h66c1.1 0 2-.9 2-2V41c0-1.1-.9-2-2-2zM50 19c11 0 20 9 20 20H30c0-11 9-20 20-20zm31 62H19V43h62v38zM50 53c-3.9 0-7 3.1-7 7 0 3.2 2.1 5.8 5 6.7V71c0 1.1.9 2 2 2s2-.9 2-2v-4.3c2.9-.9 5-3.5 5-6.7 0-3.9-3.1-7-7-7zm0 10c-1.7 0-3-1.4-3-3 0-1.7 1.3-3 3-3s3 1.3 3 3c0 1.6-1.3 3-3 3z"/></g><g id="Info"><path fill="#00F" d="M1224-930V754H-560V-930h1784m8-8H-568V762h1800V-938z" id="BORDER"/></g><metadata><rdf:RDF xmlns:rdf="http://www.w3.org/1999/02/22-rdf-syntax-ns#" xmlns:rdfs="http://www.w3.org/2000/01/rdf-schema#" xmlns:dc="http://purl.org/dc/elements/1.1/"><rdf:Description about="https://iconscout.com/legal#licenses" dc:title="essential,s,padlock" dc:description="essential,s,padlock" dc:publisher="Iconscout" dc:date="2017-09-15" dc:format="image/svg+xml" dc:language="en"><dc:creator><rdf:Bag><rdf:li>Bryn Taylor</rdf:li></rdf:Bag></dc:creator></rdf:Description></rdf:RDF></metadata></svg>