<?xml version="1.0" encoding="UTF-8"?><svg xmlns="http://www.w3.org/2000/svg" xmlns:xlink="http://www.w3.org/1999/xlink" version="1.1" x="0px" y="0px" width="100px" height="100px" viewBox="0 0 100 100" xml:space="preserve"><g id="_x37_7_Essential_Icons"><path id="Printer" d="M86 63V39m0 24V39M10 63V39m80 24V39M63 62H37c-1.1 0-2 .9-2 2s.9 2 2 2h26c1.1 0 2-.9 2-2s-.9-2-2-2zm0 10H37c-1.1 0-2 .9-2 2s.9 2 2 2h26c1.1 0 2-.9 2-2s-.9-2-2-2zm0-10H37c-1.1 0-2 .9-2 2s.9 2 2 2h26c1.1 0 2-.9 2-2s-.9-2-2-2zm0 10H37c-1.1 0-2 .9-2 2s.9 2 2 2h26c1.1 0 2-.9 2-2s-.9-2-2-2zm0 0H37c-1.1 0-2 .9-2 2s.9 2 2 2h26c1.1 0 2-.9 2-2s-.9-2-2-2zm0-10H37c-1.1 0-2 .9-2 2s.9 2 2 2h26c1.1 0 2-.9 2-2s-.9-2-2-2zm-26 4h26c1.1 0 2-.9 2-2s-.9-2-2-2H37c-1.1 0-2 .9-2 2s.9 2 2 2zm26 6H37c-1.1 0-2 .9-2 2s.9 2 2 2h26c1.1 0 2-.9 2-2s-.9-2-2-2zm19-41h-7V17c0-1.1-.9-2-2-2H27c-1.1 0-2 .9-2 2v14h-7c-4.4 0-8 3.6-8 8v24c0 4.4 3.6 8 8 8h7v12c0 1.1.9 2 2 2h46c1.1 0 2-.9 2-2V71h7c4.4 0 8-3.6 8-8V39c0-4.4-3.6-8-8-8zM29 19h42v12H29V19zm42 62H29V57h42v24zm15-18c0 2.2-1.8 4-4 4h-7V55c0-1.1-.9-2-2-2H27c-1.1 0-2 .9-2 2v12h-7c-2.2 0-4-1.8-4-4V39c0-2.2 1.8-4 4-4h64c2.2 0 4 1.8 4 4v24zm-49 3h26c1.1 0 2-.9 2-2s-.9-2-2-2H37c-1.1 0-2 .9-2 2s.9 2 2 2zm0 10h26c1.1 0 2-.9 2-2s-.9-2-2-2H37c-1.1 0-2 .9-2 2s.9 2 2 2zm26-4H37c-1.1 0-2 .9-2 2s.9 2 2 2h26c1.1 0 2-.9 2-2s-.9-2-2-2zm0-10H37c-1.1 0-2 .9-2 2s.9 2 2 2h26c1.1 0 2-.9 2-2s-.9-2-2-2zm0 0H37c-1.1 0-2 .9-2 2s.9 2 2 2h26c1.1 0 2-.9 2-2s-.9-2-2-2zm0 10H37c-1.1 0-2 .9-2 2s.9 2 2 2h26c1.1 0 2-.9 2-2s-.9-2-2-2z"/></g><g id="Info"><path fill="#00F" d="M524-790V894h-1784V-790H524m8-8h-1800V902H532V-798z" id="BORDER"/></g><metadata><rdf:RDF xmlns:rdf="http://www.w3.org/1999/02/22-rdf-syntax-ns#" xmlns:rdfs="http://www.w3.org/2000/01/rdf-schema#" xmlns:dc="http://purl.org/dc/elements/1.1/"><rdf:Description about="https://iconscout.com/legal#licenses" dc:title="essential,s,printer" dc:description="essential,s,printer" dc:publisher="Iconscout" dc:date="2017-09-15" dc:format="image/svg+xml" dc:language="en"><dc:creator><rdf:Bag><rdf:li>Bryn Taylor</rdf:li></rdf:Bag></dc:creator></rdf:Description></rdf:RDF></metadata></svg>