<?xml version="1.0" encoding="UTF-8"?><svg xmlns="http://www.w3.org/2000/svg" xmlns:xlink="http://www.w3.org/1999/xlink" version="1.1" x="0px" y="0px" width="100px" height="100px" viewBox="0 0 100 100" xml:space="preserve"><g id="_x37_7_Essential_Icons"><path id="Right_Arrow" d="M61.4 51.8L45.3 67.9c-.8.8-2 .8-2.8 0-.8-.8-.8-2 0-2.8l14.7-14.7-15.5-15.5c-.8-.8-.8-2 0-2.8.8-.8 2-.8 2.8 0L61.4 49c.8.8.8 2 0 2.8zM88 50c0 21-17 38-38 38S12 71 12 50s17-38 38-38 38 17 38 38zm-4 0c0-18.8-15.2-34-34-34S16 31.2 16 50s15.2 34 34 34 34-15.2 34-34z"/></g><g id="Info"><path fill="#00F" d="M1084-1210V474H-700v-1684h1784m8-8H-708V482h1800v-1700z" id="BORDER"/></g><metadata><rdf:RDF xmlns:rdf="http://www.w3.org/1999/02/22-rdf-syntax-ns#" xmlns:rdfs="http://www.w3.org/2000/01/rdf-schema#" xmlns:dc="http://purl.org/dc/elements/1.1/"><rdf:Description about="https://iconscout.com/legal#licenses" dc:title="essential,s,right,arrow" dc:description="essential,s,right,arrow" dc:publisher="Iconscout" dc:date="2017-09-15" dc:format="image/svg+xml" dc:language="en"><dc:creator><rdf:Bag><rdf:li>Bryn Taylor</rdf:li></rdf:Bag></dc:creator></rdf:Description></rdf:RDF></metadata></svg>