<?xml version="1.0" encoding="UTF-8"?><svg xmlns="http://www.w3.org/2000/svg" xmlns:xlink="http://www.w3.org/1999/xlink" version="1.1" x="0px" y="0px" width="100px" height="100px" viewBox="0 0 100 100" xml:space="preserve"><g id="_x37_7_Essential_Icons"><path id="Shopping" d="M86 32H67.9c-1-9-8.6-16-17.9-16s-16.9 7-17.9 16H14c-1.1 0-2 .9-2 2v48c0 1.1.9 2 2 2h72c1.1 0 2-.9 2-2V34c0-1.1-.9-2-2-2zM66 46c1.1 0 2 .9 2 2s-.9 2-2 2-2-.9-2-2 .9-2 2-2zM50 20c7 0 12.9 5.2 13.8 12H36.2c.9-6.8 6.8-12 13.8-12zM34 46c1.1 0 2 .9 2 2s-.9 2-2 2-2-.9-2-2 .9-2 2-2zm50 34H16V36h16v6.3c-2.3.8-4 3-4 5.7 0 3.3 2.7 6 6 6s6-2.7 6-6c0-2.6-1.7-4.8-4-5.7V36h28v6.3c-2.3.8-4 3-4 5.7 0 3.3 2.7 6 6 6s6-2.7 6-6c0-2.6-1.7-4.8-4-5.7V36h16v44z"/></g><g id="Info"><path fill="#00F" d="M244-930V754h-1784V-930H244m8-8h-1800V762H252V-938z" id="BORDER"/></g><metadata><rdf:RDF xmlns:rdf="http://www.w3.org/1999/02/22-rdf-syntax-ns#" xmlns:rdfs="http://www.w3.org/2000/01/rdf-schema#" xmlns:dc="http://purl.org/dc/elements/1.1/"><rdf:Description about="https://iconscout.com/legal#licenses" dc:title="essential,s,shopping" dc:description="essential,s,shopping" dc:publisher="Iconscout" dc:date="2017-09-15" dc:format="image/svg+xml" dc:language="en"><dc:creator><rdf:Bag><rdf:li>Bryn Taylor</rdf:li></rdf:Bag></dc:creator></rdf:Description></rdf:RDF></metadata></svg>