<?xml version="1.0" encoding="UTF-8"?><svg xmlns="http://www.w3.org/2000/svg" xmlns:xlink="http://www.w3.org/1999/xlink" version="1.1" x="0px" y="0px" width="100px" height="100px" viewBox="0 0 100 100" xml:space="preserve"><g id="_x37_7_Essential_Icons"><path id="Signal" d="M58 38H42c-1.1 0-2 .9-2 2v40c0 1.1.9 2 2 2h16c1.1 0 2-.9 2-2V40c0-1.1-.9-2-2-2zm-2 40H44V42h12v36zM32 58H16c-1.1 0-2 .9-2 2v20c0 1.1.9 2 2 2h16c1.1 0 2-.9 2-2V60c0-1.1-.9-2-2-2zm-2 20H18V62h12v16zm54-60H68c-1.1 0-2 .9-2 2v60c0 1.1.9 2 2 2h16c1.1 0 2-.9 2-2V20c0-1.1-.9-2-2-2zm-2 60H70V22h12v56z"/></g><g id="Info"><path fill="#00F" d="M944-1070V614H-840v-1684H944m8-8H-848V622H952v-1700z" id="BORDER"/></g><metadata><rdf:RDF xmlns:rdf="http://www.w3.org/1999/02/22-rdf-syntax-ns#" xmlns:rdfs="http://www.w3.org/2000/01/rdf-schema#" xmlns:dc="http://purl.org/dc/elements/1.1/"><rdf:Description about="https://iconscout.com/legal#licenses" dc:title="essential,s,signal" dc:description="essential,s,signal" dc:publisher="Iconscout" dc:date="2017-09-15" dc:format="image/svg+xml" dc:language="en"><dc:creator><rdf:Bag><rdf:li>Bryn Taylor</rdf:li></rdf:Bag></dc:creator></rdf:Description></rdf:RDF></metadata></svg>