<?xml version="1.0" encoding="UTF-8"?><svg xmlns="http://www.w3.org/2000/svg" xmlns:xlink="http://www.w3.org/1999/xlink" version="1.1" x="0px" y="0px" width="100px" height="100px" viewBox="0 0 100 100" xml:space="preserve"><g id="_x37_7_Essential_Icons"><path id="Tablet" d="M72 11H28c-3.3 0-6 2.7-6 6v66c0 3.3 2.7 6 6 6h44c3.3 0 6-2.7 6-6V17c0-3.3-2.7-6-6-6zm2 72c0 1.1-.9 2-2 2H28c-1.1 0-2-.9-2-2v-4h48v4zm0-8H26V25h48v50zm0-54H26v-4c0-1.1.9-2 2-2h44c1.1 0 2 .9 2 2v4z"/></g><g id="Info"><path fill="#00F" d="M664-370v1684h-1784V-370H664m8-8h-1800v1700H672V-378z" id="BORDER"/></g><metadata><rdf:RDF xmlns:rdf="http://www.w3.org/1999/02/22-rdf-syntax-ns#" xmlns:rdfs="http://www.w3.org/2000/01/rdf-schema#" xmlns:dc="http://purl.org/dc/elements/1.1/"><rdf:Description about="https://iconscout.com/legal#licenses" dc:title="essential,s,tablet" dc:description="essential,s,tablet" dc:publisher="Iconscout" dc:date="2017-09-15" dc:format="image/svg+xml" dc:language="en"><dc:creator><rdf:Bag><rdf:li>Bryn Taylor</rdf:li></rdf:Bag></dc:creator></rdf:Description></rdf:RDF></metadata></svg>