<?xml version="1.0" encoding="UTF-8"?><svg xmlns="http://www.w3.org/2000/svg" xmlns:xlink="http://www.w3.org/1999/xlink" version="1.1" x="0px" y="0px" width="100px" height="100px" viewBox="0 0 100 100" xml:space="preserve"><g id="_x37_7_Essential_Icons"><path id="Toggle" d="M62.7 23h-26C22 23 10 35.1 10 50s12 27 26.7 27h26C77.8 77 90 64.9 90 50S77.8 23 62.7 23zm0 50h-26C24.2 73 14 62.7 14 50s10.2-23 22.7-23h26C75.3 27 86 37.5 86 50S75.3 73 62.7 73zm.1-42C52.4 31 44 39.5 44 50s8.4 19 18.8 19C73.4 69 82 60.5 82 50s-8.6-19-19.2-19zm0 34C54.7 65 48 58.3 48 50s6.7-15 14.8-15C71.1 35 78 41.9 78 50s-7 15-15.2 15z"/></g><g id="Info"><path fill="#00F" d="M1224-1070V614H-560v-1684h1784m8-8H-568V622h1800v-1700z" id="BORDER"/></g><metadata><rdf:RDF xmlns:rdf="http://www.w3.org/1999/02/22-rdf-syntax-ns#" xmlns:rdfs="http://www.w3.org/2000/01/rdf-schema#" xmlns:dc="http://purl.org/dc/elements/1.1/"><rdf:Description about="https://iconscout.com/legal#licenses" dc:title="essential,s,toggle" dc:description="essential,s,toggle" dc:publisher="Iconscout" dc:date="2017-09-15" dc:format="image/svg+xml" dc:language="en"><dc:creator><rdf:Bag><rdf:li>Bryn Taylor</rdf:li></rdf:Bag></dc:creator></rdf:Description></rdf:RDF></metadata></svg>