<?xml version="1.0" encoding="UTF-8"?><svg xmlns="http://www.w3.org/2000/svg" xmlns:xlink="http://www.w3.org/1999/xlink" version="1.1" x="0px" y="0px" width="100px" height="100px" viewBox="0 0 100 100" xml:space="preserve"><g id="_x37_7_Essential_Icons"><path id="Typing_Message" d="M86 17H14c-1.1 0-2 .9-2 2v48c0 1.1.9 2 2 2h16v12c0 1.9 2.3 2.6 3.4 1.4L47 69h39c1.1 0 2-.9 2-2V19c0-1.1-.9-2-2-2zm-2 48H46.2c-.5 0-1 .2-1.4.6L34 76.2V67c0-1.1-.9-2-2-2H16V21h68v44zM50 37c-3.9 0-7 3.1-7 7s3.1 7 7 7 7-3.1 7-7-3.1-7-7-7zm0 10c-1.7 0-3-1.3-3-3 0-1.6 1.3-3 3-3 1.6 0 3 1.4 3 3 0 1.7-1.4 3-3 3zm20-10c-3.9 0-7 3.1-7 7s3.1 7 7 7 7-3.1 7-7-3.1-7-7-7zm0 10c-1.7 0-3-1.3-3-3 0-1.6 1.3-3 3-3s3 1.4 3 3c0 1.7-1.4 3-3 3zM30 37c-3.9 0-7 3.1-7 7s3.1 7 7 7 7-3.1 7-7-3.1-7-7-7zm0 10c-1.6 0-3-1.3-3-3 0-1.6 1.4-3 3-3 1.7 0 3 1.4 3 3 0 1.7-1.4 3-3 3z"/></g><g id="Info"><path fill="#00F" d="M1084-510v1684H-700V-510h1784m8-8H-708v1700h1800V-518z" id="BORDER"/></g><metadata><rdf:RDF xmlns:rdf="http://www.w3.org/1999/02/22-rdf-syntax-ns#" xmlns:rdfs="http://www.w3.org/2000/01/rdf-schema#" xmlns:dc="http://purl.org/dc/elements/1.1/"><rdf:Description about="https://iconscout.com/legal#licenses" dc:title="essential,s,typing,comment" dc:description="essential,s,typing,comment" dc:publisher="Iconscout" dc:date="2017-09-15" dc:format="image/svg+xml" dc:language="en"><dc:creator><rdf:Bag><rdf:li>Bryn Taylor</rdf:li></rdf:Bag></dc:creator></rdf:Description></rdf:RDF></metadata></svg>