<?xml version="1.0" encoding="UTF-8"?><svg xmlns="http://www.w3.org/2000/svg" xmlns:xlink="http://www.w3.org/1999/xlink" version="1.1" x="0px" y="0px" width="100px" height="100px" viewBox="0 0 100 100" xml:space="preserve"><g id="_x37_7_Essential_Icons"><path id="Up_Arrow" d="M67.9 57.4c-.8.8-2 .8-2.8 0L50.4 42.7 34.9 58.2c-.8.8-2 .8-2.8 0-.8-.8-.8-2 0-2.8L49 38.5c.8-.8 2.1-.8 2.8 0l16.1 16.1c.8.8.8 2 0 2.8zM88 50c0 21-17 38-38 38S12 71 12 50s17-38 38-38 38 17 38 38zm-4 0c0-18.8-15.3-34-34-34-18.8 0-34 15.2-34 34s15.2 34 34 34c18.7 0 34-15.2 34-34z"/></g><g id="Info"><path fill="#00F" d="M1224-1210V474H-560v-1684h1784m8-8H-568V482h1800v-1700z" id="BORDER"/></g><metadata><rdf:RDF xmlns:rdf="http://www.w3.org/1999/02/22-rdf-syntax-ns#" xmlns:rdfs="http://www.w3.org/2000/01/rdf-schema#" xmlns:dc="http://purl.org/dc/elements/1.1/"><rdf:Description about="https://iconscout.com/legal#licenses" dc:title="essential,s,up,arrow" dc:description="essential,s,up,arrow" dc:publisher="Iconscout" dc:date="2017-09-15" dc:format="image/svg+xml" dc:language="en"><dc:creator><rdf:Bag><rdf:li>Bryn Taylor</rdf:li></rdf:Bag></dc:creator></rdf:Description></rdf:RDF></metadata></svg>