<?xml version="1.0" encoding="UTF-8"?><svg xmlns="http://www.w3.org/2000/svg" xmlns:xlink="http://www.w3.org/1999/xlink" version="1.1" x="0px" y="0px" width="100px" height="100px" viewBox="0 0 100 100" xml:space="preserve"><g id="_x37_7_Essential_Icons"><path id="Video_Camera" d="M84.9 26.4L68 37.3V34c0-4.4-3.6-8-8-8H20c-4.4 0-8 3.6-8 8v32c0 4.4 3.6 8 8 8h40c4.4 0 8-3.6 8-8v-3.3l16.9 10.9c1.9 1 3.1-.7 3.1-1.7V28c0-1-1.1-2.8-3.1-1.6zM64 66c0 2.2-1.8 4-4 4H20c-2.2 0-4-1.8-4-4V34c0-2.2 1.8-4 4-4h40c2.2 0 4 1.8 4 4v32zm20 2.3L68 58V42l16-10.3v36.6z"/></g><g id="Info"><path fill="#00F" d="M1224-650v1684H-560V-650h1784m8-8H-568v1700h1800V-658z" id="BORDER"/></g><metadata><rdf:RDF xmlns:rdf="http://www.w3.org/1999/02/22-rdf-syntax-ns#" xmlns:rdfs="http://www.w3.org/2000/01/rdf-schema#" xmlns:dc="http://purl.org/dc/elements/1.1/"><rdf:Description about="https://iconscout.com/legal#licenses" dc:title="essential,s,video,camera" dc:description="essential,s,video,camera" dc:publisher="Iconscout" dc:date="2017-09-15" dc:format="image/svg+xml" dc:language="en"><dc:creator><rdf:Bag><rdf:li>Bryn Taylor</rdf:li></rdf:Bag></dc:creator></rdf:Description></rdf:RDF></metadata></svg>