<?xml version="1.0" encoding="UTF-8"?><svg xmlns="http://www.w3.org/2000/svg" xmlns:xlink="http://www.w3.org/1999/xlink" version="1.1" x="0px" y="0px" width="100px" height="100px" viewBox="0 0 100 100" xml:space="preserve"><g id="_x37_7_Essential_Icons"><path id="Warning" d="M87.5 77.8L51.6 20c-.8-1.3-2.6-1.3-3.4 0L12.3 78c1.5-2.4-2.7 3 1.7 3.1h72c4-.1.7-4.3 1.5-3.3zM17.6 77l32.3-52.1L82.4 77H17.6zM52 39v16c0 1.1-.9 2-2 2s-2-.9-2-2V39c0-1.1.9-2 2-2s2 .9 2 2zm-1.9 22c-3.3 0-6 2.7-6 6s2.7 6 6 6 6-2.7 6-6c-.1-3.3-2.8-6-6-6zm0 8c-1.1 0-2-.9-2-2s.9-2 2-2 2 .9 2 2c-.1 1.1-1 2-2 2z"/></g><g id="Info"><path fill="#00F" d="M1644-1070V614H-140v-1684h1784m8-8H-148V622h1800v-1700z" id="BORDER"/></g><metadata><rdf:RDF xmlns:rdf="http://www.w3.org/1999/02/22-rdf-syntax-ns#" xmlns:rdfs="http://www.w3.org/2000/01/rdf-schema#" xmlns:dc="http://purl.org/dc/elements/1.1/"><rdf:Description about="https://iconscout.com/legal#licenses" dc:title="essential,s,warning" dc:description="essential,s,warning" dc:publisher="Iconscout" dc:date="2017-09-15" dc:format="image/svg+xml" dc:language="en"><dc:creator><rdf:Bag><rdf:li>Bryn Taylor</rdf:li></rdf:Bag></dc:creator></rdf:Description></rdf:RDF></metadata></svg>