<svg xmlns="http://www.w3.org/2000/svg" data-name="Layer 1" viewBox="0 0 32 32"><path fill="#8b8891" d="M31.5,10.361v2.09a1,1,0,0,1-1,1H1.5a1,1,0,0,1-1-1v-2.09Z"/><path fill="#d9d9db" d="M.5,10.454,14.887.819a2,2,0,0,1,2.226,0L31.5,10.454"/><path fill="#8b8891" d="M19.5,28.454h11a1,1,0,0,1,1,1v2H.5v-2a1,1,0,0,1,1-1H12"/><path fill="#afaeb3" d="M2.5 13.454h5a0 0 0 0 1 0 0v1a1 1 0 0 1-1 1h-3a1 1 0 0 1-1-1v-1A0 0 0 0 1 2.5 13.454zM3.5 26.454h3a1 1 0 0 1 1 1v1a0 0 0 0 1 0 0h-5a0 0 0 0 1 0 0v-1A1 1 0 0 1 3.5 26.454z"/><rect width="3" height="11" x="3.5" y="15.454" fill="#d9d9db"/><path fill="#afaeb3" d="M24.5 13.454h5a0 0 0 0 1 0 0v1a1 1 0 0 1-1 1h-3a1 1 0 0 1-1-1v-1A0 0 0 0 1 24.5 13.454zM25.5 26.454h3a1 1 0 0 1 1 1v1a0 0 0 0 1 0 0h-5a0 0 0 0 1 0 0v-1A1 1 0 0 1 25.5 26.454z"/><rect width="3" height="11" x="25.5" y="15.454" fill="#d9d9db"/><circle cx="16" cy="5.954" r="1.5" fill="#f2f2f2"/><circle cx="16" cy="19.454" r="6" fill="#fedc55"/><path d="M22.5,19.5a6.5,6.5,0,1,0-8.664,6.123.5.5,0,0,0,.328-.945,5.5,5.5,0,1,1,3.672,0A.5.5,0,0,0,18,25.65a.505.505,0,0,0,.164-.027A6.48,6.48,0,0,0,22.5,19.5Zm7.5-5V14h.5A1.5,1.5,0,0,0,32,12.5v-2c0-.016-.008-.03-.009-.046a.491.491,0,0,0-.02-.1.5.5,0,0,0-.159-.236c-.012-.01-.02-.024-.033-.034L17.391.45a2.49,2.49,0,0,0-2.782,0L.222,10.084c-.014.009-.021.023-.033.034a.476.476,0,0,0-.159.236.491.491,0,0,0-.02.1c0,.016-.009.029-.009.046v2A1.5,1.5,0,0,0,1.5,14H2v.5a1.5,1.5,0,0,0,1,1.408V26.044a1.5,1.5,0,0,0-1,1.408V28H1.5A1.5,1.5,0,0,0,0,29.5v2a.5.5,0,0,0,.5.5h31a.5.5,0,0,0,.5-.5v-2A1.5,1.5,0,0,0,30.5,28H30v-.548a1.5,1.5,0,0,0-1-1.408V15.908A1.5,1.5,0,0,0,30,14.5ZM15.166,1.281a1.493,1.493,0,0,1,1.669,0L29.855,10H2.145ZM3,27.452a.494.494,0,0,1,.382-.476A.48.48,0,0,0,3.5,27h3a.48.48,0,0,0,.118-.024A.494.494,0,0,1,7,27.452v.5H3ZM3.5,15a.5.5,0,0,1-.5-.5V14H7v.5a.5.5,0,0,1-.5.5ZM6,16v9.952H4V16ZM30.5,29a.5.5,0,0,1,.5.5V31H1V29.5a.5.5,0,0,1,.5-.5H12a.5.5,0,0,0,0-1H8v-.548a1.5,1.5,0,0,0-1-1.408V15.908A1.5,1.5,0,0,0,8,14.5V14h3a.5.5,0,0,0,0-1H1.5a.5.5,0,0,1-.5-.5V11H31v1.5a.5.5,0,0,1-.5.5h-10a.5.5,0,0,0,0,1H24v.5a1.5,1.5,0,0,0,1,1.408V26.044a1.5,1.5,0,0,0-1,1.408V28H19.5a.5.5,0,0,0,0,1Zm-2-2a.48.48,0,0,0,.118-.024.494.494,0,0,1,.382.476v.5H25v-.5a.494.494,0,0,1,.382-.476A.48.48,0,0,0,25.5,27ZM26,25.952V16h2v9.952ZM28.5,15h-3a.5.5,0,0,1-.5-.5V14h4v.5A.5.5,0,0,1,28.5,15ZM16,3.953a2,2,0,1,0,2,2A2,2,0,0,0,16,3.953Zm0,3a1,1,0,1,1,1-1A1,1,0,0,1,16,6.953ZM16.5,22h-1a1,1,0,0,1-1-1,.5.5,0,0,0-1,0,2,2,0,0,0,2,2v.5a.5.5,0,0,0,1,0V23a2,2,0,0,0,0-4h-1a1,1,0,0,1,0-2h1a1,1,0,0,1,1,1,.5.5,0,0,0,1,0,2,2,0,0,0-2-2v-.5a.5.5,0,0,0-1,0V16a2,2,0,0,0,0,4h1a1,1,0,0,1,0,2Zm.561,4.732-.561.561V25.5a.5.5,0,0,0-1,0v1.793l-.561-.561a.5.5,0,0,0-.707.707l1.413,1.413a.5.5,0,0,0,.708,0l1.413-1.413a.5.5,0,0,0-.707-.707Z"/></svg>