<svg xmlns="http://www.w3.org/2000/svg" data-name="Layer 1" viewBox="0 0 32 32"><path fill="#d9d9db" d="M25.417,31.5H4.5a2,2,0,0,1-2-2V2.5a2,2,0,0,1,2-2h14l7,8v11Z"/><path fill="#8b8891" d="M25.5,8.5h-5a2,2,0,0,1-2-2V.5Z"/><circle cx="25.5" cy="25.5" r="6" fill="#fedc55"/><polygon fill="#ed6649" points="12 10.179 12 14.52 10.5 13.52 9 14.52 9 10.325 12 10.179"/><path fill="#fedc55" d="M14.82,7.471c0,.542-.724.937-.919,1.409-.2.489.022,1.278-.346,1.646s-1.157.143-1.646.346c-.472.2-.866.919-1.409.919s-.937-.724-1.409-.919c-.489-.2-1.278.022-1.646-.346S7.3,9.368,7.1,8.879c-.2-.472-.919-.866-.919-1.409S6.9,6.534,7.1,6.062c.2-.489-.022-1.278.346-1.646S8.6,4.272,9.091,4.07c.472-.2.866-.919,1.409-.919s.937.724,1.409.919c.489.2,1.278-.022,1.646.346s.143,1.157.346,1.646C14.1,6.534,14.82,6.928,14.82,7.471Z"/><circle cx="10.5" cy="7.471" r="1" fill="#f8a839"/><path d="M6.638,9.07a1.891,1.891,0,0,1,.066.547,1.784,1.784,0,0,0,.388,1.262,1.783,1.783,0,0,0,1.262.388c.053,0,.1.006.156.009a.463.463,0,0,0-.01.049v3.2a.5.5,0,0,0,.777.416l1.223-.815,1.223.815a.5.5,0,0,0,.777-.416V11.275l.146-.008a1.783,1.783,0,0,0,1.262-.388A1.784,1.784,0,0,0,14.3,9.617a1.879,1.879,0,0,1,.066-.546,1.823,1.823,0,0,1,.324-.407,1.8,1.8,0,0,0,.634-1.194,1.8,1.8,0,0,0-.634-1.194,1.844,1.844,0,0,1-.324-.406,1.891,1.891,0,0,1-.066-.547,1.783,1.783,0,0,0-.388-1.262,1.78,1.78,0,0,0-1.262-.388,1.906,1.906,0,0,1-.547-.067,1.835,1.835,0,0,1-.407-.324A1.8,1.8,0,0,0,10.5,2.65a1.8,1.8,0,0,0-1.192.633,1.835,1.835,0,0,1-.407.324,1.906,1.906,0,0,1-.547.067,1.78,1.78,0,0,0-1.262.388A1.783,1.783,0,0,0,6.7,5.324a1.879,1.879,0,0,1-.066.546,1.823,1.823,0,0,1-.324.407A1.8,1.8,0,0,0,5.68,7.471a1.8,1.8,0,0,0,.634,1.194A1.844,1.844,0,0,1,6.638,9.07ZM11.5,13.586l-.723-.482a.5.5,0,0,0-.555,0l-.723.482V11.832a1.523,1.523,0,0,0,1,.459,1.523,1.523,0,0,0,1-.459ZM7.043,6.961a2.431,2.431,0,0,0,.519-.708A2.566,2.566,0,0,0,7.7,5.362a1.343,1.343,0,0,1,.1-.593,1.336,1.336,0,0,1,.593-.1,2.576,2.576,0,0,0,.892-.142,2.437,2.437,0,0,0,.708-.519c.173-.162.387-.363.509-.363s.336.2.509.363a2.437,2.437,0,0,0,.708.519,2.576,2.576,0,0,0,.892.142,1.336,1.336,0,0,1,.593.1,1.343,1.343,0,0,1,.1.593,2.575,2.575,0,0,0,.142.892,2.439,2.439,0,0,0,.519.707c.162.173.363.388.363.51s-.2.337-.363.51a2.431,2.431,0,0,0-.519.708,2.565,2.565,0,0,0-.142.89,1.344,1.344,0,0,1-.1.593,1.334,1.334,0,0,1-.593.1,2.588,2.588,0,0,0-.892.143,2.441,2.441,0,0,0-.708.519c-.173.161-.387.362-.509.362s-.336-.2-.509-.362a2.441,2.441,0,0,0-.708-.519,2.588,2.588,0,0,0-.892-.143,1.334,1.334,0,0,1-.593-.1,1.344,1.344,0,0,1-.1-.593,2.574,2.574,0,0,0-.142-.891,2.439,2.439,0,0,0-.519-.707c-.162-.173-.363-.388-.363-.51S6.881,7.134,7.043,6.961ZM10.5,8.971A1.5,1.5,0,1,0,9,7.471,1.5,1.5,0,0,0,10.5,8.971Zm0-2a.5.5,0,1,1-.5.5A.5.5,0,0,1,10.5,6.971Zm8,12H5.5a.5.5,0,0,0,0,1h13a.5.5,0,0,0,0-1Zm-1,3H5.5a.5.5,0,0,0,0,1h12a.5.5,0,0,0,0-1ZM25,23h1a1,1,0,0,1,1,1,.5.5,0,0,0,1,0,2,2,0,0,0-2-2v-.5a.5.5,0,0,0-1,0V22a2,2,0,0,0,0,4h1a1,1,0,0,1,0,2H25a1,1,0,0,1-1-1,.5.5,0,0,0-1,0,2,2,0,0,0,2,2v.5a.5.5,0,0,0,1,0V29a2,2,0,0,0,0-4H25a1,1,0,0,1,0-2Zm1-3.975V8.5a.484.484,0,0,0-.009-.048.459.459,0,0,0-.009-.052.49.49,0,0,0-.106-.229l-7-8a.487.487,0,0,0-.225-.138.458.458,0,0,0-.069-.015A.485.485,0,0,0,18.5,0H4.5A2.5,2.5,0,0,0,2,2.5v27A2.5,2.5,0,0,0,4.5,32H25.417l.017,0c.022,0,.044,0,.066,0A6.5,6.5,0,0,0,26,19.025ZM19,1.831,24.4,8H20.5A1.5,1.5,0,0,1,19,6.5ZM4.5,31A1.5,1.5,0,0,1,3,29.5V2.5A1.5,1.5,0,0,1,4.5,1H18V6.5A2.5,2.5,0,0,0,20.5,9H25V19.025A6.489,6.489,0,0,0,22.052,31Zm21,0A5.5,5.5,0,1,1,31,25.5,5.507,5.507,0,0,1,25.5,31ZM5.5,16.971h17a.5.5,0,0,0,0-1H5.5a.5.5,0,0,0,0,1Zm12,11H5.5a.5.5,0,0,0,0,1h12a.5.5,0,0,0,0-1Zm-12-2h11a.5.5,0,0,0,0-1H5.5a.5.5,0,0,0,0,1Z"/></svg>