<svg xmlns="http://www.w3.org/2000/svg" data-name="Layer 1" viewBox="0 0 32 32"><path fill="#d9d9db" d="M21.5,31.5H3.5a2,2,0,0,1-2-2V4.5a2,2,0,0,1,2-2h18a2,2,0,0,1,2,2v25A2,2,0,0,1,21.5,31.5Z"/><rect width="16" height="5" x="4.5" y="5.5" fill="#54bbe8" rx="1" ry="1"/><rect width="4" height="3" x="4.5" y="15.5" fill="#fff" rx="1" ry="1"/><rect width="4" height="3" x="10.5" y="15.5" fill="#fff" rx="1" ry="1"/><rect width="4" height="3" x="16.5" y="15.5" fill="#fff" rx="1" ry="1"/><rect width="4" height="3" x="16.5" y="20.5" fill="#fff" rx="1" ry="1"/><rect width="4" height="3" x="10.5" y="20.5" fill="#fff" rx="1" ry="1"/><rect width="4" height="3" x="4.5" y="20.5" fill="#fff" rx="1" ry="1"/><rect width="4" height="3" x="4.5" y="25.5" fill="#fff" rx="1" ry="1"/><rect width="4" height="3" x="10.5" y="25.5" fill="#fff" rx="1" ry="1"/><rect width="4" height="3" x="16.5" y="25.5" fill="#fff" rx="1" ry="1"/><circle cx="25.5" cy="25.5" r="6" fill="#fedc55"/><path d="M5.5,11h14A1.5,1.5,0,0,0,21,9.5v-3A1.5,1.5,0,0,0,19.5,5H5.5A1.5,1.5,0,0,0,4,6.5v3A1.5,1.5,0,0,0,5.5,11ZM5,6.5A.5.5,0,0,1,5.5,6h14a.5.5,0,0,1,.5.5v3a.5.5,0,0,1-.5.5H5.5A.5.5,0,0,1,5,9.5ZM4.5,14h2a.5.5,0,0,0,0-1h-2a.5.5,0,0,0,0,1Zm4-1a.5.5,0,0,0,0,1h2a.5.5,0,0,0,0-1Zm6,0h-2a.5.5,0,0,0,0,1h2a.5.5,0,0,0,0-1Zm6,0h-4a.5.5,0,0,0,0,1h4a.5.5,0,0,0,0-1Zm-13,2h-2A1.5,1.5,0,0,0,4,16.5v1A1.5,1.5,0,0,0,5.5,19h2A1.5,1.5,0,0,0,9,17.5v-1A1.5,1.5,0,0,0,7.5,15ZM8,17.5a.5.5,0,0,1-.5.5h-2a.5.5,0,0,1-.5-.5v-1a.5.5,0,0,1,.5-.5h2a.5.5,0,0,1,.5.5ZM7.5,20h-2A1.5,1.5,0,0,0,4,21.5v1A1.5,1.5,0,0,0,5.5,24h2A1.5,1.5,0,0,0,9,22.5v-1A1.5,1.5,0,0,0,7.5,20ZM8,22.5a.5.5,0,0,1-.5.5h-2a.5.5,0,0,1-.5-.5v-1a.5.5,0,0,1,.5-.5h2a.5.5,0,0,1,.5.5ZM13.5,20h-2A1.5,1.5,0,0,0,10,21.5v1A1.5,1.5,0,0,0,11.5,24h2A1.5,1.5,0,0,0,15,22.5v-1A1.5,1.5,0,0,0,13.5,20Zm.5,2.5a.5.5,0,0,1-.5.5h-2a.5.5,0,0,1-.5-.5v-1a.5.5,0,0,1,.5-.5h2a.5.5,0,0,1,.5.5ZM7.5,25h-2A1.5,1.5,0,0,0,4,26.5v1A1.5,1.5,0,0,0,5.5,29h2A1.5,1.5,0,0,0,9,27.5v-1A1.5,1.5,0,0,0,7.5,25ZM8,27.5a.5.5,0,0,1-.5.5h-2a.5.5,0,0,1-.5-.5v-1a.5.5,0,0,1,.5-.5h2a.5.5,0,0,1,.5.5ZM13.5,25h-2A1.5,1.5,0,0,0,10,26.5v1A1.5,1.5,0,0,0,11.5,29h2A1.5,1.5,0,0,0,15,27.5v-1A1.5,1.5,0,0,0,13.5,25Zm.5,2.5a.5.5,0,0,1-.5.5h-2a.5.5,0,0,1-.5-.5v-1a.5.5,0,0,1,.5-.5h2a.5.5,0,0,1,.5.5ZM13.5,15h-2A1.5,1.5,0,0,0,10,16.5v1A1.5,1.5,0,0,0,11.5,19h2A1.5,1.5,0,0,0,15,17.5v-1A1.5,1.5,0,0,0,13.5,15Zm.5,2.5a.5.5,0,0,1-.5.5h-2a.5.5,0,0,1-.5-.5v-1a.5.5,0,0,1,.5-.5h2a.5.5,0,0,1,.5.5ZM19.5,15h-2A1.5,1.5,0,0,0,16,16.5v1A1.5,1.5,0,0,0,17.5,19h2A1.5,1.5,0,0,0,21,17.5v-1A1.5,1.5,0,0,0,19.5,15Zm.5,2.5a.5.5,0,0,1-.5.5h-2a.5.5,0,0,1-.5-.5v-1a.5.5,0,0,1,.5-.5h2a.5.5,0,0,1,.5.5ZM25.5,19a6.162,6.162,0,0,0-1.5.18V4.5A2.5,2.5,0,0,0,21.5,2H3.5A2.5,2.5,0,0,0,1,4.5v25A2.5,2.5,0,0,0,3.5,32h18a2.5,2.5,0,0,0,1.5-.5A6.5,6.5,0,1,0,25.5,19Zm-4,12H3.5A1.5,1.5,0,0,1,2,29.5V4.5A1.5,1.5,0,0,1,3.5,3h18A1.5,1.5,0,0,1,23,4.5v15a6.436,6.436,0,0,0-2.11,1.44A1.5,1.5,0,0,0,19.5,20h-2A1.5,1.5,0,0,0,16,21.5v1A1.5,1.5,0,0,0,17.5,24h1.68a6.511,6.511,0,0,0-.16,1H17.5A1.5,1.5,0,0,0,16,26.5v1A1.5,1.5,0,0,0,17.5,29h2a1.28,1.28,0,0,0,.48-.09,6.376,6.376,0,0,0,1.95,2.02A1.251,1.251,0,0,1,21.5,31ZM20,21.5v.55a6.609,6.609,0,0,0-.5.95h-2a.5.5,0,0,1-.5-.5v-1a.5.5,0,0,1,.5-.5h2A.5.5,0,0,1,20,21.5ZM19.5,28h-2a.5.5,0,0,1-.5-.5v-1a.5.5,0,0,1,.5-.5h1.52A6.3,6.3,0,0,0,19.5,28Zm6,3a5.359,5.359,0,0,1-1.8-.31,4.491,4.491,0,0,1-.92-.42A5.521,5.521,0,0,1,20,25.5a2.612,2.612,0,0,1,.02-.4A5.353,5.353,0,0,1,21,22.35a5.415,5.415,0,0,1,2-1.74,5.093,5.093,0,0,1,1-.4A5.329,5.329,0,0,1,25.5,20a5.5,5.5,0,0,1,0,11ZM25,23h1a1,1,0,0,1,1,1,.5.5,0,0,0,1,0,2.006,2.006,0,0,0-2-2v-.5a.5.5,0,0,0-1,0V22a2,2,0,0,0-1.84,2.78,1.008,1.008,0,0,0,.12.23,1.1,1.1,0,0,0,.14.21,1.536,1.536,0,0,0,.17.19,1.649,1.649,0,0,0,.14.13c.04.03.07.06.11.09s.1.07.16.1A1.994,1.994,0,0,0,25,26h1a1,1,0,0,1,0,2H25a1,1,0,0,1-1-1,.5.5,0,0,0-1,0,2,2,0,0,0,2,2v.5a.5.5,0,0,0,1,0V29a2,2,0,0,0,0-4H25a1,1,0,0,1,0-2Z"/></svg>