<svg xmlns="http://www.w3.org/2000/svg" data-name="Layer 1" viewBox="0 0 32 32"><rect width="9" height="3" x=".5" y="28.5" fill="#fedc55" rx="1.5" ry="1.5"/><rect width="9" height="3" x=".5" y="25.5" fill="#f9be33" rx="1.5" ry="1.5"/><rect width="9" height="3" x=".5" y="22.5" fill="#fedc55" rx="1.5" ry="1.5"/><rect width="9" height="3" x="11.5" y="28.5" fill="#f9be33" rx="1.5" ry="1.5"/><rect width="9" height="3" x="11.5" y="25.5" fill="#fedc55" rx="1.5" ry="1.5"/><rect width="9" height="3" x="11.5" y="22.5" fill="#f9be33" rx="1.5" ry="1.5"/><rect width="9" height="3" x="11.5" y="19.5" fill="#fedc55" rx="1.5" ry="1.5"/><rect width="9" height="3" x="22.5" y="28.5" fill="#fedc55" rx="1.5" ry="1.5"/><rect width="9" height="3" x="22.5" y="25.5" fill="#f9be33" rx="1.5" ry="1.5"/><rect width="9" height="3" x="22.5" y="22.5" fill="#fedc55" rx="1.5" ry="1.5"/><rect width="9" height="3" x="22.5" y="19.5" fill="#f9be33" rx="1.5" ry="1.5"/><rect width="9" height="3" x="22.5" y="16.5" fill="#fedc55" rx="1.5" ry="1.5"/><path d="M5.5,18h-1a1,1,0,0,1-1-1,.5.5,0,0,0-1,0,2,2,0,0,0,2,2v.5a.5.5,0,0,0,1,0V19a2,2,0,0,0,0-4h-1a1,1,0,0,1,0-2h1a1,1,0,0,1,1,1,.5.5,0,0,0,1,0,2,2,0,0,0-2-2v-.5a.5.5,0,0,0-1,0V12a2,2,0,0,0,0,4h1a1,1,0,0,1,0,2Zm11-3h-1a1,1,0,0,1-1-1,.5.5,0,0,0-1,0,2,2,0,0,0,2,2v.5a.5.5,0,0,0,1,0V16a2,2,0,0,0,0-4h-1a1,1,0,0,1,0-2h1a1,1,0,0,1,1,1,.5.5,0,0,0,1,0,2,2,0,0,0-2-2V8.5a.5.5,0,0,0-1,0V9a2,2,0,0,0,0,4h1a1,1,0,0,1,0,2ZM19,19H13a1.992,1.992,0,0,0-1.309,3.5,1.973,1.973,0,0,0,0,3,1.973,1.973,0,0,0,0,3A1.992,1.992,0,0,0,13,32h6a1.992,1.992,0,0,0,1.309-3.5,1.973,1.973,0,0,0,0-3,1.973,1.973,0,0,0,0-3A1.992,1.992,0,0,0,19,19Zm0,12H13a1,1,0,0,1,0-2h6a1,1,0,0,1,0,2Zm0-3H13a1,1,0,0,1,0-2h6a1,1,0,0,1,0,2Zm0-3H13a1,1,0,0,1,0-2h6a1,1,0,0,1,0,2Zm0-3H13a1,1,0,0,1,0-2h6a1,1,0,0,1,0,2Zm8.5-10h-1a1,1,0,0,1-1-1,.5.5,0,0,0-1,0,2,2,0,0,0,2,2v.5a.5.5,0,0,0,1,0V13a2,2,0,0,0,0-4h-1a1,1,0,0,1,0-2h1a1,1,0,0,1,1,1,.5.5,0,0,0,1,0,2,2,0,0,0-2-2V5.5a.5.5,0,0,0-1,0V6a2,2,0,0,0,0,4h1a1,1,0,0,1,0,2Zm3.809,7.5A1.992,1.992,0,0,0,30,16H24a1.992,1.992,0,0,0-1.309,3.5,1.973,1.973,0,0,0,0,3,1.973,1.973,0,0,0,0,3,1.973,1.973,0,0,0,0,3A1.992,1.992,0,0,0,24,32h6a1.992,1.992,0,0,0,1.309-3.5,1.973,1.973,0,0,0,0-3,1.973,1.973,0,0,0,0-3,1.973,1.973,0,0,0,0-3ZM30,31H24a1,1,0,0,1,0-2h6a1,1,0,0,1,0,2Zm0-3H24a1,1,0,0,1,0-2h6a1,1,0,0,1,0,2Zm0-3H24a1,1,0,0,1,0-2h6a1,1,0,0,1,0,2Zm0-3H24a1,1,0,0,1,0-2h6a1,1,0,0,1,0,2Zm0-3H24a1,1,0,0,1,0-2h6a1,1,0,0,1,0,2ZM8,22H2A1.992,1.992,0,0,0,.691,25.5a1.973,1.973,0,0,0,0,3A1.992,1.992,0,0,0,2,32H8a1.992,1.992,0,0,0,1.309-3.5,1.973,1.973,0,0,0,0-3A1.992,1.992,0,0,0,8,22Zm0,9H2a1,1,0,0,1,0-2H8a1,1,0,0,1,0,2Zm0-3H2a1,1,0,0,1,0-2H8a1,1,0,0,1,0,2Zm0-3H2a1,1,0,0,1,0-2H8a1,1,0,0,1,0,2Z"/></svg>