<svg xmlns="http://www.w3.org/2000/svg" data-name="Layer 1" viewBox="0 0 32 32"><circle cx="6.5" cy="6.5" r="6" fill="#fedc55"/><circle cx="25.5" cy="25.5" r="6" fill="#fedc55"/><path d="M14.5,7h9A1.5,1.5,0,0,1,25,8.5v7.793l-.561-.561a.5.5,0,0,0-.707.707l1.413,1.413a.5.5,0,0,0,.708,0l1.413-1.413a.5.5,0,0,0-.707-.707L26,16.293V8.5A2.5,2.5,0,0,0,23.5,6h-9a.5.5,0,0,0,0,1ZM7,10.5V10A2,2,0,0,0,7,6H6A1,1,0,0,1,6,4H7A1,1,0,0,1,8,5,.5.5,0,0,0,9,5,2,2,0,0,0,7,3V2.5a.5.5,0,0,0-1,0V3A2,2,0,0,0,6,7H7A1,1,0,0,1,7,9H6A1,1,0,0,1,5,8,.5.5,0,0,0,4,8a2,2,0,0,0,2,2v.5a.5.5,0,0,0,1,0ZM17.5,25h-9A1.5,1.5,0,0,1,7,23.5V15.707l.561.561a.5.5,0,0,0,.707-.707L6.854,14.147a.5.5,0,0,0-.708,0L4.732,15.561a.5.5,0,0,0,.707.707L6,15.707V23.5A2.5,2.5,0,0,0,8.5,26h9a.5.5,0,0,0,0-1Zm8-6A6.5,6.5,0,1,0,32,25.5,6.508,6.508,0,0,0,25.5,19Zm0,12A5.5,5.5,0,1,1,31,25.5,5.507,5.507,0,0,1,25.5,31Zm1.7-2.667H24.927a7.29,7.29,0,0,0,.338-1.634,6.989,6.989,0,0,0,.023-.7H26.2a.5.5,0,0,0,0-1h-.98c-.014-.119-.029-.237-.043-.346-.1-.77-.138-1.156.133-1.523a1.066,1.066,0,0,1,.749-.465h.009a1.044,1.044,0,0,1,.724.454.5.5,0,1,0,.818-.574,2,2,0,0,0-1.526-.88,2.1,2.1,0,0,0-1.577.87,2.84,2.84,0,0,0-.321,2.248c.009.067.015.146.023.215H23.2a.5.5,0,1,0,0,1h1.073a5.6,5.6,0,0,1,0,.612,6.425,6.425,0,0,1-.526,2.021.5.5,0,0,0,.458.7h3a.5.5,0,0,0,0-1ZM13,6.5A6.5,6.5,0,1,0,6.5,13,6.508,6.508,0,0,0,13,6.5ZM1,6.5A5.5,5.5,0,1,1,6.5,12,5.507,5.507,0,0,1,1,6.5Z"/></svg>