<svg xmlns="http://www.w3.org/2000/svg" data-name="Layer 1" viewBox="0 0 32 32"><circle cx="6.5" cy="25.5" r="6" fill="#fedc55"/><path fill="#ed6649" d="M22,11.5v4a1,1,0,0,1-1,1H11a1,1,0,0,1-1-1v-4a3,3,0,0,1,3-3h6A3,3,0,0,1,22,11.5Z"/><path fill="#fcc37a" d="M17.5,5.979V8A1.5,1.5,0,0,1,16,9.5h0A1.5,1.5,0,0,1,14.5,8V5.979Z"/><path fill="#fddaaa" d="M19,2.956V4.031a3.471,3.471,0,0,1-2.109,3.193h0a2.27,2.27,0,0,1-1.782,0h0A3.471,3.471,0,0,1,13,4.031V2.956A2.456,2.456,0,0,1,15.456.5h1.089A2.456,2.456,0,0,1,19,2.956Z"/><circle cx="25.5" cy="25.5" r="6" fill="#fedc55"/><path d="M6.5,19A6.5,6.5,0,1,0,13,25.5,6.508,6.508,0,0,0,6.5,19Zm0,12A5.5,5.5,0,1,1,12,25.5,5.507,5.507,0,0,1,6.5,31Zm19-12A6.5,6.5,0,1,0,32,25.5,6.508,6.508,0,0,0,25.5,19Zm0,12A5.5,5.5,0,1,1,31,25.5,5.507,5.507,0,0,1,25.5,31ZM6.146,17.853a.5.5,0,0,0,.708,0l1.413-1.413a.5.5,0,0,0-.707-.707L7,16.293V13.5A1.5,1.5,0,0,1,8.5,12h1v3.5A1.5,1.5,0,0,0,11,17H21a1.5,1.5,0,0,0,1.5-1.5V12h1A1.5,1.5,0,0,1,25,13.5v2.793l-.561-.561a.5.5,0,0,0-.707.707l1.413,1.413a.5.5,0,0,0,.708,0l1.413-1.413a.5.5,0,0,0-.707-.707L26,16.293V13.5A2.5,2.5,0,0,0,23.5,11H22.449A3.5,3.5,0,0,0,19,8H18V7.133a3.961,3.961,0,0,0,1.5-3.1V2.956A2.959,2.959,0,0,0,16.544,0H15.456A2.959,2.959,0,0,0,12.5,2.956V4.031a3.961,3.961,0,0,0,1.5,3.1V8H13a3.5,3.5,0,0,0-3.449,3H8.5A2.5,2.5,0,0,0,6,13.5v2.793l-.561-.561a.5.5,0,0,0-.707.707ZM13.5,4.031V2.956A1.958,1.958,0,0,1,15.456,1h1.088A1.958,1.958,0,0,1,18.5,2.956V4.031a2.967,2.967,0,0,1-1.8,2.733,1.772,1.772,0,0,1-1.391,0A2.967,2.967,0,0,1,13.5,4.031ZM17,7.711V8a1,1,0,0,1-2,0V7.711a2.675,2.675,0,0,0,2,0ZM10.5,11.5A2.5,2.5,0,0,1,13,9h1.278a1.982,1.982,0,0,0,3.444,0H19a2.5,2.5,0,0,1,2.5,2.5v4a.5.5,0,0,1-.5.5H19.5V13.5a.5.5,0,0,0-1,0V16h-5V13.5a.5.5,0,0,0-1,0V16H11a.5.5,0,0,1-.5-.5Zm17,16.833H25.227a7.226,7.226,0,0,0,.338-1.634,6.989,6.989,0,0,0,.023-.7H26.5a.5.5,0,0,0,0-1h-.98c-.014-.119-.029-.237-.043-.346-.1-.77-.138-1.156.133-1.523a1,1,0,0,1,.758-.465,1.044,1.044,0,0,1,.724.454.5.5,0,1,0,.818-.574,2,2,0,0,0-1.526-.88,2.133,2.133,0,0,0-1.577.87,2.84,2.84,0,0,0-.321,2.248c.009.067.015.146.023.215H23.5a.5.5,0,0,0,0,1h1.073a5.592,5.592,0,0,1,0,.612,6.37,6.37,0,0,1-.526,2.02.5.5,0,0,0,.458.7h3a.5.5,0,0,0,0-1ZM6,23H7a1,1,0,0,1,1,1,.5.5,0,0,0,1,0,2,2,0,0,0-2-2v-.5a.5.5,0,0,0-1,0V22a2,2,0,0,0,0,4H7a1,1,0,0,1,0,2H6a1,1,0,0,1-1-1,.5.5,0,0,0-1,0,2,2,0,0,0,2,2v.5a.5.5,0,0,0,1,0V29a2,2,0,0,0,0-4H6a1,1,0,0,1,0-2Z"/></svg>