<svg xmlns="http://www.w3.org/2000/svg" data-name="Layer 1" viewBox="0 0 32 32"><path fill="#fdd331" d="M9.5,31.5H.5l.621-2.485A2,2,0,0,1,3.062,27.5H6.938a2,2,0,0,1,1.94,1.515Z"/><path fill="#fdd331" d="M14.5 27.5h-9l.621-2.485A2 2 0 0 1 8.062 23.5h3.877a2 2 0 0 1 1.94 1.515zM26.5 27.5h-9l.621-2.485a2 2 0 0 1 1.94-1.515h3.877a2 2 0 0 1 1.94 1.515z"/><path fill="#fdd331" d="M20.5 23.5h-9l.621-2.485a2 2 0 0 1 1.94-1.515h3.877a2 2 0 0 1 1.94 1.515zM20.5 31.5h-9l.621-2.485a2 2 0 0 1 1.94-1.515h3.877a2 2 0 0 1 1.94 1.515zM31.5 31.5h-9l.621-2.485a2 2 0 0 1 1.94-1.515h3.877a2 2 0 0 1 1.94 1.515z"/><circle cx="16" cy="6.325" r="6" fill="#fedc55"/><path d="M13.836,12.622a.5.5,0,1,0,.328-.944,5.5,5.5,0,1,1,3.672,0,.5.5,0,1,0,.328.944,6.5,6.5,0,1,0-4.328,0ZM16.5,9h-1a1,1,0,0,1-1-1,.5.5,0,0,0-1,0,2,2,0,0,0,2,2v.5a.5.5,0,0,0,1,0V10a2,2,0,0,0,0-4h-1a1,1,0,0,1,0-2h1a1,1,0,0,1,1,1,.5.5,0,0,0,1,0,2,2,0,0,0-2-2V2.5a.5.5,0,0,0-1,0V3a2,2,0,0,0,0,4h1a1,1,0,0,1,0,2Zm-2.854,6.146a.5.5,0,0,0,0,.707l2,2a.5.5,0,0,0,.708,0l2-2a.5.5,0,0,0-.707-.707L16.5,16.293V12.5a.5.5,0,0,0-1,0v3.793l-1.146-1.146A.5.5,0,0,0,13.646,15.146ZM31.985,31.379l-.621-2.485A2.5,2.5,0,0,0,28.938,27H26.89l-.526-2.106A2.5,2.5,0,0,0,23.938,23H20.89l-.526-2.106A2.5,2.5,0,0,0,17.938,19H14.062a2.5,2.5,0,0,0-2.425,1.894L11.11,23H8.062a2.5,2.5,0,0,0-2.425,1.894L5.11,27H3.062A2.5,2.5,0,0,0,.636,28.894L.015,31.379A.5.5,0,0,0,.5,32h9a.5.5,0,0,0,.485-.621l-.621-2.485A2.485,2.485,0,0,0,8.93,28H12.07a2.485,2.485,0,0,0-.434.894l-.621,2.485A.5.5,0,0,0,11.5,32h9a.5.5,0,0,0,.485-.621l-.621-2.485A2.485,2.485,0,0,0,19.93,28H23.07a2.485,2.485,0,0,0-.434.894l-.621,2.485A.5.5,0,0,0,22.5,32h9a.5.5,0,0,0,.485-.621ZM12.606,21.136A1.5,1.5,0,0,1,14.062,20h3.877a1.5,1.5,0,0,1,1.456,1.136L19.86,23H12.14ZM18.07,24a2.485,2.485,0,0,0-.434.894L17.11,27H14.89l-.526-2.106A2.485,2.485,0,0,0,13.93,24ZM1.14,31l.466-1.864A1.5,1.5,0,0,1,3.062,28H6.938a1.5,1.5,0,0,1,1.456,1.136L8.86,31Zm5.8-4h-.8l.466-1.864A1.5,1.5,0,0,1,8.062,24h3.877a1.5,1.5,0,0,1,1.456,1.136L13.86,27Zm5.2,4,.466-1.864A1.5,1.5,0,0,1,14.062,28h3.877a1.5,1.5,0,0,1,1.456,1.136L19.86,31Zm6-4,.466-1.864A1.5,1.5,0,0,1,20.062,24h3.877a1.5,1.5,0,0,1,1.456,1.136L25.86,27H18.14Zm5,4,.466-1.864A1.5,1.5,0,0,1,25.062,28h3.877a1.5,1.5,0,0,1,1.456,1.136L30.86,31Z"/></svg>