<svg xmlns="http://www.w3.org/2000/svg" data-name="Layer 1" viewBox="0 0 32 32"><circle cx="16" cy="16" r="11" fill="#fedc55"/><path fill="#fcc37a" d="M13.5 24v4.5h-3V24a1.5 1.5 0 0 1 3 0zM21.5 24v4.5l-3 1V24a1.5 1.5 0 0 1 3 0z"/><path fill="#ed6649" d="M21.5,24.94V28.5a2.772,2.772,0,0,1-.18,1,2.968,2.968,0,0,1-2.82,2h-5a3,3,0,0,1-3-3V24.94l3,.06v2a2.485,2.485,0,0,1,1.01-2H17.5a2.491,2.491,0,0,1,1,2V25h.03Z"/><path fill="#8b8891" d="M18.5,27a2.5,2.5,0,1,1-3.99-2A2.41,2.41,0,0,1,16,24.5,2.5,2.5,0,0,1,18.5,27Z"/><path fill="#fcc37a" d="M18.5 8V3.5h3V8a1.5 1.5 0 0 1-3 0zM10.5 8V3.5l3-1V8a1.5 1.5 0 0 1-3 0z"/><path fill="#989fcd" d="M10.5,7.06V3.5a2.772,2.772,0,0,1,.18-1A2.968,2.968,0,0,1,13.5.5h5a3,3,0,0,1,3,3V7.06L18.5,7V5a2.485,2.485,0,0,1-1.01,2H14.5a2.491,2.491,0,0,1-1-2V7h-.03Z"/><path fill="#8b8891" d="M13.5,5a2.5,2.5,0,1,1,3.99,2A2.41,2.41,0,0,1,16,7.5,2.5,2.5,0,0,1,13.5,5Z"/><path fill="#fcc37a" d="M24 18.5h4.5v3H24a1.5 1.5 0 0 1 0-3zM24 10.5h4.5l1 3H24a1.5 1.5 0 0 1 0-3z"/><path fill="#55bb8c" d="M24.94,10.5H28.5a2.772,2.772,0,0,1,1,.18,2.968,2.968,0,0,1,2,2.82v5a3,3,0,0,1-3,3H24.94l.06-3h2a2.485,2.485,0,0,1-2-1.01V14.5a2.491,2.491,0,0,1,2-1H25v-.03Z"/><path fill="#8b8891" d="M27,13.5a2.5,2.5,0,1,1-2,3.99A2.41,2.41,0,0,1,24.5,16,2.5,2.5,0,0,1,27,13.5Z"/><path fill="#fcc37a" d="M8 13.5H3.5v-3H8a1.5 1.5 0 0 1 0 3zM8 21.5H3.78l-1.28-3H8a1.5 1.5 0 0 1 0 3z"/><path fill="#82c8ec" d="M7.06,21.5H3.5a2.772,2.772,0,0,1-1-.18,2.968,2.968,0,0,1-2-2.82v-5a3,3,0,0,1,3-3H7.06L7,13.5H5a2.485,2.485,0,0,1,2,1.01V17.5a2.491,2.491,0,0,1-2,1H7v.03Z"/><path fill="#8b8891" d="M5,18.5a2.5,2.5,0,1,1,2-3.99A2.41,2.41,0,0,1,7.5,16,2.5,2.5,0,0,1,5,18.5Z"/><path d="M28.5,10H26.375A12.014,12.014,0,0,0,22,5.614V3.5A3.5,3.5,0,0,0,18.5,0h-5A3.5,3.5,0,0,0,10,3.5V5.627A11.989,11.989,0,0,0,5.626,10H3.5A3.5,3.5,0,0,0,0,13.5v5A3.5,3.5,0,0,0,3.5,22H5.628A11.983,11.983,0,0,0,10,26.372V28.5A3.5,3.5,0,0,0,13.5,32h5A3.5,3.5,0,0,0,22,28.5V26.373A11.98,11.98,0,0,0,26.372,22H28.5A3.5,3.5,0,0,0,32,18.5v-5A3.5,3.5,0,0,0,28.5,10ZM11,5.5v-2A2.5,2.5,0,0,1,13.5,1h5A2.5,2.5,0,0,1,21,3.5V7H19V5.5a.493.493,0,0,0-.034-.167A2.94,2.94,0,0,0,19,5a3,3,0,0,0-6,0,2.94,2.94,0,0,0,.034.333A.493.493,0,0,0,13,5.5V7H11ZM21,8a1,1,0,0,1-2,0ZM18,5a2,2,0,1,1-2-2A2,2,0,0,1,18,5ZM13,8a1,1,0,0,1-2,0ZM5.788,21H3.5A2.5,2.5,0,0,1,1,18.5v-5A2.5,2.5,0,0,1,3.5,11H7v2H5.5a.493.493,0,0,0-.167.034A2.94,2.94,0,0,0,5,13a3,3,0,0,0,0,6,2.94,2.94,0,0,0,.333-.034A.493.493,0,0,0,5.5,19H7v2H6.005A.494.494,0,0,0,5.788,21ZM7,16a2,2,0,1,1-2-2A2,2,0,0,1,7,16ZM21,26.5v2A2.5,2.5,0,0,1,18.5,31h-5A2.5,2.5,0,0,1,11,28.5V26.214a.493.493,0,0,0,0-.224V25h2v1.5a.493.493,0,0,0,.034.167A2.94,2.94,0,0,0,13,27a3,3,0,0,0,6,0,2.94,2.94,0,0,0-.034-.333A.493.493,0,0,0,19,26.5V25h2ZM11,24a1,1,0,0,1,2,0Zm3,3a2,2,0,1,1,2,2A2,2,0,0,1,14,27Zm5-3a1,1,0,0,1,2,0Zm3,1.188V24a2,2,0,0,0-4,0v.78a2.953,2.953,0,0,0-4,0V24a2,2,0,0,0-4,0v1.188A10.957,10.957,0,0,1,6.812,22H8a2,2,0,0,0,0-4H7.22a2.953,2.953,0,0,0,0-4H8a2,2,0,0,0,0-4H6.812A10.97,10.97,0,0,1,10,6.812V8a2,2,0,0,0,4,0V7.22a2.953,2.953,0,0,0,4,0V8a2,2,0,0,0,4,0V6.81A10.983,10.983,0,0,1,25.19,10H24a2,2,0,0,0,0,4h.78a2.953,2.953,0,0,0,0,4H24a2,2,0,0,0,0,4h1.188A10.963,10.963,0,0,1,22,25.188ZM8,21V19a1,1,0,0,1,0,2Zm0-8V11a1,1,0,0,1,0,2Zm16-2v2a1,1,0,0,1,0-2Zm0,8v2a1,1,0,0,1,0-2Zm7-.5A2.5,2.5,0,0,1,28.5,21H26.213a.5.5,0,0,0-.22,0H25V19h1.5a.493.493,0,0,0,.167-.034A2.94,2.94,0,0,0,27,19a3,3,0,0,0,0-6,2.94,2.94,0,0,0-.333.034A.493.493,0,0,0,26.5,13H25V11h3.5A2.5,2.5,0,0,1,31,13.5ZM25,16a2,2,0,1,1,2,2A2,2,0,0,1,25,16Zm-9.5-2.5h1a1,1,0,0,1,1,1,.5.5,0,0,0,1,0,2,2,0,0,0-2-2V12a.5.5,0,0,0-1,0v.5a2,2,0,0,0,0,4h1a1,1,0,0,1,0,2h-1a1,1,0,0,1-1-1,.5.5,0,0,0-1,0,2,2,0,0,0,2,2V20a.5.5,0,0,0,1,0v-.5a2,2,0,0,0,0-4h-1a1,1,0,0,1,0-2Z"/></svg>