<svg xmlns="http://www.w3.org/2000/svg" data-name="Layer 1" viewBox="0 0 32 32"><path fill="#fff" d="M25.424,31.5H6.5a2,2,0,0,1-2-2V2.5a2,2,0,0,1,2-2h14l7,8-.076,21.008A2,2,0,0,1,25.424,31.5Z"/><path fill="#afaeb3" d="M27.5,8.5h-5a2,2,0,0,1-2-2V.5Z"/><path d="M10,10H9A1,1,0,0,1,8,9,.5.5,0,0,0,7,9a2,2,0,0,0,2,2v.5a.5.5,0,0,0,1,0V11a2,2,0,0,0,0-4H9A1,1,0,0,1,9,5h1a1,1,0,0,1,1,1,.5.5,0,0,0,1,0,2,2,0,0,0-2-2V3.5a.5.5,0,0,0-1,0V4A2,2,0,0,0,9,8h1a1,1,0,0,1,0,2ZM24.5,28H7.5a.5.5,0,0,0,0,1h17a.5.5,0,0,0,0-1ZM10,21H9a1,1,0,0,1-1-1,.5.5,0,0,0-1,0,2,2,0,0,0,2,2v.5a.5.5,0,0,0,1,0V22a2,2,0,0,0,0-4H9a1,1,0,0,1,0-2h1a1,1,0,0,1,1,1,.5.5,0,0,0,1,0,2,2,0,0,0-2-2v-.5a.5.5,0,0,0-1,0V15a2,2,0,0,0,0,4h1a1,1,0,0,1,0,2Zm14.5,4H7.5a.5.5,0,0,0,0,1h17a.5.5,0,0,0,0-1ZM27.991,8.452a.471.471,0,0,0-.01-.054.494.494,0,0,0-.105-.228l-7-8a.487.487,0,0,0-.225-.138.458.458,0,0,0-.069-.015A.485.485,0,0,0,20.5,0H6.5A2.5,2.5,0,0,0,4,2.5v27A2.5,2.5,0,0,0,6.5,32H25.424a2.5,2.5,0,0,0,2.5-2.491L28,8.5A.487.487,0,0,0,27.991,8.452ZM21,1.831,24.263,5.56,26.4,8H22.5A1.5,1.5,0,0,1,21,6.5Zm5.924,27.675A1.5,1.5,0,0,1,25.424,31H6.5A1.5,1.5,0,0,1,5,29.5V2.5A1.5,1.5,0,0,1,6.5,1H20V5H14.5a.5.5,0,0,0,0,1H20v.5A2.476,2.476,0,0,0,20.513,8H14.5a.5.5,0,0,0,0,1H27ZM14,17.5a.5.5,0,0,0,.5.5h10a.5.5,0,0,0,0-1h-10A.5.5,0,0,0,14,17.5ZM24.5,20h-10a.5.5,0,0,0,0,1h10a.5.5,0,0,0,0-1Z"/></svg>