<svg xmlns="http://www.w3.org/2000/svg" data-name="Layer 1" viewBox="0 0 32 32"><path fill="#ed6649" d="M11.5,31.5H1.5a1,1,0,0,1-1-1v-3a3,3,0,0,1,3-3h7.156Z"/><path fill="#55bb8c" d="M31.5,27.5v3a1,1,0,0,1-1,1h-10l.5-7,5.9.01.01-.01H28.5A3,3,0,0,1,31.5,27.5Z"/><path fill="#82c8ec" d="M22,25.5v5a1,1,0,0,1-1,1H11a1,1,0,0,1-1-1v-5a3,3,0,0,1,3-3h6A3,3,0,0,1,22,25.5Z"/><path fill="#fcc37a" d="M8,21.976V24a1.5,1.5,0,0,1-1.5,1.5h0A1.5,1.5,0,0,1,5,24V21.976Z"/><path fill="#fddaaa" d="M9.5,19.257v.569A3.776,3.776,0,0,1,7.206,23.3h0a1.8,1.8,0,0,1-1.412,0h0A3.776,3.776,0,0,1,3.5,19.826v-.569A2.76,2.76,0,0,1,6.26,16.5h.48A2.76,2.76,0,0,1,9.5,19.257Z"/><path fill="#fcc37a" d="M17.5,19.976V22A1.5,1.5,0,0,1,16,23.5h0A1.5,1.5,0,0,1,14.5,22V19.976Z"/><path fill="#fddaaa" d="M19,17.257v.569A3.776,3.776,0,0,1,16.706,21.3h0a1.8,1.8,0,0,1-1.412,0h0A3.776,3.776,0,0,1,13,17.826v-.569a2.76,2.76,0,0,1,2.76-2.76h.48A2.76,2.76,0,0,1,19,17.257Z"/><path fill="#fcc37a" d="M27,21.976V24a1.5,1.5,0,0,1-1.5,1.5h0A1.5,1.5,0,0,1,24,24V21.976Z"/><path fill="#fddaaa" d="M28.5,19.257v.569A3.776,3.776,0,0,1,26.206,23.3h0a1.8,1.8,0,0,1-1.412,0h0A3.776,3.776,0,0,1,22.5,19.826v-.569a2.76,2.76,0,0,1,2.76-2.76h.48A2.76,2.76,0,0,1,28.5,19.257Z"/><path d="M26,12H25a1,1,0,0,1-1-1,.5.5,0,0,0-1,0,2,2,0,0,0,2,2v.5a.5.5,0,0,0,1,0V13a2,2,0,0,0,0-4H25a1,1,0,0,1,0-2h1a1,1,0,0,1,1,1,.5.5,0,0,0,1,0,2,2,0,0,0-2-2V5.5a.5.5,0,0,0-1,0V6a2,2,0,0,0,0,4h1a1,1,0,0,1,0,2ZM16.5,9h-1a1,1,0,0,1-1-1,.5.5,0,0,0-1,0,2,2,0,0,0,2,2v.5a.5.5,0,0,0,1,0V10a2,2,0,0,0,0-4h-1a1,1,0,0,1,0-2h1a1,1,0,0,1,1,1,.5.5,0,0,0,1,0,2,2,0,0,0-2-2V2.5a.5.5,0,0,0-1,0V3a2,2,0,0,0,0,4h1a1,1,0,0,1,0,2Zm12,15h-1v-.92A4.268,4.268,0,0,0,29,19.83V19.26A3.264,3.264,0,0,0,25.74,16H25.26A3.264,3.264,0,0,0,22,19.26v.569a4.268,4.268,0,0,0,1.5,3.25V24H22.149A3.5,3.5,0,0,0,19,22H18v-.92a4.268,4.268,0,0,0,1.5-3.25V17.26A3.264,3.264,0,0,0,16.24,14H15.76a3.264,3.264,0,0,0-3.26,3.26v.569A4.268,4.268,0,0,0,14,21.08V22H13a3.5,3.5,0,0,0-3.149,2H8.5v-.92A4.268,4.268,0,0,0,10,19.83V19.26A3.264,3.264,0,0,0,6.74,16H6.26A3.264,3.264,0,0,0,3,19.26v.569a4.268,4.268,0,0,0,1.5,3.25V24h-1A3.5,3.5,0,0,0,0,27.5v3A1.5,1.5,0,0,0,1.5,32h29A1.5,1.5,0,0,0,32,30.5v-3A3.5,3.5,0,0,0,28.5,24ZM4,19.83V19.26A2.263,2.263,0,0,1,6.26,17H6.74A2.263,2.263,0,0,1,9,19.26v.569a3.272,3.272,0,0,1-1.99,3.013,1.3,1.3,0,0,1-1.02,0A3.272,3.272,0,0,1,4,19.83Zm3.5,3.883V24a1,1,0,0,1-2,0v-.288c.034.015.064.036.1.051a2.315,2.315,0,0,0,1.8,0C7.436,23.748,7.466,23.728,7.5,23.712ZM4.5,31V27.5a.5.5,0,0,0-1,0V31h-2a.5.5,0,0,1-.5-.5v-3A2.5,2.5,0,0,1,3.5,25H4.778a1.982,1.982,0,0,0,3.444,0H9.551a3.455,3.455,0,0,0-.051.5v5a1.483,1.483,0,0,0,.092.5Zm9-13.17V17.26A2.263,2.263,0,0,1,15.76,15h.479a2.263,2.263,0,0,1,2.26,2.26v.569a3.272,3.272,0,0,1-1.99,3.013,1.3,1.3,0,0,1-1.02,0A3.272,3.272,0,0,1,13.5,17.83ZM17,21.712V22a1,1,0,0,1-2,0v-.288c.034.015.064.036.1.051a2.315,2.315,0,0,0,1.8,0C16.936,21.748,16.966,21.728,17,21.712ZM21.5,30.5a.5.5,0,0,1-.5.5H19.5V27.5a.5.5,0,0,0-1,0V31h-5V27.5a.5.5,0,0,0-1,0V31H11a.5.5,0,0,1-.5-.5v-5A2.5,2.5,0,0,1,13,23h1.278a1.982,1.982,0,0,0,3.444,0H19a2.5,2.5,0,0,1,2.5,2.5ZM23,19.83V19.26A2.263,2.263,0,0,1,25.26,17h.479A2.263,2.263,0,0,1,28,19.26v.569a3.272,3.272,0,0,1-1.99,3.013,1.3,1.3,0,0,1-1.02,0A3.272,3.272,0,0,1,23,19.83Zm3.5,3.883V24a1,1,0,0,1-2,0v-.288c.034.015.064.036.1.051a2.315,2.315,0,0,0,1.8,0C26.436,23.748,26.466,23.728,26.5,23.712ZM31,30.5a.5.5,0,0,1-.5.5h-2V27.5a.5.5,0,0,0-1,0V31H22.408a1.483,1.483,0,0,0,.092-.5v-5a3.455,3.455,0,0,0-.051-.5h1.329a1.982,1.982,0,0,0,3.444,0H28.5A2.5,2.5,0,0,1,31,27.5ZM7,12H6a1,1,0,0,1-1-1,.5.5,0,0,0-1,0,2,2,0,0,0,2,2v.5a.5.5,0,0,0,1,0V13A2,2,0,0,0,7,9H6A1,1,0,0,1,6,7H7A1,1,0,0,1,8,8,.5.5,0,0,0,9,8,2,2,0,0,0,7,6V5.5a.5.5,0,0,0-1,0V6a2,2,0,0,0,0,4H7a1,1,0,0,1,0,2Z"/></svg>