<svg xmlns="http://www.w3.org/2000/svg" data-name="Layer 1" viewBox="0 0 32 32"><path fill="#fff" d="M24.9,18.536,18.536,24.9A30.644,30.644,0,0,1,4.393,10.757,28.5,28.5,0,0,1,1.919,1.919a28.5,28.5,0,0,1,8.839,2.475A30.644,30.644,0,0,1,24.9,18.536Z"/><path fill="#ed4669" d="M17.4 8.636l4.893-.51a4 4 0 0 1 3.243 1.15l3.6 3.6-6.788 1.386M8.636 17.4L8.126 22.3a4 4 0 0 0 1.15 3.243l3.6 3.6 1.386-6.788"/><circle cx="7.929" cy="7.929" r="1.5" fill="#d9d9db" transform="rotate(-45 7.93 7.929)"/><path d="M23.485,22.778a.5.5,0,0,0-.707.707l3.368,3.368a.5.5,0,0,0,.707-.707Zm7.071,2.828-4.243-4.242a.5.5,0,0,0-.707.707l4.243,4.242a.5.5,0,0,0,.707-.707ZM6.515,6.515a2,2,0,1,0,2.828,0A2,2,0,0,0,6.515,6.515ZM8.636,8.636a1,1,0,1,1,0-1.414A1,1,0,0,1,8.636,8.636Zm16.711,9.677a33.6,33.6,0,0,0-2.166-3.706l6.061-1.237a.5.5,0,0,0,.254-.844l-3.6-3.6a4.459,4.459,0,0,0-3.648-1.294l-4.794.5A28.48,28.48,0,0,0,10.969,3.94,28.958,28.958,0,0,0,1.976,1.422a.5.5,0,0,0-.554.554A28.958,28.958,0,0,0,3.94,10.969a28.48,28.48,0,0,0,4.188,6.482l-.5,4.794a4.483,4.483,0,0,0,1.294,3.648l3.6,3.6a.5.5,0,0,0,.354.146.483.483,0,0,0,.144-.021.5.5,0,0,0,.347-.379l1.237-6.061a33.608,33.608,0,0,0,3.706,2.166.5.5,0,0,0,.576-.094l6.364-6.364A.5.5,0,0,0,25.347,18.313Zm-3-9.689A3.489,3.489,0,0,1,25.187,9.63l2.945,2.945-5.573,1.137a32.045,32.045,0,0,0-4.1-4.683ZM12.575,28.132,9.63,25.187a3.491,3.491,0,0,1-1.007-2.838l.406-3.894a32.045,32.045,0,0,0,4.683,4.1Zm5.862-3.842A30.164,30.164,0,0,1,4.847,10.547,27.9,27.9,0,0,1,2.494,2.494a27.9,27.9,0,0,1,8.053,2.353A30.164,30.164,0,0,1,24.29,18.438Zm3.634,1.316a.5.5,0,0,0-.707.707l4.242,4.243a.5.5,0,0,0,.707-.707ZM17.828,14.293a2,2,0,0,0-2.828,0L14.293,15a1,1,0,0,1-1.414-1.414l.707-.707a1,1,0,0,1,1.414,0,.5.5,0,0,0,.707-.707,2,2,0,0,0-2.828,0l-.354-.354a.5.5,0,0,0-.707.707l.354.354A2,2,0,0,0,15,15.707L15.707,15a1,1,0,0,1,1.414,1.414l-.707.707a1,1,0,0,1-1.414,0,.5.5,0,0,0-.707.707,2,2,0,0,0,2.828,0l.354.354a.5.5,0,0,0,.707-.707l-.354-.354A2,2,0,0,0,17.828,14.293Z"/></svg>