<svg xmlns="http://www.w3.org/2000/svg" data-name="Layer 1" viewBox="0 0 32 32"><rect width="25" height="19" x="3.5" y="12.5" fill="#55bb8c" rx="2" ry="2"/><path fill="#fedc55" d="M16,28.5A6.5,6.5,0,1,1,22.5,22,6.508,6.508,0,0,1,16,28.5Z"/><path d="M15.5,19.5h1a1,1,0,0,1,1,1,.5.5,0,0,0,1,0,2,2,0,0,0-2-2V18a.5.5,0,0,0-1,0v.5a2,2,0,0,0,0,4h1a1,1,0,0,1,0,2h-1a1,1,0,0,1-1-1,.5.5,0,0,0-1,0,2,2,0,0,0,2,2V26a.5.5,0,0,0,1,0v-.5a2,2,0,0,0,0-4h-1a1,1,0,0,1,0-2ZM5.5,29a.5.5,0,1,0,.5.5A.5.5,0,0,0,5.5,29Zm0-15a.5.5,0,1,0,.5.5A.5.5,0,0,0,5.5,14Zm21,0a.5.5,0,1,0,.5.5A.5.5,0,0,0,26.5,14ZM16,15.5A6.5,6.5,0,1,0,22.5,22,6.508,6.508,0,0,0,16,15.5Zm0,12A5.5,5.5,0,1,1,21.5,22,5.507,5.507,0,0,1,16,27.5ZM26.5,12H24V8A8,8,0,0,0,8,8v4H5.5A2.5,2.5,0,0,0,3,14.5v15A2.5,2.5,0,0,0,5.5,32h21A2.5,2.5,0,0,0,29,29.5v-15A2.5,2.5,0,0,0,26.5,12ZM9,8A7,7,0,0,1,23,8v4H9ZM28,29.5A1.5,1.5,0,0,1,26.5,31H5.5A1.5,1.5,0,0,1,4,29.5v-15A1.5,1.5,0,0,1,5.5,13h21A1.5,1.5,0,0,1,28,14.5ZM26.5,29a.5.5,0,1,0,.5.5A.5.5,0,0,0,26.5,29Z"/></svg>