<svg xmlns="http://www.w3.org/2000/svg" data-name="Layer 1" viewBox="0 0 32 32"><path fill="#f8a839" d="M31.5,13.5v16a2.006,2.006,0,0,1-2,2H2.5a2.006,2.006,0,0,1-2-2v-16a1.944,1.944,0,0,1,.55-1.37A1.97,1.97,0,0,1,2.5,11.5h27a1.987,1.987,0,0,1,1.42.6l.03.03A1.944,1.944,0,0,1,31.5,13.5Z"/><path fill="#f8a839" d="M21.5,8.5v3h-2v-3h-7v3h-2v-3a2.006,2.006,0,0,1,2-2h7A2.006,2.006,0,0,1,21.5,8.5Z"/><path fill="#e07633" d="M30.967 12.1C28.983 15.989 23.032 18.813 16 18.813c-7.016 0-12.954-2.81-14.953-6.684zM31.5 26.65V29.5a2.006 2.006 0 0 1-2 2H26.64a3.5 3.5 0 0 1-.27-1.38 3.743 3.743 0 0 1 3.75-3.74A3.573 3.573 0 0 1 31.5 26.65zM5.63 30.12a3.538 3.538 0 0 1-.27 1.38H2.5a2.006 2.006 0 0 1-2-2V26.65a3.573 3.573 0 0 1 1.38-.27A3.743 3.743 0 0 1 5.63 30.12z"/><circle cx="16.5" cy="21.5" r="6" fill="#fedc55"/><path d="M31.442,11.945a.485.485,0,0,0-.252-.285c-.006,0-.012,0-.018-.005A2.481,2.481,0,0,0,29.5,11H22V8.5A2.5,2.5,0,0,0,19.5,6h-7A2.5,2.5,0,0,0,10,8.5V11H2.5a2.487,2.487,0,0,0-1.808.783.491.491,0,0,0-.048.058A2.481,2.481,0,0,0,0,13.5v16A2.5,2.5,0,0,0,2.5,32h27A2.5,2.5,0,0,0,32,29.5v-16A2.475,2.475,0,0,0,31.442,11.945ZM11,8.5A1.5,1.5,0,0,1,12.5,7h7A1.5,1.5,0,0,1,21,8.5V11H20V8.5a.5.5,0,0,0-.5-.5h-7a.5.5,0,0,0-.5.5V11H11ZM19,9v2H13V9ZM2.5,12h27a1.486,1.486,0,0,1,.8.234c-1.46,2.483-4.64,4.434-8.586,5.4a6.48,6.48,0,0,0-10.56.19c-4.326-.882-7.884-2.931-9.449-5.585A1.487,1.487,0,0,1,2.5,12ZM22,21.5a5.5,5.5,0,0,1-11,0,5.437,5.437,0,0,1,.64-2.57h.01a4.474,4.474,0,0,1,.6-.91,5.477,5.477,0,0,1,8.37-.15,4.334,4.334,0,0,1,.64.9A5.364,5.364,0,0,1,22,21.5ZM4.991,31H2.5A1.5,1.5,0,0,1,1,29.5V27.018a3.1,3.1,0,0,1,.88-.139,3.249,3.249,0,0,1,3.25,3.24A3.089,3.089,0,0,1,4.991,31ZM31,29.5A1.5,1.5,0,0,1,29.5,31H27.007a3.065,3.065,0,0,1-.137-.88,3.249,3.249,0,0,1,3.25-3.24,3.1,3.1,0,0,1,.88.139Zm0-3.521a4.168,4.168,0,0,0-.88-.1,4.25,4.25,0,0,0-4.25,4.24,4.2,4.2,0,0,0,.1.88H6.031a4.166,4.166,0,0,0,.1-.88,4.25,4.25,0,0,0-4.25-4.24,4.168,4.168,0,0,0-.88.1V13.5a1.481,1.481,0,0,1,.061-.4c1.773,2.681,5.269,4.715,9.559,5.641A6.381,6.381,0,0,0,10,21.5a6.5,6.5,0,1,0,12.28-2.97c3.884-1,7.019-2.934,8.66-5.427a1.481,1.481,0,0,1,.06.4ZM16,19h1a1,1,0,0,1,1,1,.5.5,0,0,0,1,0,2,2,0,0,0-2-2v-.5a.5.5,0,0,0-1,0V18a2,2,0,0,0,0,4h1a1,1,0,0,1,0,2H16a1,1,0,0,1-1-1,.5.5,0,0,0-1,0,2,2,0,0,0,2,2v.5a.5.5,0,0,0,1,0V25a2,2,0,0,0,0-4H16a1,1,0,0,1,0-2Z"/></svg>