<svg xmlns="http://www.w3.org/2000/svg" data-name="Layer 1" viewBox="0 0 32 32"><path fill="#d9d9db" d="M31.5,18V14a1,1,0,0,0-1-1h-.576a1.009,1.009,0,0,1-.963-.747,13.393,13.393,0,0,0-1.149-2.766,1.009,1.009,0,0,1,.153-1.21l.409-.409a1,1,0,0,0,0-1.414L25.546,3.626a1,1,0,0,0-1.414,0l-.409.409a1.009,1.009,0,0,1-1.21.153,13.393,13.393,0,0,0-2.766-1.149A1.009,1.009,0,0,1,19,2.076V1.5a1,1,0,0,0-1-1H14a1,1,0,0,0-1,1v.576a1.009,1.009,0,0,1-.747.963A13.393,13.393,0,0,0,9.487,4.188a1.009,1.009,0,0,1-1.21-.153l-.409-.409a1,1,0,0,0-1.414,0L3.626,6.454a1,1,0,0,0,0,1.414l.409.409a1.009,1.009,0,0,1,.153,1.21,13.393,13.393,0,0,0-1.149,2.766A1.009,1.009,0,0,1,2.076,13H1.5a1,1,0,0,0-1,1v4a1,1,0,0,0,1,1h.576a1.009,1.009,0,0,1,.963.747,13.393,13.393,0,0,0,1.149,2.766,1.009,1.009,0,0,1-.153,1.21l-.409.409a1,1,0,0,0,0,1.414l2.828,2.828a1,1,0,0,0,1.414,0l.409-.409a1.009,1.009,0,0,1,1.21-.153,13.393,13.393,0,0,0,2.766,1.149,1.009,1.009,0,0,1,.747.963V30.5a1,1,0,0,0,1,1h4a1,1,0,0,0,1-1v-.576a1.009,1.009,0,0,1,.747-.963,13.393,13.393,0,0,0,2.766-1.149,1.009,1.009,0,0,1,1.21.153l.409.409a1,1,0,0,0,1.414,0l2.828-2.828a1,1,0,0,0,0-1.414l-.409-.409a1.009,1.009,0,0,1-.153-1.21,13.393,13.393,0,0,0,1.149-2.766A1.009,1.009,0,0,1,29.924,19H30.5A1,1,0,0,0,31.5,18Z"/><circle cx="16" cy="16" r="9.437" fill="#fedc55"/><path d="M15.213,11.781h1.573a1.861,1.861,0,0,1,1.859,1.859.5.5,0,0,0,1,0,2.863,2.863,0,0,0-2.859-2.859H16.5V9.708a.5.5,0,1,0-1,0v1.073h-.287a2.859,2.859,0,0,0,0,5.719h1.573a1.859,1.859,0,0,1,0,3.719H15.213a1.861,1.861,0,0,1-1.859-1.859.5.5,0,0,0-1,0,2.863,2.863,0,0,0,2.859,2.859H15.5v1.073a.5.5,0,1,0,1,0V21.219h.287a2.859,2.859,0,0,0,0-5.719H15.213a1.859,1.859,0,0,1,0-3.719ZM30.5,12.5h-.576a.51.51,0,0,1-.482-.385,13.913,13.913,0,0,0-1.192-2.87.511.511,0,0,1,.069-.614l.409-.409a1.5,1.5,0,0,0,0-2.121L25.9,3.272a1.5,1.5,0,0,0-2.121,0l-.409.409a.514.514,0,0,1-.614.069,13.913,13.913,0,0,0-2.87-1.192.51.51,0,0,1-.385-.482V1.5A1.5,1.5,0,0,0,18,0H14a1.5,1.5,0,0,0-1.5,1.5v.576a.51.51,0,0,1-.385.482A13.913,13.913,0,0,0,9.245,3.75a.513.513,0,0,1-.614-.069l-.409-.409a1.5,1.5,0,0,0-2.121,0L3.272,6.1a1.5,1.5,0,0,0,0,2.121l.409.409a.511.511,0,0,1,.069.614,13.913,13.913,0,0,0-1.192,2.87.51.51,0,0,1-.482.385H1.5A1.5,1.5,0,0,0,0,14v4a1.5,1.5,0,0,0,1.5,1.5h.576a.51.51,0,0,1,.482.386A13.938,13.938,0,0,0,3.75,22.755a.511.511,0,0,1-.069.614l-.409.409a1.5,1.5,0,0,0,0,2.121L6.1,28.728a1.5,1.5,0,0,0,2.121,0l.409-.409a.508.508,0,0,1,.614-.069,13.913,13.913,0,0,0,2.87,1.192.51.51,0,0,1,.385.482V30.5A1.5,1.5,0,0,0,14,32h4a1.5,1.5,0,0,0,1.5-1.5v-.576a.51.51,0,0,1,.385-.482,13.913,13.913,0,0,0,2.87-1.192.509.509,0,0,1,.614.069l.409.409a1.5,1.5,0,0,0,2.121,0L28.728,25.9a1.5,1.5,0,0,0,0-2.121l-.409-.409a.511.511,0,0,1-.069-.614,13.931,13.931,0,0,0,1.192-2.87.51.51,0,0,1,.482-.385H30.5A1.5,1.5,0,0,0,32,18V14A1.5,1.5,0,0,0,30.5,12.5ZM31,18a.5.5,0,0,1-.5.5h-.576a1.5,1.5,0,0,0-1.443,1.107,12.912,12.912,0,0,1-1.106,2.663,1.5,1.5,0,0,0,.237,1.806l.409.409a.5.5,0,0,1,0,.707l-2.829,2.829a.513.513,0,0,1-.707,0l-.409-.409a1.5,1.5,0,0,0-1.806-.237,12.89,12.89,0,0,1-2.663,1.106A1.5,1.5,0,0,0,18.5,29.924V30.5a.5.5,0,0,1-.5.5H14a.5.5,0,0,1-.5-.5v-.576a1.5,1.5,0,0,0-1.108-1.443,12.89,12.89,0,0,1-2.663-1.106,1.559,1.559,0,0,0-.756-.2,1.476,1.476,0,0,0-1.049.435l-.409.409a.513.513,0,0,1-.707,0L3.979,25.192a.5.5,0,0,1,0-.707l.409-.409a1.5,1.5,0,0,0,.237-1.806,12.919,12.919,0,0,1-1.106-2.663A1.5,1.5,0,0,0,2.076,18.5H1.5A.5.5,0,0,1,1,18V14a.5.5,0,0,1,.5-.5h.576a1.5,1.5,0,0,0,1.443-1.108A12.89,12.89,0,0,1,4.625,9.729a1.5,1.5,0,0,0-.237-1.806l-.409-.409a.5.5,0,0,1,0-.707L6.808,3.979a.513.513,0,0,1,.707,0l.409.409a1.5,1.5,0,0,0,1.806.237,12.89,12.89,0,0,1,2.663-1.106A1.5,1.5,0,0,0,13.5,2.076V1.5A.5.5,0,0,1,14,1h4a.5.5,0,0,1,.5.5v.576a1.5,1.5,0,0,0,1.108,1.443,12.89,12.89,0,0,1,2.663,1.106,1.5,1.5,0,0,0,1.806-.237l.409-.409a.513.513,0,0,1,.707,0l2.829,2.829a.5.5,0,0,1,0,.707l-.409.409a1.5,1.5,0,0,0-.237,1.806,12.89,12.89,0,0,1,1.106,2.663A1.5,1.5,0,0,0,29.924,13.5H30.5a.5.5,0,0,1,.5.5ZM16,6.063A9.938,9.938,0,1,0,25.938,16,9.949,9.949,0,0,0,16,6.063Zm0,18.875A8.938,8.938,0,1,1,24.938,16,8.948,8.948,0,0,1,16,24.938Z"/></svg>