<svg xmlns="http://www.w3.org/2000/svg" data-name="Layer 1" viewBox="0 0 32 32"><circle cx="25.5" cy="6.5" r="6" fill="#fedc55"/><circle cx="25.5" cy="25.5" r="6" fill="#fedc55"/><circle cx="9" cy="16" r="8.5" fill="#fedc55"/><path d="M26,9H25a1,1,0,0,1-1-1,.5.5,0,0,0-1,0,2,2,0,0,0,2,2v.5a.5.5,0,0,0,1,0V10a2,2,0,0,0,0-4H25a1,1,0,0,1,0-2h1a1,1,0,0,1,1,1,.5.5,0,0,0,1,0,2,2,0,0,0-2-2V2.5a.5.5,0,0,0-1,0V3a2,2,0,0,0,0,4h1a1,1,0,0,1,0,2ZM8.292,12.25H9.708a1.627,1.627,0,0,1,1.625,1.625.5.5,0,0,0,1,0A2.628,2.628,0,0,0,9.708,11.25H9.5v-.917a.5.5,0,0,0-1,0v.917H8.292a2.625,2.625,0,1,0,0,5.25H9.708a1.625,1.625,0,0,1,0,3.25H8.292a1.627,1.627,0,0,1-1.625-1.625.5.5,0,0,0-1,0A2.628,2.628,0,0,0,8.292,20.75H8.5v.917a.5.5,0,0,0,1,0V20.75h.208a2.625,2.625,0,0,0,0-5.25H8.292a1.625,1.625,0,0,1,0-3.25ZM25,23h1a1,1,0,0,1,1,1,.5.5,0,0,0,1,0,2,2,0,0,0-2-2v-.5a.5.5,0,0,0-1,0V22a2,2,0,0,0,0,4h1a1,1,0,0,1,0,2H25a1,1,0,0,1-1-1,.5.5,0,0,0-1,0,2,2,0,0,0,2,2v.5a.5.5,0,0,0,1,0V29a2,2,0,0,0,0-4H25a1,1,0,0,1,0-2Zm.5-4a6.5,6.5,0,0,0-5.9,3.788L16.588,20.82a8.929,8.929,0,0,0,.207-9.3L19.849,9.7a6.606,6.606,0,1,0-.425-.911l-3.179,1.894a9,9,0,1,0-.238,10.952l3.239,2.117A6.5,6.5,0,1,0,25.5,19Zm0-18A5.5,5.5,0,1,1,20,6.5,5.507,5.507,0,0,1,25.5,1ZM15.477,20.677l-.009.009,0,.006a7.995,7.995,0,1,1,.2-9.108c0,.007,0,.015.008.023s.01.008.014.014a7.95,7.95,0,0,1-.21,9.057ZM25.5,31A5.5,5.5,0,1,1,31,25.5,5.507,5.507,0,0,1,25.5,31Z"/></svg>