<svg xmlns="http://www.w3.org/2000/svg" data-name="Layer 1" viewBox="0 0 32 32"><path fill="#55bb8c" d="M16 8a.5.5 0 0 1-.5-.5v-3a.5.5 0 0 1 1 0v3A.5.5 0 0 1 16 8zM16 28a.5.5 0 0 1-.5-.5v-3a.5.5 0 0 1 1 0v3A.5.5 0 0 1 16 28zM27.5 16.5H22a.5.5 0 0 1 0-1h5.5a.5.5 0 0 1 0 1zM10 16.5H4.5a.5.5 0 0 1 0-1H10a.5.5 0 0 1 0 1zM20.242 12.257a.5.5 0 0 1-.354-.854l3.89-3.889a.5.5 0 0 1 .707.707L20.6 12.111A.5.5 0 0 1 20.242 12.257zM7.868 24.632a.5.5 0 0 1-.354-.854l3.89-3.889a.5.5 0 0 1 .707.707l-3.89 3.889A.5.5 0 0 1 7.868 24.632zM24.132 24.632a.5.5 0 0 1-.354-.146L19.889 20.6a.5.5 0 0 1 .707-.707l3.89 3.889a.5.5 0 0 1-.354.854zM11.758 12.257a.5.5 0 0 1-.354-.146L7.515 8.222a.5.5 0 0 1 .707-.707l3.89 3.889a.5.5 0 0 1-.354.854z"/><circle cx="16" cy="16" r="8.5" fill="#fedc55"/><path fill="#55bb8c" d="M16.708,20.75H15.292a2.628,2.628,0,0,1-2.625-2.625.5.5,0,0,1,1,0,1.627,1.627,0,0,0,1.625,1.625h1.416a1.625,1.625,0,0,0,0-3.25H15.292a2.625,2.625,0,0,1,0-5.25h1.416a2.628,2.628,0,0,1,2.625,2.625.5.5,0,0,1-1,0,1.627,1.627,0,0,0-1.625-1.625H15.292a1.625,1.625,0,0,0,0,3.25h1.416a2.625,2.625,0,0,1,0,5.25Z"/><path fill="#55bb8c" d="M16 12.25a.5.5 0 0 1-.5-.5V10.333a.5.5 0 0 1 1 0V11.75A.5.5 0 0 1 16 12.25zM16 22.167a.5.5 0 0 1-.5-.5V20.25a.5.5 0 0 1 1 0v1.417A.5.5 0 0 1 16 22.167z"/><circle cx="16" cy="2.5" r="2" fill="#fedc55"/><circle cx="16" cy="29.5" r="2" fill="#fedc55"/><circle cx="29.5" cy="16" r="2" fill="#fedc55"/><circle cx="2.5" cy="16" r="2" fill="#fedc55"/><circle cx="25.546" cy="6.454" r="2" fill="#f9be33" transform="rotate(-45 25.546 6.453)"/><circle cx="6.454" cy="25.546" r="2" fill="#f9be33" transform="rotate(-45 6.454 25.546)"/><circle cx="25.546" cy="25.546" r="2" fill="#f9be33" transform="rotate(-45 25.546 25.545)"/><circle cx="6.454" cy="6.454" r="2" fill="#f9be33" transform="rotate(-45 6.454 6.454)"/><path d="M15.292,12.25h1.416a1.627,1.627,0,0,1,1.625,1.625.5.5,0,0,0,1,0,2.628,2.628,0,0,0-2.625-2.625H16.5v-.917a.5.5,0,0,0-1,0v.917h-.208a2.625,2.625,0,0,0,0,5.25h1.416a1.625,1.625,0,0,1,0,3.25H15.292a1.627,1.627,0,0,1-1.625-1.625.5.5,0,0,0-1,0,2.628,2.628,0,0,0,2.625,2.625H15.5v.917a.5.5,0,1,0,1,0V20.75h.208a2.625,2.625,0,0,0,0-5.25H15.292a1.625,1.625,0,0,1,0-3.25ZM29.5,13.5a2.5,2.5,0,0,0-2.449,2H24.975A8.95,8.95,0,0,0,22.7,10.009l1.47-1.47a2.5,2.5,0,1,0-.707-.707L21.991,9.3A8.95,8.95,0,0,0,16.5,7.025V4.949a2.5,2.5,0,1,0-1,0V7.025A8.95,8.95,0,0,0,10.009,9.3L8.54,7.833a2.5,2.5,0,1,0-.707.707l1.47,1.47A8.95,8.95,0,0,0,7.025,15.5H4.949a2.5,2.5,0,1,0,0,1H7.025A8.95,8.95,0,0,0,9.3,21.991l-1.47,1.47a2.5,2.5,0,1,0,.707.707l1.47-1.47A8.95,8.95,0,0,0,15.5,24.975v2.076a2.5,2.5,0,1,0,1,0V24.975A8.95,8.95,0,0,0,21.991,22.7l1.47,1.47a2.5,2.5,0,1,0,.707-.707l-1.47-1.47A8.95,8.95,0,0,0,24.975,16.5h2.076a2.5,2.5,0,1,0,2.449-3ZM24.485,5.394a1.5,1.5,0,1,1-.439,1.061A1.494,1.494,0,0,1,24.485,5.394ZM7.515,7.515a1.5,1.5,0,1,1,.439-1.061A1.5,1.5,0,0,1,7.515,7.515ZM2.5,17.5A1.5,1.5,0,1,1,4,16,1.5,1.5,0,0,1,2.5,17.5Zm5.015,9.106a1.5,1.5,0,1,1,.439-1.061A1.5,1.5,0,0,1,7.515,26.606Zm16.971-2.121a1.5,1.5,0,1,1-.439,1.061A1.494,1.494,0,0,1,24.485,24.485ZM14.5,2.5A1.5,1.5,0,1,1,16,4,1.5,1.5,0,0,1,14.5,2.5Zm3,27A1.5,1.5,0,1,1,16,28,1.5,1.5,0,0,1,17.5,29.5Zm4.5-13h1.975a7.955,7.955,0,0,1-1.984,4.784l-1.4-1.395a.5.5,0,0,0-.707.707l1.395,1.395a7.953,7.953,0,0,1-10.567,0L12.111,20.6a.5.5,0,0,0-.707-.707l-1.4,1.395A7.955,7.955,0,0,1,8.025,16.5H10a.5.5,0,0,0,0-1H8.025a7.955,7.955,0,0,1,1.984-4.784l1.4,1.395a.5.5,0,0,0,.707-.707l-1.395-1.395a7.953,7.953,0,0,1,10.567,0L19.889,11.4a.5.5,0,1,0,.707.707l1.4-1.395A7.955,7.955,0,0,1,23.975,15.5H22a.5.5,0,0,0,0,1Zm7.5,1A1.5,1.5,0,1,1,31,16,1.5,1.5,0,0,1,29.5,17.5Z"/></svg>