<svg xmlns="http://www.w3.org/2000/svg" data-name="Layer 1" viewBox="0 0 32 32"><path fill="#8b8891" d="M16,15a.5.5,0,0,1-.5-.5v-2a.5.5,0,0,1,1,0v2A.5.5,0,0,1,16,15Z"/><path fill="#8b8891" d="M26.5,20a.5.5,0,0,1-.5-.5v-3A1.5,1.5,0,0,0,24.5,15H7.5A1.5,1.5,0,0,0,6,16.5v3a.5.5,0,0,1-1,0v-3A2.5,2.5,0,0,1,7.5,14h17A2.5,2.5,0,0,1,27,16.5v3A.5.5,0,0,1,26.5,20Z"/><path fill="#8b8891" d="M26.5 20a.5.5 0 0 1-.354-.146l-1.414-1.414a.5.5 0 0 1 .707-.707L26.5 18.793l1.061-1.061a.5.5 0 0 1 .707.707l-1.414 1.414A.5.5 0 0 1 26.5 20zM5.5 20a.5.5 0 0 1-.354-.146L3.732 18.439a.5.5 0 0 1 .707-.707L5.5 18.793l1.061-1.061a.5.5 0 0 1 .707.707L5.854 19.854A.5.5 0 0 1 5.5 20z"/><circle cx="5.5" cy="26.5" r="5" fill="#fedc55"/><circle cx="26.5" cy="26.5" r="5" fill="#fedc55"/><circle cx="16" cy="6.5" r="6" fill="#fedc55"/><path fill="#82c8ec" d="M29.19,26.227l-2.331,2.409a.5.5,0,0,1-.719,0L23.81,26.227a.5.5,0,0,1-.019-.675l1.2-1.388a.5.5,0,0,1,.378-.173h2.263a.5.5,0,0,1,.378.173l1.2,1.388A.5.5,0,0,1,29.19,26.227Z"/><rect width="4" height="3.622" x="3.5" y="25.396" fill="#90c871" rx=".5" ry=".5"/><path fill="#90c871" d="M3.039,25.652l2.349-1.594a.2.2,0,0,1,.225,0l2.349,1.594a.2.2,0,0,1-.112.365h-4.7A.2.2,0,0,1,3.039,25.652Z"/><path d="M16.5,10.5V10a2,2,0,0,0,0-4h-1a1,1,0,0,1,0-2h1a1,1,0,0,1,1,1,.5.5,0,0,0,1,0,2,2,0,0,0-2-2V2.5a.5.5,0,0,0-1,0V3a2,2,0,0,0,0,4h1a1,1,0,0,1,0,2h-1a1,1,0,0,1-1-1,.5.5,0,0,0-1,0,2,2,0,0,0,2,2v.5a.5.5,0,0,0,1,0ZM5.146,19.853a.5.5,0,0,0,.708,0l1.413-1.413a.5.5,0,0,0-.707-.707L6,18.293V16.5A1.5,1.5,0,0,1,7.5,15h17A1.5,1.5,0,0,1,26,16.5v1.793l-.561-.561a.5.5,0,0,0-.707.707l1.413,1.413a.5.5,0,0,0,.708,0l1.413-1.413a.5.5,0,0,0-.707-.707L27,18.293V16.5A2.5,2.5,0,0,0,24.5,14h-8V12.975a6.5,6.5,0,1,0-1,0V14h-8A2.5,2.5,0,0,0,5,16.5v1.793l-.561-.561a.5.5,0,0,0-.707.707ZM10.5,6.5A5.5,5.5,0,1,1,16,12,5.506,5.506,0,0,1,10.5,6.5ZM26.5,21A5.5,5.5,0,1,0,32,26.5,5.507,5.507,0,0,0,26.5,21Zm0,10A4.5,4.5,0,1,1,31,26.5,4.5,4.5,0,0,1,26.5,31Zm3.386-5.429-1.647-1.906a.5.5,0,0,0-.378-.173H25.14a.5.5,0,0,0-.378.173l-1.647,1.906a.5.5,0,0,0,.019.675l3.008,3.109a.5.5,0,0,0,.719,0l3.008-3.109A.5.5,0,0,0,29.886,25.571ZM26.5,28.289,24.169,25.88l1.2-1.388h2.264l1.2,1.388ZM5.219,23.568l-3,2.035a.5.5,0,0,0,.562.828L3,26.283v2.735a.5.5,0,0,0,.5.5h4a.5.5,0,0,0,.5-.5V26.283l.219.149a.5.5,0,0,0,.562-.828l-3-2.035A.5.5,0,0,0,5.219,23.568ZM7,28.518H4V25.6l1.5-1.018L7,25.6ZM5.5,21A5.5,5.5,0,1,0,11,26.5,5.507,5.507,0,0,0,5.5,21Zm0,10A4.5,4.5,0,1,1,10,26.5,4.5,4.5,0,0,1,5.5,31Z"/></svg>