<svg xmlns="http://www.w3.org/2000/svg" data-name="Layer 1" viewBox="0 0 32 32"><path fill="#55bb8c" d="M26.911,23.5H28.5a3,3,0,0,1,3,3v4a1,1,0,0,1-1,1h-10a1,1,0,0,1-1-1v-4a3,3,0,0,1,3-3h4.411Z"/><path fill="#82c8ec" d="M7.911,23.5H9.5a3,3,0,0,1,3,3v4a1,1,0,0,1-1,1H1.5a1,1,0,0,1-1-1v-4a3,3,0,0,1,3-3H7.911Z"/><path fill="#fcc37a" d="M5 20.979V23a1.5 1.5 0 0 0 3 0V20.979zM27 20.979V23a1.5 1.5 0 0 1-1.5 1.5h0A1.5 1.5 0 0 1 24 23V20.979z"/><circle cx="16" cy="6.5" r="6" fill="#fedc55"/><path fill="#fddaaa" d="M9.562 17.956v1.075a3.471 3.471 0 0 1-2.109 3.193h0a2.27 2.27 0 0 1-1.782 0h0a3.471 3.471 0 0 1-2.109-3.193V17.956A2.456 2.456 0 0 1 6.018 15.5H7.107A2.456 2.456 0 0 1 9.562 17.956zM28.562 17.956v1.075a3.471 3.471 0 0 1-2.109 3.193h0a2.27 2.27 0 0 1-1.782 0h0a3.471 3.471 0 0 1-2.109-3.193V17.956A2.456 2.456 0 0 1 25.018 15.5h1.089A2.456 2.456 0 0 1 28.562 17.956z"/><path d="M15.5,4h1a1,1,0,0,1,1,1,.5.5,0,0,0,1,0,2,2,0,0,0-2-2V2.5a.5.5,0,0,0-1,0V3a2,2,0,0,0,0,4h1a1,1,0,0,1,0,2h-1a1,1,0,0,1-1-1,.5.5,0,0,0-1,0,2,2,0,0,0,2,2v.5a.5.5,0,0,0,1,0V10a2,2,0,0,0,0-4h-1a1,1,0,0,1,0-2Zm13,19h-1v-.867a3.96,3.96,0,0,0,1.5-3.1V17.956A2.959,2.959,0,0,0,26.044,15H24.956A2.959,2.959,0,0,0,22,17.956v1.075a3.96,3.96,0,0,0,1.5,3.1V23h-1A3.5,3.5,0,0,0,19,26.5v4A1.5,1.5,0,0,0,20.5,32h10A1.5,1.5,0,0,0,32,30.5v-4A3.5,3.5,0,0,0,28.5,23ZM23,19.031V17.956A1.958,1.958,0,0,1,24.956,16h1.089A1.958,1.958,0,0,1,28,17.956v1.075a2.967,2.967,0,0,1-1.805,2.732,1.77,1.77,0,0,1-1.39,0A2.967,2.967,0,0,1,23,19.031Zm3.5,3.68V23a1,1,0,0,1-2,0v-.289a2.668,2.668,0,0,0,2,0ZM31,30.5a.5.5,0,0,1-.5.5H29V28.5a.5.5,0,0,0-1,0V31H23V28.5a.5.5,0,0,0-1,0V31H20.5a.5.5,0,0,1-.5-.5v-4A2.5,2.5,0,0,1,22.5,24h1.278a1.982,1.982,0,0,0,3.443,0H28.5A2.5,2.5,0,0,1,31,26.5ZM22.475,6.995c.009,0,.016.005.025.005h1A1.5,1.5,0,0,1,25,8.5v3.8l-.561-.561a.5.5,0,0,0-.707.707l1.413,1.413a.5.5,0,0,0,.708,0l1.413-1.413a.5.5,0,0,0-.707-.707L26,12.3V8.5A2.5,2.5,0,0,0,23.5,6h-1c-.009,0-.016,0-.025.005A6.493,6.493,0,0,0,9.525,6H8.5A2.5,2.5,0,0,0,6,8.5v3.8l-.561-.561a.5.5,0,0,0-.707.707L6.146,13.86a.5.5,0,0,0,.708,0l1.413-1.413a.5.5,0,0,0-.707-.707L7,12.3V8.5A1.5,1.5,0,0,1,8.5,7H9.525a6.493,6.493,0,0,0,12.95-.005ZM16,12a5.5,5.5,0,1,1,5.5-5.5A5.507,5.507,0,0,1,16,12ZM9.5,23h-1v-.867a3.96,3.96,0,0,0,1.5-3.1V17.956A2.959,2.959,0,0,0,7.044,15H5.956A2.959,2.959,0,0,0,3,17.956v1.075a3.96,3.96,0,0,0,1.5,3.1V23h-1A3.5,3.5,0,0,0,0,26.5v4A1.5,1.5,0,0,0,1.5,32h10A1.5,1.5,0,0,0,13,30.5v-4A3.5,3.5,0,0,0,9.5,23ZM4,19.031V17.956A1.958,1.958,0,0,1,5.956,16H7.044A1.958,1.958,0,0,1,9,17.956v1.075a2.967,2.967,0,0,1-1.805,2.732,1.77,1.77,0,0,1-1.39,0A2.967,2.967,0,0,1,4,19.031Zm3.5,3.68V23a1,1,0,0,1-2,0v-.289a2.668,2.668,0,0,0,2,0ZM12,30.5a.5.5,0,0,1-.5.5H10V28.5a.5.5,0,0,0-1,0V31H4V28.5a.5.5,0,0,0-1,0V31H1.5a.5.5,0,0,1-.5-.5v-4A2.5,2.5,0,0,1,3.5,24H4.778a1.982,1.982,0,0,0,3.443,0H9.5A2.5,2.5,0,0,1,12,26.5Z"/></svg>