<svg xmlns="http://www.w3.org/2000/svg" data-name="Layer 1" viewBox="0 0 32 32"><path fill="#fedc55" d="M21.272.5l-4,14h14a11.936,11.936,0,0,0-2.083-9.583A11.814,11.814,0,0,0,21.272.5Z"/><path fill="#82c8ec" d="M27.5,17A13.5,13.5,0,1,1,5.64,6.43h.01a13.371,13.371,0,0,1,12.08-2.4L13.5,17Z"/><path fill="#ed4669" d="M13.52,17,4.23,26.28A13.425,13.425,0,0,1,5.64,6.43h.01L13.5,17Z"/><path fill="#90c871" d="M17.73,4.03,13.5,17,5.65,6.43a13.371,13.371,0,0,1,12.08-2.4Z"/><path d="M27.5,16.5H14.189L18.208,4.182a.5.5,0,0,0-.337-.636A14,14,0,1,0,28,17,.5.5,0,0,0,27.5,16.5ZM14,4a12.975,12.975,0,0,1,3.093.373L13.325,15.926,6.34,6.52A12.913,12.913,0,0,1,14,4ZM1,17A12.967,12.967,0,0,1,5.553,7.138l7.3,9.823-8.6,8.6A12.932,12.932,0,0,1,1,17ZM14,30a12.95,12.95,0,0,1-9.071-3.706L13.724,17.5H26.991A13.017,13.017,0,0,1,14,30ZM29.585,4.612A12.351,12.351,0,0,0,21.326,0a.5.5,0,0,0-.535.359l-4,14a.5.5,0,0,0,.481.638h14a.5.5,0,0,0,.488-.391A12.493,12.493,0,0,0,29.585,4.612ZM30.861,14H17.935l3.7-12.947a11.294,11.294,0,0,1,7.158,4.169A11.414,11.414,0,0,1,30.861,14ZM24.25,6.013h1a1,1,0,0,1,1,1,.5.5,0,1,0,1,0,2,2,0,0,0-2-2v-.5a.5.5,0,0,0-1,0v.5a2,2,0,0,0,0,4h1a1,1,0,1,1,0,2h-1a1,1,0,0,1-1-1,.5.5,0,0,0-1,0,2,2,0,0,0,2,2v.5a.5.5,0,0,0,1,0v-.5a2,2,0,1,0,0-4h-1a1,1,0,0,1,0-2Z"/></svg>