<svg xmlns="http://www.w3.org/2000/svg" data-name="Layer 1" viewBox="0 0 32 32"><rect width="4" height="6.328" x="16.313" y="15.192" fill="#d9d9db" transform="rotate(-45 18.313 18.356)"/><circle cx="10.119" cy="10.137" r="9.5" fill="#82c8ec" transform="rotate(-45 10.119 10.137)"/><circle cx="10.119" cy="10.137" r="6.5" fill="#fedc55" transform="rotate(-45 10.119 10.137)"/><path fill="#8b8891" d="M23.849,17.312h2.333a2,2,0,0,1,2,2V29.521a3.167,3.167,0,0,1-3.167,3.167h0a3.167,3.167,0,0,1-3.167-3.167V19.312A2,2,0,0,1,23.849,17.312Z" transform="rotate(-45 25.015 25)"/><path d="M9.5,7.5h1a1,1,0,0,1,1,1,.5.5,0,0,0,1,0,2,2,0,0,0-2-2V6a.5.5,0,0,0-1,0v.5a2,2,0,0,0,0,4h1a1,1,0,0,1,0,2h-1a1,1,0,0,1-1-1,.5.5,0,0,0-1,0,2,2,0,0,0,2,2V14a.5.5,0,0,0,1,0v-.5a2,2,0,0,0,0-4h-1a1,1,0,0,1,0-2Zm5.45-2.45A7,7,0,1,0,17,10,6.954,6.954,0,0,0,14.949,5.05Zm-.707,9.192A6,6,0,1,1,16,10,5.961,5.961,0,0,1,14.242,14.243ZM30.686,25.467l-7.218-7.218a2.494,2.494,0,0,0-2.359-.651l-2.384-2.384a.492.492,0,0,0-.143-.1A10,10,0,0,0,2.928,2.929,9.994,9.994,0,0,0,15.089,18.6a.493.493,0,0,0,.1.15L17.6,21.163a2.523,2.523,0,0,0-.052.5,2.482,2.482,0,0,0,.732,1.768L25.5,30.652a3.667,3.667,0,1,0,5.186-5.186ZM10,19A9,9,0,0,1,3.635,3.636,9,9,0,1,1,16.363,16.364,8.942,8.942,0,0,1,10,19Zm8.281.9-.263.263-2.108-2.109a10.1,10.1,0,0,0,1.161-.984,10.1,10.1,0,0,0,.963-1.134l2.105,2.1-1.044,1.045-.812.812Zm11.7,10.044a2.671,2.671,0,0,1-3.771,0l-7.218-7.219a1.5,1.5,0,0,1,0-2.119l.816-.816.836-.836a1.5,1.5,0,0,1,2.122,0l7.218,7.218a2.666,2.666,0,0,1,0,3.771Z"/></svg>