<?xml version="1.0" encoding="UTF-8"?><svg xmlns="http://www.w3.org/2000/svg" xmlns:xlink="http://www.w3.org/1999/xlink" version="1.1" x="0px" y="0px" width="100px" height="100px" viewBox="0 0 100 100" xml:space="preserve"><g id="_x37_7_Essential_Icons"><path id="Bookmark" d="M69 15H31c-1.1 0-2 .9-2 2v66c0 1.8 2.1 2.7 3.4 1.4L50 66.8l17.6 17.6c1 1 3.4.7 3.4-1.4V17c0-1.1-.9-2-2-2zm-2 63.2L51.4 62.6c-.8-.8-2-.8-2.8 0L33 78.2V19h34v59.2z"/></g><g id="Info"><path fill="#00F" d="M664-930V754h-1784V-930H664m8-8h-1800V762H672V-938z" id="BORDER"/></g><metadata><rdf:RDF xmlns:rdf="http://www.w3.org/1999/02/22-rdf-syntax-ns#" xmlns:rdfs="http://www.w3.org/2000/01/rdf-schema#" xmlns:dc="http://purl.org/dc/elements/1.1/"><rdf:Description about="https://iconscout.com/legal#licenses" dc:title="essential,s,bookmark" dc:description="essential,s,bookmark" dc:publisher="Iconscout" dc:date="2017-09-15" dc:format="image/svg+xml" dc:language="en"><dc:creator><rdf:Bag><rdf:li>Bryn Taylor</rdf:li></rdf:Bag></dc:creator></rdf:Description></rdf:RDF></metadata></svg>