<?xml version="1.0" encoding="UTF-8"?><svg xmlns="http://www.w3.org/2000/svg" xmlns:xlink="http://www.w3.org/1999/xlink" version="1.1" x="0px" y="0px" width="100px" height="100px" viewBox="0 0 100 100" xml:space="preserve"><g id="_x37_7_Essential_Icons"><path id="Briefcase" d="M86 28H60v-6c0-1.1-.9-2-2-2H42c-1.1 0-2 .9-2 2v6H14c-1.1 0-2 .9-2 2v48c0 1.1.9 2 2 2h72c1.1 0 2-.9 2-2V30c0-1.1-.9-2-2-2zm-42-4h12v4H44v-4zm40 52H16V56h28v5.9c0 1.1.9 2 2 2h8c1.1 0 2-.9 2-2V56h28v20zM48 59.9v-12h4v12h-4zM84 52H56v-6c0-1.1-.9-2-2-2h-8c-1.1 0-2 .9-2 2v6H16V32h68v20z"/></g><g id="Info"><path fill="#00F" d="M524-930V754h-1784V-930H524m8-8h-1800V762H532V-938z" id="BORDER"/></g><metadata><rdf:RDF xmlns:rdf="http://www.w3.org/1999/02/22-rdf-syntax-ns#" xmlns:rdfs="http://www.w3.org/2000/01/rdf-schema#" xmlns:dc="http://purl.org/dc/elements/1.1/"><rdf:Description about="https://iconscout.com/legal#licenses" dc:title="essential,s,briefcase" dc:description="essential,s,briefcase" dc:publisher="Iconscout" dc:date="2017-09-15" dc:format="image/svg+xml" dc:language="en"><dc:creator><rdf:Bag><rdf:li>Bryn Taylor</rdf:li></rdf:Bag></dc:creator></rdf:Description></rdf:RDF></metadata></svg>