<?xml version="1.0" encoding="UTF-8"?><svg xmlns="http://www.w3.org/2000/svg" xmlns:xlink="http://www.w3.org/1999/xlink" version="1.1" x="0px" y="0px" width="100px" height="100px" viewBox="0 0 100 100" xml:space="preserve"><g id="_x37_7_Essential_Icons"><path id="Browser" d="M88 20H12c-1.1 0-2 .9-2 2v56c0 1.1.9 2 2 2h76c1.1 0 2-.9 2-2V22c0-1.1-.9-2-2-2zm-2 56H14V36h72v40zm0-44H14v-8h72v8zm-56-4c0 1.1-.9 2-2 2H18c-1.1 0-2-.9-2-2s.9-2 2-2h10c1.1 0 2 .9 2 2z"/></g><g id="Info"><path fill="#00F" d="M804-930V754H-980V-930H804m8-8H-988V762H812V-938z" id="BORDER"/></g><metadata><rdf:RDF xmlns:rdf="http://www.w3.org/1999/02/22-rdf-syntax-ns#" xmlns:rdfs="http://www.w3.org/2000/01/rdf-schema#" xmlns:dc="http://purl.org/dc/elements/1.1/"><rdf:Description about="https://iconscout.com/legal#licenses" dc:title="essential,s,browser" dc:description="essential,s,browser" dc:publisher="Iconscout" dc:date="2017-09-15" dc:format="image/svg+xml" dc:language="en"><dc:creator><rdf:Bag><rdf:li>Bryn Taylor</rdf:li></rdf:Bag></dc:creator></rdf:Description></rdf:RDF></metadata></svg>