<?xml version="1.0" encoding="UTF-8"?><svg xmlns="http://www.w3.org/2000/svg" xmlns:xlink="http://www.w3.org/1999/xlink" version="1.1" x="0px" y="0px" width="100px" height="100px" viewBox="0 0 100 100" xml:space="preserve"><g id="_x37_7_Essential_Icons"><path id="Calendar" d="M82 23h-8v-4c0-1.1-.9-2-2-2s-2 .9-2 2v4H30v-4c0-1.1-.9-2-2-2s-2 .9-2 2v4h-8c-4.4 0-8 3.6-8 8v44c0 4.4 3.6 8 8 8h64c4.4 0 8-3.6 8-8V31c0-4.4-3.6-8-8-8zm4 52c0 2.2-1.8 4-4 4H18c-2.2 0-4-1.8-4-4V45h72v30zm0-34H14V31c0-2.2 1.8-4 4-4h8v6c0 1.1.9 2 2 2s2-.9 2-2v-6h40v6c0 1.1.9 2 2 2s2-.9 2-2v-6h8c2.2 0 4 1.8 4 4v10z"/></g><g id="Info"><path fill="#00F" d="M244-790V894h-1784V-790H244m8-8h-1800V902H252V-798z" id="BORDER"/></g><metadata><rdf:RDF xmlns:rdf="http://www.w3.org/1999/02/22-rdf-syntax-ns#" xmlns:rdfs="http://www.w3.org/2000/01/rdf-schema#" xmlns:dc="http://purl.org/dc/elements/1.1/"><rdf:Description about="https://iconscout.com/legal#licenses" dc:title="essential,s,calendar" dc:description="essential,s,calendar" dc:publisher="Iconscout" dc:date="2017-09-15" dc:format="image/svg+xml" dc:language="en"><dc:creator><rdf:Bag><rdf:li>Bryn Taylor</rdf:li></rdf:Bag></dc:creator></rdf:Description></rdf:RDF></metadata></svg>