<?xml version="1.0" encoding="UTF-8"?><svg xmlns="http://www.w3.org/2000/svg" xmlns:xlink="http://www.w3.org/1999/xlink" version="1.1" x="0px" y="0px" width="100px" height="100px" viewBox="0 0 100 100" xml:space="preserve"><g id="_x37_7_Essential_Icons"><path id="Cancel" d="M50 12c-21 0-38 17-38 38s17 38 38 38 38-17 38-38-17-38-38-38zm0 72c-18.8 0-34-15.2-34-34s15.2-34 34-34 34 15.2 34 34-15.2 34-34 34zm2.8-34l12.6-12.6c.8-.8.8-2 0-2.8-.8-.8-2-.8-2.8 0L50 47.2 37.4 34.6c-.8-.8-2-.8-2.8 0-.8.8-.8 2 0 2.8L47.2 50 34.6 62.6c-.8.8-.8 2 0 2.8.8.8 2 .8 2.8 0L50 52.8l12.6 12.6c.8.8 2 .8 2.8 0 .8-.8.8-2 0-2.8L52.8 50z"/></g><g id="Info"><path fill="#00F" d="M244-1070V614h-1784v-1684H244m8-8h-1800V622H252v-1700z" id="BORDER"/></g><metadata><rdf:RDF xmlns:rdf="http://www.w3.org/1999/02/22-rdf-syntax-ns#" xmlns:rdfs="http://www.w3.org/2000/01/rdf-schema#" xmlns:dc="http://purl.org/dc/elements/1.1/"><rdf:Description about="https://iconscout.com/legal#licenses" dc:title="essential,s,cancel" dc:description="essential,s,cancel" dc:publisher="Iconscout" dc:date="2017-09-15" dc:format="image/svg+xml" dc:language="en"><dc:creator><rdf:Bag><rdf:li>Bryn Taylor</rdf:li></rdf:Bag></dc:creator></rdf:Description></rdf:RDF></metadata></svg>