<?xml version="1.0" encoding="UTF-8"?><svg xmlns="http://www.w3.org/2000/svg" xmlns:xlink="http://www.w3.org/1999/xlink" version="1.1" x="0px" y="0px" width="100px" height="100px" viewBox="0 0 100 100" xml:space="preserve"><g id="_x37_7_Essential_Icons"><path id="Clock" d="M50 12c-21 0-38 17-38 38s17 38 38 38 38-17 38-38-17-38-38-38zm2 71.9v-2c0-1.1-.9-2-2-2s-2 .9-2 2v2c-17.2-1-30.9-14.8-31.9-31.9h2c1.1 0 2-.9 2-2s-.9-2-2-2h-2c1-17.2 14.8-30.9 31.9-31.9v2c0 1.1.9 2 2 2s2-.9 2-2v-2c17.2 1 30.9 14.8 31.9 31.9h-2c-1.1 0-2 .9-2 2s.9 2 2 2h2c-1 17.2-14.7 30.9-31.9 31.9zM62 62c-.8.8-2 .8-2.8 0L48.6 51.4c.1.1-.6-.4-.6-1.4V26c0-1.1.9-2 2-2s2 .9 2 2v23.2l10 10c.8.8.8 2 0 2.8z"/></g><g id="Info"><path fill="#00F" d="M1504-1070V614H-280v-1684h1784m8-8H-288V622h1800v-1700z" id="BORDER"/></g><metadata><rdf:RDF xmlns:rdf="http://www.w3.org/1999/02/22-rdf-syntax-ns#" xmlns:rdfs="http://www.w3.org/2000/01/rdf-schema#" xmlns:dc="http://purl.org/dc/elements/1.1/"><rdf:Description about="https://iconscout.com/legal#licenses" dc:title="essential,s,clock" dc:description="essential,s,clock" dc:publisher="Iconscout" dc:date="2017-09-15" dc:format="image/svg+xml" dc:language="en"><dc:creator><rdf:Bag><rdf:li>Bryn Taylor</rdf:li></rdf:Bag></dc:creator></rdf:Description></rdf:RDF></metadata></svg>