<?xml version="1.0" encoding="UTF-8"?><svg xmlns="http://www.w3.org/2000/svg" xmlns:xlink="http://www.w3.org/1999/xlink" version="1.1" x="0px" y="0px" width="100px" height="100px" viewBox="0 0 100 100" xml:space="preserve"><g id="_x37_7_Essential_Icons"><path id="Message" d="M86 17H14c-1.1 0-2 .9-2 2v48c0 1.1.9 2 2 2h16v12c0 1.8 2.1 2.7 3.4 1.4L47 69h39c1.1 0 2-.9 2-2V19c0-1.1-.9-2-2-2zm-2 48H46.2c-.5 0-1 .2-1.4.6L34 76.2V67c0-1.1-.9-2-2-2H16V21h68v44z"/></g><g id="Info"><path fill="#00F" d="M1364-510v1684H-420V-510h1784m8-8H-428v1700h1800V-518z" id="BORDER"/></g><metadata><rdf:RDF xmlns:rdf="http://www.w3.org/1999/02/22-rdf-syntax-ns#" xmlns:rdfs="http://www.w3.org/2000/01/rdf-schema#" xmlns:dc="http://purl.org/dc/elements/1.1/"><rdf:Description about="https://iconscout.com/legal#licenses" dc:title="essential,s,comment" dc:description="essential,s,comment" dc:publisher="Iconscout" dc:date="2017-09-15" dc:format="image/svg+xml" dc:language="en"><dc:creator><rdf:Bag><rdf:li>Bryn Taylor</rdf:li></rdf:Bag></dc:creator></rdf:Description></rdf:RDF></metadata></svg>