<?xml version="1.0" encoding="UTF-8"?><svg xmlns="http://www.w3.org/2000/svg" xmlns:xlink="http://www.w3.org/1999/xlink" version="1.1" x="0px" y="0px" width="100px" height="100px" viewBox="0 0 100 100" xml:space="preserve"><g id="_x37_7_Essential_Icons"><path id="Controls" d="M31 36.3V34c0-1.1-.9-2-2-2s-2 .9-2 2v2.3c-2.9.9-5 3.5-5 6.7s2.1 5.8 5 6.7V66c0 1.1.9 2 2 2s2-.9 2-2V49.7c2.9-.9 5-3.5 5-6.7s-2.1-5.8-5-6.7zM29 46c-1.7 0-3-1.4-3-3 0-1.7 1.3-3 3-3s3 1.3 3 3c0 1.6-1.3 3-3 3zm23 4.3V34c0-1.1-.9-2-2-2s-2 .9-2 2v16.3c-2.9.9-5 3.5-5 6.7s2.1 5.8 5 6.7V66c0 1.1.9 2 2 2s2-.9 2-2v-2.3c2.9-.9 5-3.5 5-6.7s-2.1-5.8-5-6.7zM50 60c-1.7 0-3-1.4-3-3 0-1.7 1.3-3 3-3s3 1.3 3 3c0 1.6-1.3 3-3 3zm23-17.7V34c0-1.1-.9-2-2-2s-2 .9-2 2v8.3c-2.9.9-5 3.5-5 6.7s2.1 5.8 5 6.7V66c0 1.1.9 2 2 2s2-.9 2-2V55.7c2.9-.9 5-3.5 5-6.7s-2.1-5.8-5-6.7zM71 52c-1.7 0-3-1.4-3-3 0-1.7 1.3-3 3-3s3 1.3 3 3c0 1.6-1.3 3-3 3zm17-32H12c-1.1 0-2 .9-2 2v56c0 1.1.9 2 2 2h76c1.1 0 2-.9 2-2V22c0-1.1-.9-2-2-2zm-2 56H14V24h72v52z"/></g><g id="Info"><path fill="#00F" d="M1504-790V894H-280V-790h1784m8-8H-288V902h1800V-798z" id="BORDER"/></g><metadata><rdf:RDF xmlns:rdf="http://www.w3.org/1999/02/22-rdf-syntax-ns#" xmlns:rdfs="http://www.w3.org/2000/01/rdf-schema#" xmlns:dc="http://purl.org/dc/elements/1.1/"><rdf:Description about="https://iconscout.com/legal#licenses" dc:title="essential,s,controls" dc:description="essential,s,controls" dc:publisher="Iconscout" dc:date="2017-09-15" dc:format="image/svg+xml" dc:language="en"><dc:creator><rdf:Bag><rdf:li>Bryn Taylor</rdf:li></rdf:Bag></dc:creator></rdf:Description></rdf:RDF></metadata></svg>