<?xml version="1.0" encoding="UTF-8"?><svg xmlns="http://www.w3.org/2000/svg" xmlns:xlink="http://www.w3.org/1999/xlink" version="1.1" x="0px" y="0px" width="100px" height="100px" viewBox="0 0 100 100" xml:space="preserve"><g id="_x37_7_Essential_Icons"><path id="Create_New" d="M86.4 26.9L80 20.6c-.8-.7-2.1-.7-2.8 0L63.8 34H15c-1.1 0-2 .9-2 2v42c0 1.1.9 2 2 2h60c1.1 0 2-.9 2-2V39.2l9.4-9.4c.8-.8.8-2.1 0-2.9zM73.1 76H17V38h42.8L48.7 49.1c-.3.2-.4.6-.5.9l-1.8 6H28.9c-1.1 0-2 .9-2 2s.9 2 2 2h19c.1 0 3.9.1 6.6-.6 1.4-.3 2.4-.6 2.4-.6.4-.1.7-.3.9-.5L73 43.2V76zM55.4 55.1l-4.7 1.2 1.2-4.7 26.7-26.7 3.5 3.5-26.7 26.7z"/></g><g id="Info"><path fill="#00F" d="M1644-650v1684H-140V-650h1784m8-8H-148v1700h1800V-658z" id="BORDER"/></g><metadata><rdf:RDF xmlns:rdf="http://www.w3.org/1999/02/22-rdf-syntax-ns#" xmlns:rdfs="http://www.w3.org/2000/01/rdf-schema#" xmlns:dc="http://purl.org/dc/elements/1.1/"><rdf:Description about="https://iconscout.com/legal#licenses" dc:title="essential,s,create,new" dc:description="essential,s,create,new" dc:publisher="Iconscout" dc:date="2017-09-15" dc:format="image/svg+xml" dc:language="en"><dc:creator><rdf:Bag><rdf:li>Bryn Taylor</rdf:li></rdf:Bag></dc:creator></rdf:Description></rdf:RDF></metadata></svg>