<?xml version="1.0" encoding="UTF-8"?><svg xmlns="http://www.w3.org/2000/svg" xmlns:xlink="http://www.w3.org/1999/xlink" version="1.1" x="0px" y="0px" width="100px" height="100px" viewBox="0 0 100 100" xml:space="preserve"><g id="_x37_7_Essential_Icons"><path id="Credit_Card" d="M86 24H14c-1.1 0-2 .9-2 2v48c0 1.1.9 2 2 2h72c1.1 0 2-.9 2-2V26c0-1.1-.9-2-2-2zm-2 48H16V48h68v24zm0-28H16v-6h68v6zm0-10H16v-6h68v6zM46 64c0 1.1-.9 2-2 2H24c-1.1 0-2-.9-2-2s.9-2 2-2h20c1.1 0 2 .9 2 2z"/></g><g id="Info"><path fill="#00F" d="M944-930V754H-840V-930H944m8-8H-848V762H952V-938z" id="BORDER"/></g><metadata><rdf:RDF xmlns:rdf="http://www.w3.org/1999/02/22-rdf-syntax-ns#" xmlns:rdfs="http://www.w3.org/2000/01/rdf-schema#" xmlns:dc="http://purl.org/dc/elements/1.1/"><rdf:Description about="https://iconscout.com/legal#licenses" dc:title="essential,s,credit,card" dc:description="essential,s,credit,card" dc:publisher="Iconscout" dc:date="2017-09-15" dc:format="image/svg+xml" dc:language="en"><dc:creator><rdf:Bag><rdf:li>Bryn Taylor</rdf:li></rdf:Bag></dc:creator></rdf:Description></rdf:RDF></metadata></svg>