<?xml version="1.0" encoding="UTF-8"?><svg xmlns="http://www.w3.org/2000/svg" xmlns:xlink="http://www.w3.org/1999/xlink" version="1.1" x="0px" y="0px" width="100px" height="100px" viewBox="0 0 100 100" xml:space="preserve"><g id="_x37_7_Essential_Icons"><path id="Diary" d="M78 10H22c-1.1 0-2 .9-2 2v76c0 1.1.9 2 2 2h56c1.1 0 2-.9 2-2V12c0-1.1-.9-2-2-2zm-2 76H24V72h8.3c.8 2.3 3 4 5.7 4 3.3 0 6-2.7 6-6s-2.7-6-6-6c-2.6 0-4.8 1.7-5.7 4H24V52h8.3c.8 2.3 3 4 5.7 4 3.3 0 6-2.7 6-6s-2.7-6-6-6c-2.6 0-4.8 1.7-5.7 4H24V32h8.3c.8 2.3 3 4 5.7 4 3.3 0 6-2.7 6-6s-2.7-6-6-6c-2.6 0-4.8 1.7-5.7 4H24V14h52v72zM36 70c0-1.1.9-2 2-2s2 .9 2 2-.9 2-2 2-2-.9-2-2zm0-20c0-1.1.9-2 2-2s2 .9 2 2-.9 2-2 2-2-.9-2-2zm0-20c0-1.1.9-2 2-2s2 .9 2 2-.9 2-2 2-2-.9-2-2z"/></g><g id="Info"><path fill="#00F" d="M384-930V754h-1784V-930H384m8-8h-1800V762H392V-938z" id="BORDER"/></g><metadata><rdf:RDF xmlns:rdf="http://www.w3.org/1999/02/22-rdf-syntax-ns#" xmlns:rdfs="http://www.w3.org/2000/01/rdf-schema#" xmlns:dc="http://purl.org/dc/elements/1.1/"><rdf:Description about="https://iconscout.com/legal#licenses" dc:title="essential,s,diary" dc:description="essential,s,diary" dc:publisher="Iconscout" dc:date="2017-09-15" dc:format="image/svg+xml" dc:language="en"><dc:creator><rdf:Bag><rdf:li>Bryn Taylor</rdf:li></rdf:Bag></dc:creator></rdf:Description></rdf:RDF></metadata></svg>