<?xml version="1.0" encoding="UTF-8"?><svg xmlns="http://www.w3.org/2000/svg" xmlns:xlink="http://www.w3.org/1999/xlink" version="1.1" x="0px" y="0px" width="100px" height="100px" viewBox="0 0 100 100" xml:space="preserve"><g id="_x37_7_Essential_Icons"><path id="Folder" d="M88 30H66.9l-9.2-9.4c-.4-.4-.9-.6-1.4-.6H22c-1.1 0-2 .9-2 2v8h-8c-1.1 0-2 .9-2 2v46c0 1.1.9 2 2 2h76c1.1 0 2-.9 2-2V32c0-1.1-.9-2-2-2zm-64-6h31.3l5.9 6H24v-6zm62 52H14V34h72v42z"/></g><g id="Info"><path fill="#00F" d="M1084-930V754H-700V-930h1784m8-8H-708V762h1800V-938z" id="BORDER"/></g><metadata><rdf:RDF xmlns:rdf="http://www.w3.org/1999/02/22-rdf-syntax-ns#" xmlns:rdfs="http://www.w3.org/2000/01/rdf-schema#" xmlns:dc="http://purl.org/dc/elements/1.1/"><rdf:Description about="https://iconscout.com/legal#licenses" dc:title="essential,s,folder" dc:description="essential,s,folder" dc:publisher="Iconscout" dc:date="2017-09-15" dc:format="image/svg+xml" dc:language="en"><dc:creator><rdf:Bag><rdf:li>Bryn Taylor</rdf:li></rdf:Bag></dc:creator></rdf:Description></rdf:RDF></metadata></svg>