<?xml version="1.0" encoding="UTF-8"?><svg xmlns="http://www.w3.org/2000/svg" xmlns:xlink="http://www.w3.org/1999/xlink" version="1.1" x="0px" y="0px" width="100px" height="100px" viewBox="0 0 100 100" xml:space="preserve"><g id="_x37_7_Essential_Icons"><path id="Left_Arrow" d="M57.9 67.9c-.4.4-.9.6-1.4.6s-1-.2-1.4-.6L38.1 51c-.8-.8-.8-2 0-2.8l16.1-16.1c.8-.8 2.1-.8 2.8 0 .8.8.8 2 0 2.8L42.4 49.6l15.5 15.5c.7.8.7 2 0 2.8zM88 50c0 21-17 38-38 38S12 71 12 50s17-38 38-38 38 17 38 38zm-4 0c0-18.8-15.2-34-34-34S16 31.2 16 50s15.2 34 34 34 34-15.2 34-34z"/></g><g id="Info"><path fill="#00F" d="M804-1210V474H-980v-1684H804m8-8H-988V482H812v-1700z" id="BORDER"/></g><metadata><rdf:RDF xmlns:rdf="http://www.w3.org/1999/02/22-rdf-syntax-ns#" xmlns:rdfs="http://www.w3.org/2000/01/rdf-schema#" xmlns:dc="http://purl.org/dc/elements/1.1/"><rdf:Description about="https://iconscout.com/legal#licenses" dc:title="essential,s,left,arrow" dc:description="essential,s,left,arrow" dc:publisher="Iconscout" dc:date="2017-09-15" dc:format="image/svg+xml" dc:language="en"><dc:creator><rdf:Bag><rdf:li>Bryn Taylor</rdf:li></rdf:Bag></dc:creator></rdf:Description></rdf:RDF></metadata></svg>