<?xml version="1.0" encoding="UTF-8"?><svg xmlns="http://www.w3.org/2000/svg" xmlns:xlink="http://www.w3.org/1999/xlink" version="1.1" x="0px" y="0px" width="100px" height="100px" viewBox="0 0 100 100" xml:space="preserve"><g id="_x37_7_Essential_Icons"><path id="Location_Pin" d="M50 8C34.6 8 22 20.4 22 35.7c0 32.6 25.6 54.9 26.7 55.9.7.6 1.9.6 2.6 0 1.1-1 26.7-23.4 26.7-55.9C78 20.4 65.4 8 50 8zm0 79.3c-5.2-5-24-25-24-51.6C26 22.6 36.8 12 50 12s24 10.6 24 23.7c0 26.6-18.8 46.6-24 51.6zM50 20c-8.8 0-16 7.2-16 16s7.2 16 16 16 16-7.2 16-16-7.2-16-16-16zm0 28c-6.6 0-12-5.4-12-12s5.4-12 12-12 12 5.4 12 12-5.4 12-12 12z"/></g><g id="Info"><path fill="#00F" d="M1644-370v1684H-140V-370h1784m8-8H-148v1700h1800V-378z" id="BORDER"/></g><metadata><rdf:RDF xmlns:rdf="http://www.w3.org/1999/02/22-rdf-syntax-ns#" xmlns:rdfs="http://www.w3.org/2000/01/rdf-schema#" xmlns:dc="http://purl.org/dc/elements/1.1/"><rdf:Description about="https://iconscout.com/legal#licenses" dc:title="essential,s,location,marker" dc:description="essential,s,location,marker" dc:publisher="Iconscout" dc:date="2017-09-15" dc:format="image/svg+xml" dc:language="en"><dc:creator><rdf:Bag><rdf:li>Bryn Taylor</rdf:li></rdf:Bag></dc:creator></rdf:Description></rdf:RDF></metadata></svg>