<?xml version="1.0" encoding="UTF-8"?><svg xmlns="http://www.w3.org/2000/svg" xmlns:xlink="http://www.w3.org/1999/xlink" version="1.1" x="0px" y="0px" width="100px" height="100px" viewBox="0 0 100 100" xml:space="preserve"><g id="_x37_7_Essential_Icons"><path id="Microphone" d="M52 75.9V86h14c1.1 0 2 .9 2 2s-.9 2-2 2H34c-1.1 0-2-.9-2-2s.9-2 2-2h14V75.9c-13.4-1-24-12.3-24-25.9 0-1.1.9-2 2-2s2 .9 2 2c0 12.1 9.9 22 22 22s22-9.9 22-22c0-1.1.9-2 2-2s2 .9 2 2c0 13.7-10.6 24.9-24 25.9zM65 25v25c0 8.3-6.7 15-15 15s-15-6.7-15-15V25c0-8.3 6.7-15 15-15s15 6.7 15 15zm-4 0c0-6.1-4.9-11-11-11s-11 4.9-11 11v25c0 6.1 4.9 11 11 11s11-4.9 11-11V25z"/></g><g id="Info"><path fill="#00F" d="M1084-650v1684H-700V-650h1784m8-8H-708v1700h1800V-658z" id="BORDER"/></g><metadata><rdf:RDF xmlns:rdf="http://www.w3.org/1999/02/22-rdf-syntax-ns#" xmlns:rdfs="http://www.w3.org/2000/01/rdf-schema#" xmlns:dc="http://purl.org/dc/elements/1.1/"><rdf:Description about="https://iconscout.com/legal#licenses" dc:title="essential,s,microphone" dc:description="essential,s,microphone" dc:publisher="Iconscout" dc:date="2017-09-15" dc:format="image/svg+xml" dc:language="en"><dc:creator><rdf:Bag><rdf:li>Bryn Taylor</rdf:li></rdf:Bag></dc:creator></rdf:Description></rdf:RDF></metadata></svg>