<?xml version="1.0" encoding="UTF-8"?><svg xmlns="http://www.w3.org/2000/svg" xmlns:xlink="http://www.w3.org/1999/xlink" version="1.1" x="0px" y="0px" width="100px" height="100px" viewBox="0 0 100 100" xml:space="preserve"><g id="_x37_7_Essential_Icons"><path id="Music" d="M88.3 11.5c-.5-.4-1.1-.5-1.7-.4l-48 10c-.9.2-1.6 1-1.6 2v40.8c-2.7-3-6.6-4.8-11-4.8-8.3 0-15 6.7-15 15s6.7 15 15 15 15-6.7 15-15V38.6l44-9.2v24.4c-2.7-3-6.7-4.8-11-4.8-8.3 0-15 6.7-15 15s6.7 15 15 15 15-6.7 15-15V13c0-.6-.3-1.2-.7-1.5zM26 85c-6.1 0-11-4.9-11-11s4.9-11 11-11 11 4.9 11 11-4.9 11-11 11zm48-10c-6.1 0-11-4.9-11-11s4.9-11 11-11 11 4.9 11 11-4.9 11-11 11zm11-49.6l-44 9.2v-9.9l44-9.2v9.9z"/></g><g id="Info"><path fill="#00F" d="M664-650v1684h-1784V-650H664m8-8h-1800v1700H672V-658z" id="BORDER"/></g><metadata><rdf:RDF xmlns:rdf="http://www.w3.org/1999/02/22-rdf-syntax-ns#" xmlns:rdfs="http://www.w3.org/2000/01/rdf-schema#" xmlns:dc="http://purl.org/dc/elements/1.1/"><rdf:Description about="https://iconscout.com/legal#licenses" dc:title="essential,s,music" dc:description="essential,s,music" dc:publisher="Iconscout" dc:date="2017-09-15" dc:format="image/svg+xml" dc:language="en"><dc:creator><rdf:Bag><rdf:li>Bryn Taylor</rdf:li></rdf:Bag></dc:creator></rdf:Description></rdf:RDF></metadata></svg>