<?xml version="1.0" encoding="UTF-8"?><svg xmlns="http://www.w3.org/2000/svg" xmlns:xlink="http://www.w3.org/1999/xlink" version="1.1" x="0px" y="0px" width="100px" height="100px" viewBox="0 0 100 100" xml:space="preserve"><g id="_x37_7_Essential_Icons"><path id="Phone" d="M66 11H34c-3.3 0-6 2.7-6 6v66c0 3.3 2.7 6 6 6h32c3.3 0 6-2.7 6-6V17c0-3.3-2.7-6-6-6zm2 72c0 1.1-.9 2-2 2H34c-1.1 0-2-.9-2-2v-4h36v4zm0-8H32V25h36v50zm0-54H32v-4c0-1.1.9-2 2-2h32c1.1 0 2 .9 2 2v4z"/></g><g id="Info"><path fill="#00F" d="M804-370v1684H-980V-370H804m8-8H-988v1700H812V-378z" id="BORDER"/></g><metadata><rdf:RDF xmlns:rdf="http://www.w3.org/1999/02/22-rdf-syntax-ns#" xmlns:rdfs="http://www.w3.org/2000/01/rdf-schema#" xmlns:dc="http://purl.org/dc/elements/1.1/"><rdf:Description about="https://iconscout.com/legal#licenses" dc:title="essential,s,phone" dc:description="essential,s,phone" dc:publisher="Iconscout" dc:date="2017-09-15" dc:format="image/svg+xml" dc:language="en"><dc:creator><rdf:Bag><rdf:li>Bryn Taylor</rdf:li></rdf:Bag></dc:creator></rdf:Description></rdf:RDF></metadata></svg>