<?xml version="1.0" encoding="UTF-8"?><svg xmlns="http://www.w3.org/2000/svg" xmlns:xlink="http://www.w3.org/1999/xlink" version="1.1" x="0px" y="0px" width="100px" height="100px" viewBox="0 0 100 100" xml:space="preserve"><g id="_x37_7_Essential_Icons"><path id="Pie_Chart" d="M50 12c-21 0-38 17-38 38 0 20.9 17 38 38 38 20.9 0 38-17 38-38 0-20.9-17.1-38-38-38zm2 4.1c17.2 1 30.9 14.8 31.9 31.9H52V16.1zM50 84c-18.8 0-34-15.2-34-34 0-18.1 14.2-32.9 32-33.9V50c0 .5.2 1 .6 1.4l24 24C66.6 80.7 58.7 84 50 84zm25.4-11.4L54.8 52h29.1c-.4 7.9-3.6 15-8.5 20.6z"/></g><g id="Info"><path fill="#00F" d="M384-1070V614h-1784v-1684H384m8-8h-1800V622H392v-1700z" id="BORDER"/></g><metadata><rdf:RDF xmlns:rdf="http://www.w3.org/1999/02/22-rdf-syntax-ns#" xmlns:rdfs="http://www.w3.org/2000/01/rdf-schema#" xmlns:dc="http://purl.org/dc/elements/1.1/"><rdf:Description about="https://iconscout.com/legal#licenses" dc:title="essential,s,pie,chart" dc:description="essential,s,pie,chart" dc:publisher="Iconscout" dc:date="2017-09-15" dc:format="image/svg+xml" dc:language="en"><dc:creator><rdf:Bag><rdf:li>Bryn Taylor</rdf:li></rdf:Bag></dc:creator></rdf:Description></rdf:RDF></metadata></svg>