<?xml version="1.0" encoding="UTF-8"?><svg xmlns="http://www.w3.org/2000/svg" xmlns:xlink="http://www.w3.org/1999/xlink" version="1.1" x="0px" y="0px" width="100px" height="100px" viewBox="0 0 100 100" xml:space="preserve"><g id="_x37_7_Essential_Icons"><path id="Signals" d="M73.7 79l-20-35.2c3.7-1.4 6.3-5 6.3-9.1 0-5.4-4.5-9.7-10-9.7s-10 4.3-10 9.7c0 4.1 2.6 7.7 6.3 9.1L26.2 79c-.8 1.3.2 3 1.7 3H72c1.6 0 2.5-1.7 1.7-3zM44 34.7c0-3.3 2.7-5.8 6-5.8s6 2.5 6 5.8-2.7 5.9-6 5.9-6-2.7-6-5.9zM31.4 78.1L50 45.5l18.5 32.6H31.4zm40.7-29.7c5.3-8.5 5.3-18.9 0-27.4-.6-.9-.3-2.1.7-2.7.9-.6 2.2-.3 2.7.7 6 9.8 6 21.7 0 31.5-1 1.6-2.7.7-2.7.7-1-.7-1.3-1.9-.7-2.8zm-7.9-6.7c2-4.4 2-9.5 0-14-.4-1 0-2.2 1-2.6 1-.4 2.2 0 2.6 1 2.4 5.4 2.4 11.7 0 17.1-.9 2-3.1.8-2.6 1-1-.4-1.5-1.5-1-2.5zm-39.7 8.7c-6-9.8-6-21.7 0-31.5.6-.9 1.8-1.2 2.7-.7.9.6 1.2 1.8.7 2.7-5.3 8.5-5.3 18.9 0 27.4.6.9.3 2.1-.7 2.7 0 .2-1.7 1-2.7-.6zm7.7-7.1c-2.4-5.4-2.4-11.7 0-17.1.4-1 1.6-1.4 2.6-1 1 .4 1.5 1.6 1 2.6-2 4.4-2 9.5 0 14 .4 1 0 2.2-1 2.6-.3.1-.5.2-.8.2-.8-.2-1.5-.6-1.8-1.3z"/></g><g id="Info"><path fill="#00F" d="M1084-1070V614H-700v-1684h1784m8-8H-708V622h1800v-1700z" id="BORDER"/></g><metadata><rdf:RDF xmlns:rdf="http://www.w3.org/1999/02/22-rdf-syntax-ns#" xmlns:rdfs="http://www.w3.org/2000/01/rdf-schema#" xmlns:dc="http://purl.org/dc/elements/1.1/"><rdf:Description about="https://iconscout.com/legal#licenses" dc:title="essential,s,signals" dc:description="essential,s,signals" dc:publisher="Iconscout" dc:date="2017-09-15" dc:format="image/svg+xml" dc:language="en"><dc:creator><rdf:Bag><rdf:li>Bryn Taylor</rdf:li></rdf:Bag></dc:creator></rdf:Description></rdf:RDF></metadata></svg>