<?xml version="1.0" encoding="UTF-8"?><svg xmlns="http://www.w3.org/2000/svg" xmlns:xlink="http://www.w3.org/1999/xlink" version="1.1" x="0px" y="0px" width="100px" height="100px" viewBox="0 0 100 100" xml:space="preserve"><g id="_x37_7_Essential_Icons"><path id="Tag" d="M84 14H56.6c-.5 0-1 .2-1.4.6L14.6 55.1c-.8.8-.8 2.1 0 2.8L42 85.4c.8.8 2 .8 2.8 0l40.5-40.5c.4-.4.6-.9.6-1.4V16c.1-1.1-.8-2-1.9-2zm-2 28.6L43.5 81.2 18.8 56.6 57.4 18H82v24.6zM68 23.9c-4.4 0-8 3.6-8 8s3.6 8 8 8 8-3.6 8-8-3.6-8-8-8zm2.8 10.9c-1.5 1.5-4.2 1.5-5.7 0-1.6-1.6-1.6-4.1 0-5.7 1.6-1.6 4.1-1.6 5.7 0 1.6 1.6 1.6 4.1 0 5.7z"/></g><g id="Info"><path fill="#00F" d="M664-1070V614h-1784v-1684H664m8-8h-1800V622H672v-1700z" id="BORDER"/></g><metadata><rdf:RDF xmlns:rdf="http://www.w3.org/1999/02/22-rdf-syntax-ns#" xmlns:rdfs="http://www.w3.org/2000/01/rdf-schema#" xmlns:dc="http://purl.org/dc/elements/1.1/"><rdf:Description about="https://iconscout.com/legal#licenses" dc:title="essential,s,tag" dc:description="essential,s,tag" dc:publisher="Iconscout" dc:date="2017-09-15" dc:format="image/svg+xml" dc:language="en"><dc:creator><rdf:Bag><rdf:li>Bryn Taylor</rdf:li></rdf:Bag></dc:creator></rdf:Description></rdf:RDF></metadata></svg>