<?xml version="1.0" encoding="UTF-8"?><svg xmlns="http://www.w3.org/2000/svg" xmlns:xlink="http://www.w3.org/1999/xlink" version="1.1" x="0px" y="0px" width="100px" height="100px" viewBox="0 0 100 100" xml:space="preserve"><g id="_x37_7_Essential_Icons"><path id="Users" d="M78.2 58.2C81.1 55.8 83 52.1 83 48c0-6.9-5.6-13-12-13s-12 6.1-12 13c0 4.1 1.9 7.8 4.8 10.2-1.3.5-2.5 1-3.7 1.7-3.8-4.5-8.8-8-14.6-9.7C49.9 47.1 53 41.8 53 36c0-9.1-7.5-17-16-17s-16 7.9-16 17c0 5.8 3.1 11.1 7.5 14.2C16.1 53.9 7 65.4 7 79c0 1.1.9 2 2 2h82c1.1 0 2-.9 2-2 0-9.6-6.2-17.8-14.8-20.8zM63 48c0-4.2 3.5-9 8-9s8 4.8 8 9-3.5 9-8 9-8-4.8-8-9zM25 36c0-6.1 5.1-13 12-13s12 6.9 12 13-5.1 13-12 13-12-6.9-12-13zM11.1 77c1-13.4 12.3-24 25.9-24 13.7 0 24.9 10.6 25.9 24H11.1zm55.8 0c-.3-5-1.9-9.8-4.5-13.8C65 61.8 67.9 61 71 61c9.3 0 16.9 7 17.9 16h-22z"/></g><g id="Info"><path fill="#00F" d="M1084-790V894H-700V-790h1784m8-8H-708V902h1800V-798z" id="BORDER"/></g><metadata><rdf:RDF xmlns:rdf="http://www.w3.org/1999/02/22-rdf-syntax-ns#" xmlns:rdfs="http://www.w3.org/2000/01/rdf-schema#" xmlns:dc="http://purl.org/dc/elements/1.1/"><rdf:Description about="https://iconscout.com/legal#licenses" dc:title="essential,s,users" dc:description="essential,s,users" dc:publisher="Iconscout" dc:date="2017-09-15" dc:format="image/svg+xml" dc:language="en"><dc:creator><rdf:Bag><rdf:li>Bryn Taylor</rdf:li></rdf:Bag></dc:creator></rdf:Description></rdf:RDF></metadata></svg>