<svg xmlns="http://www.w3.org/2000/svg" data-name="Layer 1" viewBox="0 0 32 32"><path fill="#fff" d="M24.424,31.5H5.5a2,2,0,0,1-2-2V2.5a2,2,0,0,1,2-2h14l7,8-.076,21.008A2,2,0,0,1,24.424,31.5Z"/><path fill="#fedc55" d="M22.344,8.5H7.5a1,1,0,0,1-1-1v-3a1,1,0,0,1,1-1H19.344"/><path fill="#afaeb3" d="M26.5,8.5h-5a2,2,0,0,1-2-2V.5Z"/><circle cx="26" cy="26" r="5.5" fill="#55bb8c"/><path d="M28.1,23.7l-2.653,3.539-1.593-1.592a.5.5,0,0,0-.707.707l2,2a.5.5,0,0,0,.354.146h.035a.5.5,0,0,0,.365-.2l3-4a.5.5,0,0,0-.8-.6ZM27,20.09V8.5a.484.484,0,0,0-.009-.048.459.459,0,0,0-.009-.052.49.49,0,0,0-.106-.229l-7-8a.487.487,0,0,0-.225-.138.458.458,0,0,0-.069-.015A.485.485,0,0,0,19.5,0H5.5A2.5,2.5,0,0,0,3,2.5v27A2.5,2.5,0,0,0,5.5,32H25.417a.481.481,0,0,0,.117-.024c.154.012.309.024.466.024a6,6,0,0,0,1-11.91ZM20,1.831,25.4,8H21.5A1.5,1.5,0,0,1,20,6.5ZM19.513,8H7.5A.5.5,0,0,1,7,7.5v-3A.5.5,0,0,1,7.5,4H19V6.5A2.476,2.476,0,0,0,19.513,8ZM5.5,31A1.5,1.5,0,0,1,4,29.5V2.5A1.5,1.5,0,0,1,5.5,1H19V3H7.5A1.5,1.5,0,0,0,6,4.5v3A1.5,1.5,0,0,0,7.5,9H26V20a5.98,5.98,0,0,0-4.46,2H6.5a.5.5,0,0,0,0,1H20.812a5.95,5.95,0,0,0-.721,2H6.5a.5.5,0,0,0,0,1H20a5.96,5.96,0,0,0,.35,2H6.5a.5.5,0,0,0,0,1H20.812a6.04,6.04,0,0,0,1.879,2ZM26,31a5,5,0,1,1,5-5A5.006,5.006,0,0,1,26,31ZM15.5,18h-1a1,1,0,0,1-1-1,.5.5,0,0,0-1,0,2,2,0,0,0,2,2v.5a.5.5,0,0,0,1,0V19a2,2,0,0,0,0-4h-1a1,1,0,0,1,0-2h1a1,1,0,0,1,1,1,.5.5,0,0,0,1,0,2,2,0,0,0-2-2v-.5a.5.5,0,0,0-1,0V12a2,2,0,0,0,0,4h1a1,1,0,0,1,0,2Z"/></svg>