<svg xmlns="http://www.w3.org/2000/svg" data-name="Layer 1" viewBox="0 0 32 32"><path fill="#ed4669" d="M31.5,3.008V6.992A1.508,1.508,0,0,1,29.992,8.5h0a2,2,0,0,0-1.414.586l-1.859,1.859L24.86,9.086A2,2,0,0,0,23.445,8.5H21.008A1.508,1.508,0,0,1,19.5,6.992V3.008A1.508,1.508,0,0,1,21.008,1.5h8.984A1.508,1.508,0,0,1,31.5,3.008Z"/><path fill="#55bb8c" d="M.5,3.008V6.992A1.508,1.508,0,0,0,2.008,8.5h0a2,2,0,0,1,1.414.586l1.859,1.859L7.14,9.086A2,2,0,0,1,8.555,8.5h2.438A1.508,1.508,0,0,0,12.5,6.992V3.008A1.508,1.508,0,0,0,10.992,1.5H2.008A1.508,1.508,0,0,0,.5,3.008Z"/><path fill="#ed6649" d="M9.5,23.5h-6a3,3,0,0,0-3,3v4a1,1,0,0,0,1,1h10a1,1,0,0,0,1-1v-4A3,3,0,0,0,9.5,23.5Z"/><path fill="#82c8ec" d="M28.5,23.5h-6a3,3,0,0,0-3,3v4a1,1,0,0,0,1,1h10a1,1,0,0,0,1-1v-4A3,3,0,0,0,28.5,23.5Z"/><path fill="#fcc37a" d="M24,20.979V23a1.5,1.5,0,0,0,3,0V20.979Z"/><path fill="#fddaaa" d="M28.5,17.956v1.075a3.471,3.471,0,0,1-2.109,3.193h0a2.27,2.27,0,0,1-1.782,0h0A3.471,3.471,0,0,1,22.5,19.031V17.956A2.456,2.456,0,0,1,24.956,15.5h1.089A2.456,2.456,0,0,1,28.5,17.956Z"/><path fill="#fcc37a" d="M5,20.979V23a1.5,1.5,0,0,0,3,0V20.979Z"/><path fill="#fddaaa" d="M9.5,17.956v1.075a3.471,3.471,0,0,1-2.109,3.193h0a2.27,2.27,0,0,1-1.782,0h0A3.471,3.471,0,0,1,3.5,19.031V17.956A2.456,2.456,0,0,1,5.956,15.5H7.044A2.456,2.456,0,0,1,9.5,17.956Z"/><path d="M29.992,1H21.008A2.01,2.01,0,0,0,19,3.008V6.992A2.01,2.01,0,0,0,21.008,9h2.438a1.511,1.511,0,0,1,1.061.439L26.365,11.3a.5.5,0,0,0,.707,0l1.859-1.859A1.511,1.511,0,0,1,29.992,9,2.01,2.01,0,0,0,32,6.992V3.008A2.01,2.01,0,0,0,29.992,1ZM31,6.992A1.009,1.009,0,0,1,29.992,8a2.482,2.482,0,0,0-1.768.732l-1.506,1.506L25.213,8.732A2.482,2.482,0,0,0,23.445,8H21.008A1.009,1.009,0,0,1,20,6.992V3.008A1.009,1.009,0,0,1,21.008,2h8.984A1.009,1.009,0,0,1,31,3.008ZM9.5,23h-1v-.867a3.961,3.961,0,0,0,1.5-3.1V17.956A2.96,2.96,0,0,0,7.044,15H5.956A2.96,2.96,0,0,0,3,17.956v1.075a3.961,3.961,0,0,0,1.5,3.1V23h-1A3.5,3.5,0,0,0,0,26.5v4A1.5,1.5,0,0,0,1.5,32h10A1.5,1.5,0,0,0,13,30.5v-4A3.5,3.5,0,0,0,9.5,23ZM4,19.031V17.956A1.959,1.959,0,0,1,5.956,16H7.044A1.959,1.959,0,0,1,9,17.956v1.075a2.967,2.967,0,0,1-1.8,2.732,1.772,1.772,0,0,1-1.391,0A2.967,2.967,0,0,1,4,19.031Zm3.5,3.68V23a1,1,0,0,1-2,0v-.289a2.67,2.67,0,0,0,2,0ZM12,30.5a.5.5,0,0,1-.5.5H10V28.5a.5.5,0,0,0-1,0V31H4V28.5a.5.5,0,0,0-1,0V31H1.5a.5.5,0,0,1-.5-.5v-4A2.5,2.5,0,0,1,3.5,24H4.778a1.982,1.982,0,0,0,3.443,0H9.5A2.5,2.5,0,0,1,12,26.5Zm3.5-18h1a1,1,0,0,1,1,1,.5.5,0,0,0,1,0,2,2,0,0,0-2-2V11a.5.5,0,0,0-1,0v.5a2,2,0,0,0,0,4h1a1,1,0,0,1,0,2h-1a1,1,0,0,1-1-1,.5.5,0,0,0-1,0,2,2,0,0,0,2,2V19a.5.5,0,0,0,1,0v-.5a2,2,0,0,0,0-4h-1a1,1,0,0,1,0-2ZM8.624,3.585,5.508,5.8,4.439,4.732a.5.5,0,0,0-.707.707L5.1,6.807a.5.5,0,0,0,.644.054L9.2,4.4a.5.5,0,0,0-.58-.814ZM10.992,1H2.008A2.01,2.01,0,0,0,0,3.008V6.992A2.01,2.01,0,0,0,2.008,9a1.511,1.511,0,0,1,1.061.439L4.928,11.3a.5.5,0,0,0,.707,0L7.494,9.439A1.511,1.511,0,0,1,8.555,9h2.438A2.01,2.01,0,0,0,13,6.992V3.008A2.01,2.01,0,0,0,10.992,1ZM12,6.992A1.009,1.009,0,0,1,10.992,8H8.555a2.482,2.482,0,0,0-1.768.732L5.281,10.238,3.775,8.732A2.482,2.482,0,0,0,2.008,8,1.009,1.009,0,0,1,1,6.992V3.008A1.009,1.009,0,0,1,2.008,2h8.984A1.009,1.009,0,0,1,12,3.008ZM28.5,23h-1v-.867a3.961,3.961,0,0,0,1.5-3.1V17.956A2.96,2.96,0,0,0,26.044,15H24.956A2.96,2.96,0,0,0,22,17.956v1.075a3.961,3.961,0,0,0,1.5,3.1V23h-1A3.5,3.5,0,0,0,19,26.5v4A1.5,1.5,0,0,0,20.5,32h10A1.5,1.5,0,0,0,32,30.5v-4A3.5,3.5,0,0,0,28.5,23ZM23,19.031V17.956A1.959,1.959,0,0,1,24.956,16h1.088A1.959,1.959,0,0,1,28,17.956v1.075a2.967,2.967,0,0,1-1.8,2.732,1.772,1.772,0,0,1-1.391,0A2.967,2.967,0,0,1,23,19.031Zm3.5,3.68V23a1,1,0,0,1-2,0v-.289a2.67,2.67,0,0,0,2,0ZM31,30.5a.5.5,0,0,1-.5.5H29V28.5a.5.5,0,0,0-1,0V31H23V28.5a.5.5,0,0,0-1,0V31H20.5a.5.5,0,0,1-.5-.5v-4A2.5,2.5,0,0,1,22.5,24h1.278a1.982,1.982,0,0,0,3.443,0H28.5A2.5,2.5,0,0,1,31,26.5ZM27.931,3.494a.5.5,0,0,0-.7-.117L25.5,4.609,23.767,3.377a.5.5,0,0,0-.58.814l1.451,1.031L23.187,6.254a.5.5,0,1,0,.58.814L25.5,5.836l1.733,1.232a.5.5,0,0,0,.58-.814L26.363,5.223l1.451-1.031A.5.5,0,0,0,27.931,3.494Z"/></svg>