<svg xmlns="http://www.w3.org/2000/svg" data-name="Layer 1" viewBox="0 0 32 32"><circle cx="16" cy="7" r="6.5" fill="#fedc55"/><circle cx="7" cy="25" r="6.5" fill="#55bb8c"/><circle cx="25" cy="25" r="6.5" fill="#ed4669"/><path d="M10.086,22.961,5.979,27.068,3.966,25.055a.5.5,0,0,0-.707.707l2.367,2.367a.5.5,0,0,0,.707,0l4.46-4.46a.5.5,0,0,0-.707-.707ZM7,18a7,7,0,1,0,7,7A7.008,7.008,0,0,0,7,18ZM7,31a6,6,0,1,1,6-6A6.007,6.007,0,0,1,7,31ZM15.5,4.5h1a1,1,0,0,1,1,1,.5.5,0,0,0,1,0,2,2,0,0,0-2-2V3a.5.5,0,0,0-1,0v.5a2,2,0,0,0,0,4h1a1,1,0,0,1,0,2h-1a1,1,0,0,1-1-1,.5.5,0,0,0-1,0,2,2,0,0,0,2,2V11a.5.5,0,0,0,1,0v-.5a2,2,0,0,0,0-4h-1a1,1,0,0,1,0-2ZM25,18a7,7,0,1,0,7,7A7.008,7.008,0,0,0,25,18Zm0,13a6,6,0,1,1,6-6A6.007,6.007,0,0,1,25,31Zm2.885-8.885a.5.5,0,0,0-.707,0L25,24.293l-2.178-2.178a.5.5,0,0,0-.707.707L24.293,25l-2.146,2.146a.5.5,0,1,0,.707.707L25,25.707l2.178,2.178a.5.5,0,0,0,.707-.707L25.707,25l2.178-2.178A.5.5,0,0,0,27.885,22.115ZM19.5,17a.5.5,0,0,0,0,1h2a.5.5,0,0,0,.2-.041c.013-.005.022-.017.035-.023a.5.5,0,0,0,.13-.094l.011-.008a.47.47,0,0,0,.036-.062.328.328,0,0,0,.076-.2A.469.469,0,0,0,22,17.5v-2a.5.5,0,0,0-1,0v.883L18,13.7A7,7,0,1,0,14,13.7l-3,2.678V15.5a.5.5,0,0,0-1,0v2a.469.469,0,0,0,.015.072.328.328,0,0,0,.076.2.47.47,0,0,0,.036.062l.011.008a.5.5,0,0,0,.13.094c.012.007.022.018.035.023a.5.5,0,0,0,.2.041h2a.5.5,0,0,0,0-1h-.69l3.409-3.046a6.544,6.544,0,0,0,1.59,0,.479.479,0,0,0,.067.09L20.19,17ZM16,13a6,6,0,1,1,6-6A6.007,6.007,0,0,1,16,13Z"/></svg>