<svg xmlns="http://www.w3.org/2000/svg" data-name="Layer 1" viewBox="0 0 32 32"><path fill="#ed4669" d="M30.5,16c0,.17,0,.33-.01.5A14.5,14.5,0,0,1,16.5,30.49c-.17.01-.33.01-.5.01s-.33,0-.5-.01A14.5,14.5,0,0,1,1.51,16.5c-.01-.17-.01-.33-.01-.5s0-.33.01-.5A14.5,14.5,0,0,1,15.5,1.51c.17-.01.33-.01.5-.01s.33,0,.5.01a14.346,14.346,0,0,1,9.39,3.9,7.716,7.716,0,0,1,.7.7,14.346,14.346,0,0,1,3.9,9.39C30.5,15.67,30.5,15.83,30.5,16Z"/><circle cx="16" cy="16" r="10.5" fill="#82c8ec"/><path fill="#fff" d="M30.5 16c0 .17 0 .33-.01.5H22.48a.5.5 0 0 1 0-1h8.01C30.5 15.67 30.5 15.83 30.5 16zM10 16a.5.5 0 0 1-.48.5H1.51c-.01-.17-.01-.33-.01-.5s0-.33.01-.5H9.52A.5.5 0 0 1 10 16zM16.5 22.48v8.01c-.17.01-.33.01-.5.01s-.33 0-.5-.01V22.48a.5.5 0 0 1 1 0zM16.5 1.51V9.52a.5.5 0 0 1-1 0V1.51c.17-.01.33-.01.5-.01S16.33 1.5 16.5 1.51z"/><circle cx="16" cy="16" r="6.5" fill="#fedc55"/><path fill="#8b8891" d="M31.5,4h-3a.5.5,0,0,1-.5-.5V.5a.5.5,0,0,1,1,0V3h2.5a.5.5,0,0,1,0,1Z"/><path fill="#8b8891" d="M19.477,13.023a.5.5,0,0,1-.354-.854L30.146,1.146a.5.5,0,0,1,.707.707L19.83,12.877A.5.5,0,0,1,19.477,13.023Z"/><path d="M31.5,3H29.707l1.146-1.146a.5.5,0,0,0-.707-.707L29,2.293V.5a.5.5,0,0,0-1,0V3.293L26.231,5.062a15.055,15.055,0,1,0,.707.707L28.707,4H31.5a.5.5,0,0,0,0-1Zm-15-.975a13.928,13.928,0,0,1,9.025,3.743L23.4,7.889a10.941,10.941,0,0,0-6.9-2.863ZM22.975,15.5a6.962,6.962,0,0,0-1.691-4.077L23.4,9.3a9.945,9.945,0,0,1,2.57,6.2Zm3,1A10,10,0,0,1,16.5,25.975v-3A7,7,0,0,0,22.975,16.5ZM16.5,6.025A9.945,9.945,0,0,1,22.7,8.6l-2.12,2.12A6.962,6.962,0,0,0,16.5,9.025Zm-1-4v3A11,11,0,0,0,5.025,15.5h-3A14,14,0,0,1,15.5,2.025Zm0,4v3A7,7,0,0,0,9.025,15.5h-3A10,10,0,0,1,15.5,6.025Zm0,23.949A14,14,0,0,1,2.025,16.5h3A11,11,0,0,0,15.5,26.975Zm0-4A10,10,0,0,1,6.025,16.5h3A7,7,0,0,0,15.5,22.975ZM10,16a5.994,5.994,0,0,1,9.87-4.577l-.747.747a.5.5,0,1,0,.707.707l.747-.747A6,6,0,1,1,10,16Zm6.5,13.975v-3A11,11,0,0,0,26.975,16.5h3A14,14,0,0,1,16.5,29.975ZM29.975,15.5h-3a10.941,10.941,0,0,0-2.863-6.9l2.12-2.12A13.928,13.928,0,0,1,29.975,15.5ZM15.5,13.5h1a1,1,0,0,1,1,1,.5.5,0,0,0,1,0,2,2,0,0,0-2-2V12a.5.5,0,0,0-1,0v.5a2,2,0,0,0,0,4h1a1,1,0,0,1,0,2h-1a1,1,0,0,1-1-1,.5.5,0,0,0-1,0,2,2,0,0,0,2,2V20a.5.5,0,0,0,1,0v-.5a2,2,0,0,0,0-4h-1a1,1,0,0,1,0-2Z"/></svg>