<svg xmlns="http://www.w3.org/2000/svg" data-name="Layer 1" viewBox="0 0 32 32"><path fill="#fedc55" d="M4.265,6.232A.991.991,0,0,0,3.5,7.2V15.4A16.012,16.012,0,0,0,15.988,31.013l0,0H16A16.012,16.012,0,0,0,28.5,15.4V7.24a.991.991,0,0,0-.808-.979A23.6,23.6,0,0,1,21.084,3.98a23.524,23.524,0,0,1-3.91-2.568,1.981,1.981,0,0,0-2.434-.019,27.966,27.966,0,0,1-3.867,2.419A28.03,28.03,0,0,1,4.265,6.232Z"/><path fill="#f8a839" d="M7.258,8.465a.99.99,0,0,0-.758.968v6.038a12.169,12.169,0,0,0,9.49,11.869l0,0H16a12.169,12.169,0,0,0,9.5-11.871v-6a.994.994,0,0,0-.8-.979,17.927,17.927,0,0,1-4.833-1.7A17.888,17.888,0,0,1,16.6,4.6a.976.976,0,0,0-1.232-.025A21.263,21.263,0,0,1,12.1,6.666,21.3,21.3,0,0,1,7.258,8.465Z"/><circle cx="16.001" cy="16.001" r="6" fill="#fedc55"/><path d="M15.5,13.5h1a1,1,0,0,1,1,1,.5.5,0,0,0,1,0,2,2,0,0,0-2-2V12a.5.5,0,0,0-1,0v.5a2,2,0,0,0,0,4h1a1,1,0,0,1,0,2h-1a1,1,0,0,1-1-1,.5.5,0,0,0-1,0,2,2,0,0,0,2,2V20a.5.5,0,0,0,1,0v-.5a2,2,0,0,0,0-4h-1a1,1,0,0,1,0-2ZM24.793,8a17.461,17.461,0,0,1-4.7-1.649,17.357,17.357,0,0,1-3.169-2.13,1.468,1.468,0,0,0-1.862-.037,20.758,20.758,0,0,1-3.189,2.038A20.776,20.776,0,0,1,7.142,7.978,1.489,1.489,0,0,0,6,9.433v6.038a12.749,12.749,0,0,0,9.856,12.351.514.514,0,0,0,.253.009A12.748,12.748,0,0,0,26,15.471v-6A1.5,1.5,0,0,0,24.793,8ZM25,15.471a11.741,11.741,0,0,1-9,11.357A11.742,11.742,0,0,1,7,15.471V9.433a.492.492,0,0,1,.374-.482,21.839,21.839,0,0,0,4.959-1.84,21.806,21.806,0,0,0,3.343-2.137.477.477,0,0,1,.6.011,18.438,18.438,0,0,0,3.352,2.253A18.431,18.431,0,0,0,24.6,8.98a.493.493,0,0,1,.4.488Zm2.783-9.7a23.107,23.107,0,0,1-6.469-2.232,23.124,23.124,0,0,1-3.826-2.514A2.483,2.483,0,0,0,14.44.992a27.693,27.693,0,0,1-3.8,2.375,27.535,27.535,0,0,1-6.49,2.377A1.483,1.483,0,0,0,3,7.2V15.4A16.615,16.615,0,0,0,15.862,31.5a.509.509,0,0,0,.138.019.514.514,0,0,0,.109-.012A16.612,16.612,0,0,0,29,15.4V7.239A1.493,1.493,0,0,0,27.783,5.769ZM28,15.4A15.608,15.608,0,0,1,16,30.5,15.609,15.609,0,0,1,4,15.4V7.2a.489.489,0,0,1,.376-.483A28.585,28.585,0,0,0,11.1,4.256a28.7,28.7,0,0,0,3.936-2.462,1.483,1.483,0,0,1,1.821.006,24.161,24.161,0,0,0,3.992,2.623A24.093,24.093,0,0,0,27.6,6.751a.488.488,0,0,1,.4.488ZM16,9.5A6.5,6.5,0,1,0,22.5,16,6.508,6.508,0,0,0,16,9.5Zm0,12A5.5,5.5,0,1,1,21.5,16,5.507,5.507,0,0,1,16,21.5Z"/></svg>