<svg xmlns="http://www.w3.org/2000/svg" data-name="Layer 1" viewBox="0 0 32 32"><circle cx="16" cy="16" r="15.5" fill="#82c8ec"/><circle cx="16" cy="11.222" r="6" fill="#fedc55"/><circle cx="6.5" cy="25.5" r="6" fill="#fedc55"/><circle cx="25.5" cy="25.5" r="6" fill="#fedc55"/><path d="M32,16A15.972,15.972,0,0,0,26.75,4.16l-.05-.05c-.01-.01-.01-.01-.02-.01a15.96,15.96,0,0,0-21.36,0c-.01,0-.01,0-.02.01l-.05.05a15.95,15.95,0,0,0-4.13,17.7A6.423,6.423,0,0,0,0,25.5,6.513,6.513,0,0,0,6.5,32a6.424,6.424,0,0,0,3.64-1.12,15.89,15.89,0,0,0,11.72,0A6.424,6.424,0,0,0,25.5,32,6.513,6.513,0,0,0,32,25.5a6.423,6.423,0,0,0-1.12-3.64A15.872,15.872,0,0,0,32,16Zm-1.85,4.97a6.441,6.441,0,0,0-4.38-1.96,23.35,23.35,0,0,0,.19-2.53h5.03A14.829,14.829,0,0,1,30.15,20.97Zm.84-5.49H25.97a22.537,22.537,0,0,0-1.9-8.9,8.266,8.266,0,0,0,2.31-1.39A14.923,14.923,0,0,1,30.99,15.48Zm-10.09,0a6.454,6.454,0,0,0,.38-8.03c.56-.12,1.1-.27,1.61-.43.09-.03.17-.06.25-.09a21.44,21.44,0,0,1,1.82,8.55Zm4.06,1a23.7,23.7,0,0,1-.2,2.56,6.528,6.528,0,0,0-5.6,5.03,22.964,22.964,0,0,0-2.66-.18V17.7a6.378,6.378,0,0,0,3.31-1.22Zm.67-11.97a7.015,7.015,0,0,1-2.01,1.18,12.416,12.416,0,0,0-3.24-4.04A14.99,14.99,0,0,1,25.63,4.51ZM16.5,1.07c2.46.22,4.66,2.09,6.2,4.95a.358.358,0,0,1-.11.04,15.346,15.346,0,0,1-2.05.52A6.436,6.436,0,0,0,16.5,4.74ZM9.41,6.06a.358.358,0,0,1-.11-.04c1.54-2.86,3.74-4.73,6.2-4.95V4.74a6.436,6.436,0,0,0-4.04,1.84A15.346,15.346,0,0,1,9.41,6.06Zm1.31,1.39a6.454,6.454,0,0,0,.38,8.03H7.04A21.44,21.44,0,0,1,8.86,6.93c.08.03.16.06.25.09C9.62,7.18,10.16,7.33,10.72,7.45Zm.9-5.8A12.416,12.416,0,0,0,8.38,5.69,7.015,7.015,0,0,1,6.37,4.51,14.99,14.99,0,0,1,11.62,1.65Zm-6,3.54A8.266,8.266,0,0,0,7.93,6.58a22.537,22.537,0,0,0-1.9,8.9H1.01A14.923,14.923,0,0,1,5.62,5.19ZM1.01,16.48H6.04a23.35,23.35,0,0,0,.19,2.53,6.441,6.441,0,0,0-4.38,1.96A14.829,14.829,0,0,1,1.01,16.48ZM10,29.74a5.829,5.829,0,0,1-.99.65A5.414,5.414,0,0,1,6.5,31,5.51,5.51,0,0,1,1,25.5a5.413,5.413,0,0,1,.61-2.51A5.826,5.826,0,0,1,2.26,22a5.452,5.452,0,0,1,4.11-1.99A.57.57,0,0,1,6.5,20a5.4,5.4,0,0,1,.91.08,5.482,5.482,0,0,1,4.43,4.13,4.731,4.731,0,0,1,.14,1,1.367,1.367,0,0,1,.02.29A5.5,5.5,0,0,1,10,29.74Zm5.5,1.25a14.643,14.643,0,0,1-4.47-.84A6.447,6.447,0,0,0,13,25.5a2.952,2.952,0,0,0-.02-.42,23.2,23.2,0,0,1,2.52-.16Zm0-7.1a22.964,22.964,0,0,0-2.66.18,6.528,6.528,0,0,0-5.6-5.03,23.7,23.7,0,0,1-.2-2.56h5.15A6.378,6.378,0,0,0,15.5,17.7Zm0-7.2a4.982,4.982,0,0,1-1.1-.21,5.519,5.519,0,0,1-3.9-5.26,5.47,5.47,0,0,1,2.25-4.43A5.371,5.371,0,0,1,15.5,5.75a4.178,4.178,0,0,1,1,0,5.371,5.371,0,0,1,2.75,1.04,5.47,5.47,0,0,1,2.25,4.43,5.519,5.519,0,0,1-3.9,5.26,4.982,4.982,0,0,1-1.1.21Zm1,14.3V24.92a23.2,23.2,0,0,1,2.52.16,2.952,2.952,0,0,0-.02.42,6.447,6.447,0,0,0,1.97,4.65A14.643,14.643,0,0,1,16.5,30.99ZM31,25.5A5.51,5.51,0,0,1,25.5,31a5.414,5.414,0,0,1-2.51-.61,5.829,5.829,0,0,1-.99-.65,5.5,5.5,0,0,1-2-4.24,1.367,1.367,0,0,1,.02-.29,4.731,4.731,0,0,1,.14-1,5.479,5.479,0,0,1,4.45-4.13A4.4,4.4,0,0,1,25.5,20a.486.486,0,0,1,.12.01A5.456,5.456,0,0,1,29.74,22a5.826,5.826,0,0,1,.65.99A5.413,5.413,0,0,1,31,25.5ZM16.5,15.22v-.5a2,2,0,0,0,0-4h-1a1,1,0,1,1,0-2h1a1,1,0,0,1,1,1,.5.5,0,0,0,1,0,2,2,0,0,0-2-2V6.99a.127.127,0,0,1-.06.01.486.486,0,0,0-.88,0,.127.127,0,0,1-.06-.01v.73a2,2,0,0,0-2,2,2,2,0,0,0,2,2h1a1,1,0,0,1,0,2h-1a1,1,0,0,1-1-1,.5.5,0,1,0-1,0,2,2,0,0,0,2,2v.76h.07a.505.505,0,0,0,.86,0h.07ZM9.21,25.99a.509.509,0,0,0-.59.4c-.01.04-.02.08-.03.11a2.751,2.751,0,0,1-1.1,1.84H7.48a.963.963,0,0,1-.53.16,1.4,1.4,0,0,1-1.07-.64,3.156,3.156,0,0,1-.43-.84h.84a.508.508,0,0,0,.5-.5.5.5,0,0,0-.33-.47.467.467,0,0,0-.17-.03H5.22a4.413,4.413,0,0,1-.03-.52,3.875,3.875,0,0,1,.03-.48H6.29a.508.508,0,0,0,.5-.5.5.5,0,0,0-.5-.5H5.43c.3-.89.87-1.51,1.5-1.52h.02c.53,0,1.04.44,1.38,1.18a.442.442,0,0,0,.12.15.481.481,0,0,0,.55.09.49.49,0,0,0,.24-.66,3.066,3.066,0,0,0-1.48-1.58,1.912,1.912,0,0,0-.81-.18,2.465,2.465,0,0,0-.27.02,3.085,3.085,0,0,0-2.3,2.5H3.29a.5.5,0,0,0-.5.5.5.5,0,0,0,.5.5h.92a1.547,1.547,0,0,0-.01.22,2.173,2.173,0,0,0-.01.26c0,.18.01.35.02.52H3.29a.5.5,0,0,0-.5.5.5.5,0,0,0,.5.5h1.1c.4,1.47,1.38,2.48,2.56,2.48a2.845,2.845,0,0,0,.42-.04,2.279,2.279,0,0,0,1.02-.53H8.4a3.613,3.613,0,0,0,.89-1.31,4.523,4.523,0,0,0,.32-1.04A.509.509,0,0,0,9.21,25.99Zm17.953-4.007-1.719,2.452,0-.006-.66-1.02-.7-1.08-.16-.24a.492.492,0,0,0-.69-.15.5.5,0,0,0-.15.69l.6.92.66,1.02.17.26H23.43a.469.469,0,0,0-.31.11.037.037,0,0,0-.03-.01c0,.02,0,.03-.01.04s-.02.01-.02.03c-.04.09-.08.17-.12.25a.2.2,0,0,0-.01.08.5.5,0,0,0,.5.5h1.5v1h-1.5a.528.528,0,0,0-.26.07.466.466,0,0,0-.23.37.035.035,0,0,0-.01.02v.04a.5.5,0,0,0,.5.5h1.5v1.5a.5.5,0,0,0,.5.5.5.5,0,0,0,.5-.5v-1.5h1.5a.5.5,0,0,0,.5-.5.518.518,0,0,0-.24-.43.594.594,0,0,0-.26-.07h-.9a.649.649,0,0,0-.09-.08.3.3,0,0,1-.08.08h-.43v-1h1.5a.5.5,0,0,0,.5-.5.448.448,0,0,0-.04-.2.505.505,0,0,0-.46-.3H26.389l1.593-2.272a.5.5,0,0,0-.819-.574Z"/></svg>