<svg xmlns="http://www.w3.org/2000/svg" data-name="Layer 1" viewBox="0 0 32 32"><path fill="#82c8ec" d="M31.085,8.421a2.056,2.056,0,0,1-.32,1.14l-13.93,21.56a1,1,0,0,1-1.68,0L1.235,9.561a1.977,1.977,0,0,1-.32-1.14,1.913,1.913,0,0,1,.37-1.1L4.9,2.261a2.01,2.01,0,0,1,1.63-.84h18.94a1.982,1.982,0,0,1,1.63.84l3.61,5.06A1.924,1.924,0,0,1,31.085,8.421Z"/><polyline fill="#54bbe8" points="16 31.579 9.832 8.423 15.998 1.559 22.56 8.423 16.196 31.345"/><path fill="#b8dff6" d="M31.085,8.421H.915a1.913,1.913,0,0,1,.37-1.1L4.9,2.261a2.013,2.013,0,0,1,.73-.63,2.089,2.089,0,0,1,.9-.21h18.94a2.169,2.169,0,0,1,.91.21v.01a1.943,1.943,0,0,1,.72.62l3.61,5.06A1.924,1.924,0,0,1,31.085,8.421Z"/><path fill="#82c8ec" d="M26.375,1.631v.01l-3.82,6.78L16,1.561l-6.16,6.86-4.21-6.79a2.089,2.089,0,0,1,.9-.21h18.94A2.169,2.169,0,0,1,26.375,1.631Z"/><circle cx="15.998" cy="17.501" r="6" fill="#fedc55"/><circle cx="16.002" cy="17.5" r="6" fill="#fedc55"/><path d="M16,24a6.5,6.5,0,1,1,6.5-6.5A6.508,6.508,0,0,1,16,24Zm0-12a5.5,5.5,0,1,0,5.5,5.5A5.506,5.506,0,0,0,16,12Z"/><path d="M31.54,8.138a2.448,2.448,0,0,0-.42-1.108L27.51,1.97A2.5,2.5,0,0,0,25.47.92H6.53a2.466,2.466,0,0,0-.975.216.5.5,0,0,0-.188.069c-.014.009-.022.023-.035.033A2.5,2.5,0,0,0,4.5,1.97L.89,7.03A2.448,2.448,0,0,0,.473,8.118a.459.459,0,0,0-.018.58A2.438,2.438,0,0,0,.82,9.83L14.74,31.39a1.5,1.5,0,0,0,2.52,0L31.19,9.83a2.439,2.439,0,0,0,.368-1.15.452.452,0,0,0-.017-.542ZM26.69,2.55l3.62,5.06a1.421,1.421,0,0,1,.159.311H23.415l3.121-5.54A1.51,1.51,0,0,1,26.69,2.55Zm-1.22-.63a1.459,1.459,0,0,1,.167.02l-3.18,5.645L17.04,1.92ZM20.75,13.08a6.457,6.457,0,0,0-9.23-.27L10.489,8.921H21.909Zm.75,4.42A5.485,5.485,0,0,1,16,23a5.408,5.408,0,0,1-1.85-.32,5.215,5.215,0,0,1-1.2-.61,5.48,5.48,0,0,1-1.87-7.02,5.306,5.306,0,0,1,.74-1.12,5.489,5.489,0,0,1,8.61.32,4.917,4.917,0,0,1,.69,1.25A5.313,5.313,0,0,1,21.5,17.5Zm-.109-9.579H10.96L16.012,2.3ZM6.53,1.92H15L9.912,7.587l-3.5-5.652C6.449,1.932,6.488,1.92,6.53,1.92ZM1.7,7.61,5.31,2.55a1.487,1.487,0,0,1,.18-.2L8.942,7.921H1.54A1.49,1.49,0,0,1,1.7,7.61ZM1.66,9.29a1.486,1.486,0,0,1-.168-.369H9.449l1.281,4.8A6.354,6.354,0,0,0,9.5,17.5a6.509,6.509,0,0,0,3.81,5.91l1.78,6.68ZM16.08,29.91l-1.63-6.1A6.151,6.151,0,0,0,16,24a6.616,6.616,0,0,0,1.79-.25ZM30.35,9.29,17.18,29.67l1.78-6.39a6.49,6.49,0,0,0,2.56-9.21l1.43-5.149h7.568A1.514,1.514,0,0,1,30.35,9.29ZM15.5,15h1a1,1,0,0,1,1,1,.5.5,0,0,0,1,0,2,2,0,0,0-2-2v-.5a.5.5,0,0,0-1,0V14a2,2,0,0,0,0,4h1a1,1,0,0,1,0,2h-1a1,1,0,0,1-1-1,.5.5,0,0,0-1,0,2,2,0,0,0,2,2v.5a.5.5,0,0,0,1,0V21a2,2,0,0,0,0-4h-1a1,1,0,0,1,0-2Z"/></svg>