<svg xmlns="http://www.w3.org/2000/svg" data-name="Layer 1" viewBox="0 0 32 32"><path fill="#f9be33" d="M19.29,25.89l.08-.68a12.8,12.8,0,0,1,3.1-6.7,8.5,8.5,0,1,0-12.72.24,11.949,11.949,0,0,1,2.9,6.66l.06.48"/><circle cx="16" cy="13" r="6" fill="#fedc55"/><rect width="7" height="2" x="12.5" y="25.5" fill="#afaeb3" rx="1" ry="1"/><rect width="7" height="2" x="12.5" y="27.5" fill="#8b8891" rx="1" ry="1"/><path fill="#afaeb3" d="M13.5,29.5h5a0,0,0,0,1,0,0v1a1,1,0,0,1-1,1h-3a1,1,0,0,1-1-1v-1A0,0,0,0,1,13.5,29.5Z"/><path d="M10.21 4.886a.5.5 0 0 1-.433-.25l-1-1.732a.5.5 0 1 1 .865-.5l1 1.732a.5.5 0 0 1-.433.75zM6.345 8.874a.5.5 0 0 1-.25-.067l-1.732-1a.5.5 0 0 1 .5-.866l1.732 1a.5.5 0 0 1-.25.933zM25.655 9.585a.5.5 0 0 1-.25-.933l1.732-1a.5.5 0 0 1 .5.866l-1.732 1A.5.5 0 0 1 25.655 9.585zM21.668 4.72a.5.5 0 0 1-.433-.75l1-1.732a.5.5 0 1 1 .865.5l-1 1.732A.5.5 0 0 1 21.668 4.72zM15.917 3a.5.5 0 0 1-.5-.5V.5a.5.5 0 1 1 1 0v2A.5.5 0 0 1 15.917 3z"/><path d="M15.417,10.5h1a1,1,0,0,1,1,1,.5.5,0,0,0,1,0,2,2,0,0,0-2-2V9a.5.5,0,1,0-1,0v.5a2,2,0,0,0,0,4h1a1,1,0,0,1,0,2h-1a1,1,0,0,1-1-1,.5.5,0,0,0-1,0,2,2,0,0,0,2,2V17a.5.5,0,1,0,1,0v-.5a2,2,0,0,0,0-4h-1a1,1,0,0,1,0-2Zm.5-4a6.5,6.5,0,1,0,6.5,6.5A6.508,6.508,0,0,0,15.917,6.5Zm0,12a5.5,5.5,0,1,1,5.5-5.5A5.507,5.507,0,0,1,15.917,18.5Zm6.85.335A8.995,8.995,0,0,0,21.9,6.279a9.063,9.063,0,0,0-7.072-2.215A8.991,8.991,0,0,0,9.3,19.088a11.377,11.377,0,0,1,2.771,6.385l.039.308a1.463,1.463,0,0,0,.2,1.72,1.486,1.486,0,0,0,.61,2.408V30.5a1.5,1.5,0,0,0,1.5,1.5h3a1.5,1.5,0,0,0,1.5-1.5v-.592a1.486,1.486,0,0,0,.61-2.408,1.463,1.463,0,0,0,.2-1.722l.06-.506A12.336,12.336,0,0,1,22.767,18.835ZM17.917,30.5a.5.5,0,0,1-.5.5h-3a.5.5,0,0,1-.5-.5V30h4Zm.5-1.5h-5a.5.5,0,0,1,0-1h5a.5.5,0,1,1,0,1Zm0-2h-5a.5.5,0,0,1,0-1h5a.5.5,0,1,1,0,1Zm.389-1.942A1.48,1.48,0,0,0,18.417,25h-5a1.48,1.48,0,0,0-.4.061,12.277,12.277,0,0,0-2.983-6.65,8,8,0,1,1,11.973-.226A13.353,13.353,0,0,0,18.806,25.058Z"/></svg>