<svg xmlns="http://www.w3.org/2000/svg" data-name="Layer 1" viewBox="0 0 32 32"><circle cx="16.5" cy="6.256" r="6" fill="#fedc55"/><path fill="#fcc37a" d="M24.449,22.931l-4.8-3.163-1.874-1.239-.05-.01-.353-3.425-3.989-.876a4.119,4.119,0,0,0-2.236.141L5.482,16.4v7.635a19.63,19.63,0,0,0,7.4,6.326l2.166,1.068a1.6,1.6,0,0,0,1.9-2.508l.121.01h.01l.363.242a1.511,1.511,0,0,0,1.823-.111,1.638,1.638,0,0,0,.272-.312,1.5,1.5,0,0,0-.433-2.1L20.4,27.5a1.506,1.506,0,0,0,1.44.121,1.564,1.564,0,0,0,.655-.554,1.508,1.508,0,0,0-.433-2.085l-.312-.212c.373.242.725.473,1.037.685a1.513,1.513,0,0,0,1.662-2.528Z"/><path fill="#fddaaa" d="M24.289,23.2l-6.814-4.487-2.677.869a1.645,1.645,0,0,1-1.73-.463h0a1.645,1.645,0,0,1,.664-2.649l4.437-1.6a3.082,3.082,0,0,1,1.95-.047l6.4,1.965v7.546h-.224a2.34,2.34,0,0,1-2-1.131Z"/><path fill="#82c8ec" d="M5.5,16.054v8a1,1,0,0,1-1,1H.5v-10h4A1,1,0,0,1,5.5,16.054Z"/><path fill="#ed6649" d="M27.5,15.056h4a0,0,0,0,1,0,0v10a0,0,0,0,1,0,0h-4a1,1,0,0,1-1-1v-8A1,1,0,0,1,27.5,15.056Z"/><path d="M17,9H16a1,1,0,0,1-1-1,.5.5,0,0,0-1,0,2,2,0,0,0,2,2v.5a.5.5,0,0,0,1,0V10a2,2,0,0,0,0-4H16a1,1,0,0,1,0-2h1a1,1,0,0,1,1,1,.5.5,0,0,0,1,0,2,2,0,0,0-2-2V2.5a.5.5,0,0,0-1,0V3a2,2,0,0,0,0,4h1a1,1,0,0,1,0,2Zm-.5,4A6.5,6.5,0,1,0,10,6.5,6.508,6.508,0,0,0,16.5,13Zm0-12A5.5,5.5,0,1,1,11,6.5,5.506,5.506,0,0,1,16.5,1Zm15,13.8h-4a1.5,1.5,0,0,0-1.458,1.161l-5.623-1.726a3.518,3.518,0,0,0-2.215.054l-.837.3-3.923-.861a4.492,4.492,0,0,0-2.49.162L5.883,15.718A1.5,1.5,0,0,0,4.5,14.8H.5a.5.5,0,0,0-.5.5v10a.5.5,0,0,0,.5.5h4a1.5,1.5,0,0,0,1.247-.669A20.064,20.064,0,0,0,12.625,30.7l2.158,1.062a2.084,2.084,0,0,0,3.007-2,1.968,1.968,0,0,0,.414.061,2.031,2.031,0,0,0,.408-.042A1.984,1.984,0,0,0,20.2,27.9a1.973,1.973,0,0,0,.93.253,2.023,2.023,0,0,0,.407-.042,1.987,1.987,0,0,0,1.589-2.048,1.867,1.867,0,0,0,2.049-.846,1.99,1.99,0,0,0,.3-.75h.542A1.5,1.5,0,0,0,27.5,25.8h4a.5.5,0,0,0,.5-.5v-10A.5.5,0,0,0,31.5,14.8ZM5,24.3a.5.5,0,0,1-.5.5H1v-9H4.5a.5.5,0,0,1,.5.5Zm19.341.371a1,1,0,0,1-1.385.286L18.313,21.9l-.214.325a.3.3,0,0,0-.127.192l-.209.318.383.252c.005,0,.008.009.013.013l3.525,2.322a1,1,0,0,1-1.1,1.67l-1.262-.831-.014-.011-3.068-2.02-.008,0-.291-.192a.5.5,0,0,0-.55.835l3.373,2.221A1,1,0,0,1,18.41,28.8a1,1,0,0,1-.751-.145l-3.386-2.23a.5.5,0,1,0-.55.835l.176.116c.005,0,.008.01.014.014l2.4,1.579a1.094,1.094,0,0,1-1.084,1.9L13.066,29.8A19.062,19.062,0,0,1,6,23.8V16.738l5.292-1.906a3.508,3.508,0,0,1,1.937-.126l2.373.521-1.716.619a2.1,2.1,0,0,0,1.361,3.975l2.377-.771,6.432,4.235a1,1,0,0,1,.44.7.6.6,0,0,0,.007.073A.994.994,0,0,1,24.341,24.67ZM26,23.47h-.6a1.982,1.982,0,0,0-.792-1.02l-6.632-4.368a.5.5,0,0,0-.429-.058l-2.606.846a1.1,1.1,0,0,1-1.158-.31,1.1,1.1,0,0,1,.444-1.773l4.319-1.558a2.508,2.508,0,0,1,1.582-.038L26,16.995Zm5,1.33H27.5a.5.5,0,0,1-.5-.5v-8a.5.5,0,0,1,.5-.5H31Z"/></svg>