<svg xmlns="http://www.w3.org/2000/svg" data-name="Layer 1" viewBox="0 0 32 32"><path fill="#ed6649" d="M18.5,15.5h-5a4,4,0,0,0-4,4v3a2,2,0,0,0,2,2h9a2,2,0,0,0,2-2v-3A4,4,0,0,0,18.5,15.5Z"/><path fill="#fcc37a" d="M14.5,12.737v2a1.5,1.5,0,0,0,3,0v-2Z"/><path fill="#fddaaa" d="M19,9.719v1.075a3.471,3.471,0,0,1-2.109,3.193h0a2.27,2.27,0,0,1-1.782,0h0A3.471,3.471,0,0,1,13,10.794V9.719a2.456,2.456,0,0,1,2.456-2.456h1.089A2.456,2.456,0,0,1,19,9.719Z"/><path d="M9.413,5.375a12.524,12.524,0,0,1,1.741-.9.5.5,0,1,0-.388-.921,13.392,13.392,0,0,0-1.88.973.5.5,0,1,0,.527.849ZM3,16.58a.5.5,0,0,0-.457.54,13.621,13.621,0,0,0,.339,2.09.5.5,0,1,0,.972-.238,12.459,12.459,0,0,1-.314-1.936A.5.5,0,0,0,3,16.58ZM4,23H5a1,1,0,0,1,1,1,.5.5,0,0,0,1,0,2,2,0,0,0-2-2v-.5a.5.5,0,0,0-1,0V22a2,2,0,0,0,0,4H5a1,1,0,0,1,0,2H4a1,1,0,0,1-1-1,.5.5,0,0,0-1,0,2,2,0,0,0,2,2v.5a.5.5,0,0,0,1,0V29a2,2,0,0,0,0-4H4a1,1,0,0,1,0-2ZM20.716,4.42a12.6,12.6,0,0,1,1.753.881.5.5,0,0,0,.518-.856,13.573,13.573,0,0,0-1.892-.95.5.5,0,0,0-.378.925Zm-3.768-.884a12.669,12.669,0,0,1,1.9.291.523.523,0,0,0,.076.012.5.5,0,0,0,.15-.986,13.683,13.683,0,0,0-2.051-.314l-.04,0A.483.483,0,0,0,16.467,3,.518.518,0,0,0,16.948,3.536Zm-4.09.335a.485.485,0,0,0,.158-.013,12.635,12.635,0,0,1,1.935-.317.5.5,0,0,0-.085-1,13.448,13.448,0,0,0-2.09.343.5.5,0,0,0,.082.984Zm-1.6,23.7a12.651,12.651,0,0,1-1.751-.883.5.5,0,1,0-.519.854,13.454,13.454,0,0,0,1.891.955.5.5,0,1,0,.38-.925Zm-7.8-15.032a.5.5,0,0,0-.6.372,13.594,13.594,0,0,0-.318,2.065l0,.026A.488.488,0,0,0,3,15.525a.511.511,0,0,0,.537-.473A12.563,12.563,0,0,1,3.83,13.14.5.5,0,0,0,3.458,12.539ZM4,4H5A1,1,0,0,1,6,5,.5.5,0,0,0,7,5,2,2,0,0,0,5,3V2.5a.5.5,0,0,0-1,0V3A2,2,0,0,0,4,7H5A1,1,0,0,1,5,9H4A1,1,0,0,1,3,8,.5.5,0,0,0,2,8a2,2,0,0,0,2,2v.5a.5.5,0,0,0,1,0V10A2,2,0,0,0,5,6H4A1,1,0,0,1,4,4ZM28.464,16.948a12.5,12.5,0,0,1-.3,1.937.5.5,0,0,0,.371.6.546.546,0,0,0,.078.012.5.5,0,0,0,.524-.383A13.641,13.641,0,0,0,29.462,17l0-.025a.478.478,0,0,0-.463-.51A.523.523,0,0,0,28.464,16.948ZM28.5,12.4a.5.5,0,0,0-.365.6,12.537,12.537,0,0,1,.319,1.934.5.5,0,0,0,.459.456.453.453,0,0,0,.081,0,.5.5,0,0,0,.455-.54,13.42,13.42,0,0,0-.345-2.089A.5.5,0,0,0,28.5,12.4ZM15.035,28.463a12.708,12.708,0,0,1-1.909-.3.5.5,0,1,0-.229.974,13.689,13.689,0,0,0,2.078.321h.044A.5.5,0,0,0,15.525,29,.48.48,0,0,0,15.035,28.463ZM28,6H27a1,1,0,0,1,0-2h1a1,1,0,0,1,1,1,.5.5,0,0,0,1,0,2,2,0,0,0-2-2V2.5a.5.5,0,0,0-1,0V3a2,2,0,0,0,0,4h1a1,1,0,0,1,0,2H27a1,1,0,0,1-1-1,.5.5,0,0,0-1,0,2,2,0,0,0,2,2v.5a.5.5,0,0,0,1,0V10a2,2,0,0,0,0-4ZM27,23h1a1,1,0,0,1,1,1,.5.5,0,0,0,1,0,2,2,0,0,0-2-2v-.5a.5.5,0,0,0-1,0V22a2,2,0,0,0,0,4h1a1,1,0,0,1,0,2H27a1,1,0,0,1-1-1,.5.5,0,0,0-1,0,2,2,0,0,0,2,2v.5a.5.5,0,0,0,1,0V29a2,2,0,0,0,0-4H27a1,1,0,0,1,0-2Zm-8.039,5.147a12.443,12.443,0,0,1-1.935.311.5.5,0,0,0,0,1,.538.538,0,0,0,.079,0,13.584,13.584,0,0,0,2.09-.337.5.5,0,1,0-.236-.972ZM23,22.5v-3A4.5,4.5,0,0,0,18.5,15h-.527A1.968,1.968,0,0,0,18,14.736V13.9a3.962,3.962,0,0,0,1.5-3.1V9.719a2.959,2.959,0,0,0-2.956-2.955H15.456A2.959,2.959,0,0,0,12.5,9.719v1.075A3.961,3.961,0,0,0,14,13.9v.841a1.968,1.968,0,0,0,.027.264H13.5A4.5,4.5,0,0,0,9,19.5v3A2.5,2.5,0,0,0,11.5,25h9A2.5,2.5,0,0,0,23,22.5ZM13.5,10.794V9.719a1.958,1.958,0,0,1,1.956-1.955h1.088A1.958,1.958,0,0,1,18.5,9.719v1.075a2.968,2.968,0,0,1-1.8,2.733,1.792,1.792,0,0,1-1.392,0A2.967,2.967,0,0,1,13.5,10.794ZM17,14.474v.262a1,1,0,0,1-2,0v-.262a2.679,2.679,0,0,0,2,0ZM22,22.5A1.5,1.5,0,0,1,20.5,24H20V19.5a.5.5,0,0,0-1,0V24H13V19.5a.5.5,0,0,0-1,0V24h-.5A1.5,1.5,0,0,1,10,22.5v-3A3.5,3.5,0,0,1,13.5,16h.963a1.973,1.973,0,0,0,3.074,0H18.5A3.5,3.5,0,0,1,22,19.5Zm.565,4.138a12.436,12.436,0,0,1-1.742.9.5.5,0,0,0,.386.923,13.483,13.483,0,0,0,1.883-.968.5.5,0,0,0-.527-.851Z"/></svg>