<svg xmlns="http://www.w3.org/2000/svg" data-name="Layer 1" viewBox="0 0 32 32"><circle cx="16.889" cy="6.5" r="6" fill="#fedc55"/><path d="M17.389,10.5V10a2,2,0,0,0,0-4h-1a1,1,0,0,1,0-2h1a1,1,0,0,1,1,1,.5.5,0,0,0,1,0,2,2,0,0,0-2-2V2.5a.5.5,0,0,0-1,0V3a2,2,0,0,0,0,4h1a1,1,0,0,1,0,2h-1a1,1,0,0,1-1-1,.5.5,0,0,0-1,0,2,2,0,0,0,2,2v.5a.5.5,0,0,0,1,0ZM6.035,22.853a.5.5,0,0,0,.708,0l1.413-1.413a.5.5,0,0,0-.707-.707l-.561.561V16.5a1.5,1.5,0,0,1,1.5-1.5h8v6.293l-.561-.561a.5.5,0,0,0-.707.707l1.413,1.413a.5.5,0,0,0,.708,0l1.413-1.413a.5.5,0,0,0-.707-.707l-.561.561V15h8a1.5,1.5,0,0,1,1.5,1.5v4.793l-.561-.561a.5.5,0,0,0-.707.707l1.413,1.413a.5.5,0,0,0,.708,0l1.413-1.413a.5.5,0,0,0-.707-.707l-.561.561V16.5a2.5,2.5,0,0,0-2.5-2.5h-8V12.975a6.5,6.5,0,1,0-1,0V14h-8a2.5,2.5,0,0,0-2.5,2.5v4.793l-.561-.561a.5.5,0,0,0-.707.707ZM11.389,6.5a5.5,5.5,0,1,1,5.5,5.5A5.507,5.507,0,0,1,11.389,6.5ZM29.82,24.031a.5.5,0,0,0-.7.122l-1.719,2.452-1.521-2.349a.5.5,0,1,0-.84.543L26.469,27H25.389a.5.5,0,0,0,0,1h1.5v1h-1.5a.5.5,0,0,0,0,1h1.5v1.5a.5.5,0,0,0,1,0V30h1.5a.5.5,0,1,0,0-1h-1.5V28h1.5a.5.5,0,1,0,0-1H28.35l1.593-2.272A.5.5,0,0,0,29.82,24.031ZM18.389,31H16.122a6.7,6.7,0,0,0,.332-1.642,6.373,6.373,0,0,0,.009-.691h.925a.5.5,0,0,0,0-1H16.353c-.059-.325-.128-.628-.194-.9-.177-.715-.252-1.071-.045-1.343a1.155,1.155,0,0,1,1.169-.357,1.188,1.188,0,0,1,.651.64.5.5,0,0,0,.908-.42,2.192,2.192,0,0,0-1.255-1.173,2.15,2.15,0,0,0-2.269.7,2.4,2.4,0,0,0-.131,2.189c.051.207.1.427.148.656h-.948a.5.5,0,0,0,0,1h1.076a5.42,5.42,0,0,1-.008.619,5.857,5.857,0,0,1-.522,2.007.5.5,0,0,0,.455.707h3a.5.5,0,1,0,0-1Zm-10-2.507a.5.5,0,0,0-.584.4C7.573,30.113,6.869,31,6.129,31c-.63,0-1.189-.607-1.5-1.484h.837a.5.5,0,0,0,0-1H4.4a4.107,4.107,0,0,1,0-1H5.467a.5.5,0,0,0,0-1H4.62C4.928,25.622,5.492,25,6.129,25c.527,0,1.045.44,1.385,1.179a.5.5,0,1,0,.908-.418A2.659,2.659,0,0,0,6.129,24c-1.181,0-2.162,1.03-2.561,2.516h-1.1a.5.5,0,0,0,0,1h.939c-.013.161-.033.318-.033.484s.02.345.035.516H2.467a.5.5,0,0,0,0,1H3.575C3.979,30.985,4.956,32,6.129,32c1.261,0,2.328-1.175,2.657-2.923A.5.5,0,0,0,8.388,28.493Z"/></svg>