<svg xmlns="http://www.w3.org/2000/svg" data-name="Layer 1" viewBox="0 0 32 32"><path fill="#d9d9db" d="M2.5,28.5V8.5a2,2,0,0,1,2-2h23a2,2,0,0,1,2,2v20Z"/><rect width="23" height="16" x="4.5" y="8.5" fill="#82c8ec"/><circle cx="16" cy="16.5" r="6" fill="#fedc55"/><path fill="#d9d9db" d="M29.5,31.5H2.5a2,2,0,0,1-2-2v-2H11.586a1,1,0,0,1,.707.293l.414.414a1,1,0,0,0,.707.293h5.172a1,1,0,0,0,.707-.293l.414-.414a1,1,0,0,1,.707-.293H31.5v2A2,2,0,0,1,29.5,31.5Z"/><path d="M16.5,19h-1a1,1,0,0,1-1-1,.5.5,0,0,0-1,0,2,2,0,0,0,2,2v.5a.5.5,0,0,0,1,0V20a2,2,0,0,0,0-4h-1a1,1,0,0,1,0-2h1a1,1,0,0,1,1,1,.5.5,0,0,0,1,0,2,2,0,0,0-2-2v-.5a.5.5,0,0,0-1,0V13a2,2,0,0,0,0,4h1a1,1,0,0,1,0,2Zm15,8H30V8.5A2.5,2.5,0,0,0,27.5,6H4.5A2.5,2.5,0,0,0,2,8.5V27H.5a.5.5,0,0,0-.5.5v2A2.5,2.5,0,0,0,2.5,32h27A2.5,2.5,0,0,0,32,29.5v-2A.5.5,0,0,0,31.5,27ZM3,8.5A1.5,1.5,0,0,1,4.5,7h23A1.5,1.5,0,0,1,29,8.5V27H20.414a1.491,1.491,0,0,0-1.061.439l-.414.414a.506.506,0,0,1-.354.146H13.414a.506.506,0,0,1-.354-.146l-.414-.414A1.491,1.491,0,0,0,11.586,27H3Zm28,21A1.5,1.5,0,0,1,29.5,31H2.5A1.5,1.5,0,0,1,1,29.5V28H11.586a.506.506,0,0,1,.354.146l.414.414A1.491,1.491,0,0,0,13.414,29h5.172a1.491,1.491,0,0,0,1.061-.439l.414-.414A.506.506,0,0,1,20.414,28H31ZM16,23a6.5,6.5,0,1,0-6.5-6.5A6.508,6.508,0,0,0,16,23Zm0-12a5.5,5.5,0,1,1-5.5,5.5A5.507,5.507,0,0,1,16,11ZM28,24.5V8.5a.5.5,0,0,0-.5-.5H4.5a.5.5,0,0,0-.5.5v16a.5.5,0,0,0,.5.5h23A.5.5,0,0,0,28,24.5ZM27,24H5V9H27Z"/></svg>