<svg xmlns="http://www.w3.org/2000/svg" data-name="Layer 1" viewBox="0 0 32 32"><circle cx="16" cy="16" r="9.5" fill="#fedc55"/><path d="M16.786,20.219H15.214a1.861,1.861,0,0,1-1.859-1.859.5.5,0,0,0-1,0,2.862,2.862,0,0,0,2.859,2.859H15.5v1.073a.5.5,0,1,0,1,0V21.219h.286a2.859,2.859,0,0,0,0-5.719H15.214a1.859,1.859,0,0,1,0-3.719h1.572a1.861,1.861,0,0,1,1.859,1.859.5.5,0,0,0,1,0,2.862,2.862,0,0,0-2.859-2.859H16.5V9.708a.5.5,0,1,0-1,0v1.073h-.286a2.859,2.859,0,0,0,0,5.719h1.572a1.859,1.859,0,0,1,0,3.719Zm12.251-.664a.5.5,0,0,0-.627.328A13,13,0,0,1,3,16c0-.095.009-.187.011-.282l.549.549a.5.5,0,0,0,.707-.707L2.854,14.146a.5.5,0,0,0-.707,0L.732,15.561a.5.5,0,0,0,.707.707l.573-.573c0,.1-.013.2-.013.306a14,14,0,0,0,27.365,4.182A.5.5,0,0,0,29.037,19.555ZM16,26A10,10,0,1,0,6,16,10.012,10.012,0,0,0,16,26ZM16,7a9,9,0,1,1-9,9A9.01,9.01,0,0,1,16,7Zm15.268,8.732a.5.5,0,0,0-.707,0l-.574.574c0-.1.013-.2.013-.306A14,14,0,0,0,2.62,11.869a.5.5,0,1,0,.955.295A13,13,0,0,1,29,16c0,.095-.01.187-.012.281l-.548-.548a.5.5,0,0,0-.707.707l1.414,1.414a.5.5,0,0,0,.707,0l1.414-1.414A.5.5,0,0,0,31.268,15.732Z"/></svg>