<svg xmlns="http://www.w3.org/2000/svg" data-name="Layer 1" viewBox="0 0 32 32"><path fill="#989fcd" d="M16,.5V16L8.25,20H2.922L.5,16V2.5a2.006,2.006,0,0,1,2-2Z"/><path fill="#ed4669" d="M16,16l4,7.875v4.86L16,31.5H2.5a2.006,2.006,0,0,1-2-2V16H3.6a2.522,2.522,0,0,0-.25.61,1.891,1.891,0,0,0-.08.58,2.386,2.386,0,0,0,3.06,2.29,2.415,2.415,0,0,0,1.65-1.75,2.229,2.229,0,0,0-.02-1.12V16.6A1.793,1.793,0,0,0,7.7,16Z"/><path fill="#82c8ec" d="M28.731,16H31.5V2.5a2,2,0,0,0-2-2H16V3.6a2.38,2.38,0,1,0-1.758,4.37A2.207,2.207,0,0,0,15.4,7.955h.036A2.17,2.17,0,0,0,16,7.7V16Z"/><path fill="#55bb8c" d="M31.5,16V29.5a2.006,2.006,0,0,1-2,2H16V28.4a2.522,2.522,0,0,0,.61.25,1.891,1.891,0,0,0,.58.08,2.386,2.386,0,0,0,2.29-3.06,2.415,2.415,0,0,0-1.75-1.65,2.229,2.229,0,0,0-1.12.02H16.6a1.793,1.793,0,0,0-.6.26V16h8.3a2.2,2.2,0,0,1-.26-.56c-.01-.01,0-.02,0-.04a2.273,2.273,0,0,1-.01-1.16A2.382,2.382,0,1,1,28.4,16Z"/><circle cx="16" cy="16" r="6" fill="#fedc55"/><circle cx="16" cy="16" r="6" fill="#fedc55"/><path d="M29.5,0H2.5A2.5,2.5,0,0,0,0,2.5v27A2.5,2.5,0,0,0,2.5,32h27A2.5,2.5,0,0,0,32,29.5V2.5A2.5,2.5,0,0,0,29.5,0ZM1,2.5A1.5,1.5,0,0,1,2.5,1h13V2.86A2.856,2.856,0,0,0,12.52,3.9a2.888,2.888,0,0,0,1.6,4.56,2.722,2.722,0,0,0,1.36-.01h.02V9.52A6.53,6.53,0,0,0,9.52,15.5H7.7a.509.509,0,0,0-.44.26.535.535,0,0,0,.03.52,1.155,1.155,0,0,1,.17.39.235.235,0,0,0,.02.08,1.708,1.708,0,0,1,.01.87,1.884,1.884,0,0,1-3.72-.43,1.577,1.577,0,0,1,.07-.47,1.5,1.5,0,0,1,.2-.47.5.5,0,0,0-.01-.5.473.473,0,0,0-.43-.25H1Zm15,8a4.078,4.078,0,0,1,.5.03,5.488,5.488,0,0,1,4.97,4.97,4.186,4.186,0,0,1,0,1,5.488,5.488,0,0,1-4.97,4.97,4.178,4.178,0,0,1-1,0,5.488,5.488,0,0,1-4.97-4.97,4.178,4.178,0,0,1,0-1,5.488,5.488,0,0,1,4.97-4.97A4.079,4.079,0,0,1,16,10.5Zm-.25,17.46a.5.5,0,0,0-.25.44V31H2.5A1.5,1.5,0,0,1,1,29.5v-13H2.86a2.557,2.557,0,0,0-.09.69,2.88,2.88,0,0,0,1.14,2.3,2.835,2.835,0,0,0,1.74.59,2.906,2.906,0,0,0,.82-.12,2.876,2.876,0,0,0,1.99-2.11,2.567,2.567,0,0,0-.01-1.32V16.5H9.52a6.53,6.53,0,0,0,5.98,5.98v1.81a.513.513,0,0,0,.26.45.535.535,0,0,0,.52-.03,2.1,2.1,0,0,1,.33-.17.34.34,0,0,0,.14-.02,1.708,1.708,0,0,1,.87-.01,1.874,1.874,0,0,1,1.07,2.97,1.754,1.754,0,0,1-1.97.68,1.5,1.5,0,0,1-.47-.2A.5.5,0,0,0,15.75,27.96ZM31,29.5A1.5,1.5,0,0,1,29.5,31h-13V29.14a2.557,2.557,0,0,0,.69.09,2.879,2.879,0,0,0,2.3-1.14,2.915,2.915,0,0,0,.47-2.56,2.877,2.877,0,0,0-2.11-1.99,2.6,2.6,0,0,0-1.33.01H16.5V22.48a6.53,6.53,0,0,0,5.98-5.98H24.3a.482.482,0,0,0,.43-.26.515.515,0,0,0-.01-.51,1.816,1.816,0,0,1-.18-.37.354.354,0,0,0-.02-.1,1.823,1.823,0,0,1-.01-.9A1.892,1.892,0,0,1,25.83,13a1.846,1.846,0,0,1,1.66.31,1.88,1.88,0,0,1,.74,1.5,1.9,1.9,0,0,1-.27.94.522.522,0,0,0,0,.5.5.5,0,0,0,.44.25H31Zm0-14H29.14a2.724,2.724,0,0,0,.09-.69,2.886,2.886,0,0,0-3.66-2.78,2.884,2.884,0,0,0-2.03,2.09,2.721,2.721,0,0,0,.01,1.36v.02H22.48A6.53,6.53,0,0,0,16.5,9.52V7.71a.486.486,0,0,0-.26-.44.516.516,0,0,0-.51.01,1.818,1.818,0,0,1-.37.18.3.3,0,0,0-.1.02,1.823,1.823,0,0,1-.9.01,1.884,1.884,0,0,1-1.05-2.98,1.843,1.843,0,0,1,2.44-.47.5.5,0,0,0,.75-.44V1h13A1.5,1.5,0,0,1,31,2.5Zm-15.5-3a2,2,0,0,0,0,4h1a1,1,0,0,1,0,2h-1a1,1,0,0,1-1-1,.5.5,0,0,0-1,0,2.006,2.006,0,0,0,2,2V20a.127.127,0,0,0,.01.06.493.493,0,0,0,.98,0A.127.127,0,0,0,16.5,20v-.5a2,2,0,0,0,0-4h-1a1,1,0,0,1,0-2h1a1,1,0,0,1,1,1,.5.5,0,0,0,1,0,2.006,2.006,0,0,0-2-2V12a.127.127,0,0,0-.01-.06.493.493,0,0,0-.98,0,.127.127,0,0,0-.01.06Z"/></svg>