<svg xmlns="http://www.w3.org/2000/svg" data-name="Layer 1" viewBox="0 0 32 32"><path fill="#fff" d="M28.694,6.5H29.5a2,2,0,0,1,2,2v21a2,2,0,0,1-2,2H2.5a2,2,0,0,1-2-2V8A1.5,1.5,0,0,1,2,6.5H3.5"/><path fill="#ed4669" d="M28.694,6.5H29.5a2,2,0,0,1,2,2v4H.5V8A1.5,1.5,0,0,1,2,6.5H2"/><circle cx="16" cy="22" r="6.5" fill="#fedc55"/><rect width="2" height="2" x="26.5" y="26.5" fill="#afaeb3"/><rect width="2" height="2" x="26.5" y="15.5" fill="#afaeb3"/><rect width="2" height="2" x="26.5" y="21" fill="#afaeb3"/><rect width="2" height="2" x="3.5" y="26.5" fill="#afaeb3"/><rect width="2" height="2" x="3.5" y="15.5" fill="#afaeb3"/><rect width="2" height="2" x="3.5" y="21" fill="#afaeb3"/><rect width="3" height="6" x="3.5" y="3.5" fill="#fff" rx="1.5" ry="1.5"/><rect width="3" height="6" x="25.5" y="3.5" fill="#fff" rx="1.5" ry="1.5"/><path d="M26.5,23.5h2A.5.5,0,0,0,29,23V21a.5.5,0,0,0-.5-.5h-2a.5.5,0,0,0-.5.5v2A.5.5,0,0,0,26.5,23.5Zm.5-2h1v1H27ZM18.5,9h-5a.5.5,0,0,0,0,1h5a.5.5,0,0,0,0-1Zm8,9h2a.5.5,0,0,0,.5-.5v-2a.5.5,0,0,0-.5-.5h-2a.5.5,0,0,0-.5.5v2A.5.5,0,0,0,26.5,18Zm.5-2h1v1H27ZM29.5,6H29V5a2,2,0,0,0-4,0V6H7V5A2,2,0,0,0,3,5V6H2A2,2,0,0,0,0,8V29.5A2.5,2.5,0,0,0,2.5,32h27A2.5,2.5,0,0,0,32,29.5V8.5A2.5,2.5,0,0,0,29.5,6ZM26,5a1,1,0,0,1,2,0V8a1,1,0,0,1-2,0ZM4,5A1,1,0,0,1,6,5V8A1,1,0,0,1,4,8ZM31,29.5A1.5,1.5,0,0,1,29.5,31H2.5A1.5,1.5,0,0,1,1,29.5V13H31ZM31,12H1V8A1,1,0,0,1,2,7H3V8A2,2,0,0,0,7,8V7H25V8a2,2,0,0,0,4,0V7h.5A1.5,1.5,0,0,1,31,8.5ZM16,29a7,7,0,1,0-7-7A7.008,7.008,0,0,0,16,29Zm0-13a6,6,0,1,1-6,6A6.007,6.007,0,0,1,16,16ZM3.5,23.5h2A.5.5,0,0,0,6,23V21a.5.5,0,0,0-.5-.5h-2A.5.5,0,0,0,3,21v2A.5.5,0,0,0,3.5,23.5Zm.5-2H5v1H4ZM3.5,18h2a.5.5,0,0,0,.5-.5v-2a.5.5,0,0,0-.5-.5h-2a.5.5,0,0,0-.5.5v2A.5.5,0,0,0,3.5,18ZM4,16H5v1H4ZM26.5,29h2a.5.5,0,0,0,.5-.5v-2a.5.5,0,0,0-.5-.5h-2a.5.5,0,0,0-.5.5v2A.5.5,0,0,0,26.5,29Zm.5-2h1v1H27ZM3.5,29h2a.5.5,0,0,0,.5-.5v-2a.5.5,0,0,0-.5-.5h-2a.5.5,0,0,0-.5.5v2A.5.5,0,0,0,3.5,29ZM4,27H5v1H4Zm12.5-2.5h-1a1,1,0,0,1-1-1,.5.5,0,0,0-1,0,2,2,0,0,0,2,2V26a.5.5,0,0,0,1,0v-.5a2,2,0,0,0,0-4h-1a1,1,0,0,1,0-2h1a1,1,0,0,1,1,1,.5.5,0,0,0,1,0,2,2,0,0,0-2-2V18a.5.5,0,0,0-1,0v.5a2,2,0,0,0,0,4h1a1,1,0,0,1,0,2Z"/></svg>