<svg xmlns="http://www.w3.org/2000/svg" data-name="Layer 1" viewBox="0 0 32 32"><circle cx="16" cy="6.5" r="6" fill="#fedc55"/><path d="M16.5,10.5V10a2,2,0,0,0,0-4h-1a1,1,0,0,1,0-2h1a1,1,0,0,1,1,1,.5.5,0,0,0,1,0,2,2,0,0,0-2-2V2.5a.5.5,0,0,0-1,0V3a2,2,0,0,0,0,4h1a1,1,0,0,1,0,2h-1a1,1,0,0,1-1-1,.5.5,0,0,0-1,0,2,2,0,0,0,2,2v.5a.5.5,0,0,0,1,0ZM5,25H6a1,1,0,0,1,1,1,.5.5,0,0,0,1,0,2,2,0,0,0-2-2v-.5a.5.5,0,0,0-1,0V24a2,2,0,0,0,0,4H6a1,1,0,0,1,0,2H5a1,1,0,0,1-1-1,.5.5,0,0,0-1,0,2,2,0,0,0,2,2v.5a.5.5,0,0,0,1,0V31a2,2,0,0,0,0-4H5a1,1,0,0,1,0-2Zm10.5,0h1a1,1,0,0,1,1,1,.5.5,0,0,0,1,0,2,2,0,0,0-2-2v-.5a.5.5,0,0,0-1,0V24a2,2,0,0,0,0,4h1a1,1,0,0,1,0,2h-1a1,1,0,0,1-1-1,.5.5,0,0,0-1,0,2,2,0,0,0,2,2v.5a.5.5,0,0,0,1,0V31a2,2,0,0,0,0-4h-1a1,1,0,0,1,0-2ZM27,27H26a1,1,0,0,1,0-2h1a1,1,0,0,1,1,1,.5.5,0,0,0,1,0,2,2,0,0,0-2-2v-.5a.5.5,0,0,0-1,0V24a2,2,0,0,0,0,4h1a1,1,0,0,1,0,2H26a1,1,0,0,1-1-1,.5.5,0,0,0-1,0,2,2,0,0,0,2,2v.5a.5.5,0,0,0,1,0V31a2,2,0,0,0,0-4ZM5.146,21.853a.5.5,0,0,0,.708,0l1.413-1.413a.5.5,0,0,0-.707-.707L6,20.293V17.5A1.5,1.5,0,0,1,7.5,16h8v4.293l-.561-.561a.5.5,0,0,0-.707.707l1.413,1.413a.5.5,0,0,0,.708,0l1.413-1.413a.5.5,0,0,0-.707-.707l-.561.561V16h8A1.5,1.5,0,0,1,26,17.5v2.793l-.561-.561a.5.5,0,0,0-.707.707l1.413,1.413a.5.5,0,0,0,.708,0l1.413-1.413a.5.5,0,0,0-.707-.707L27,20.293V17.5A2.5,2.5,0,0,0,24.5,15h-8V12.975a6.5,6.5,0,1,0-1,0V15h-8A2.5,2.5,0,0,0,5,17.5v2.793l-.561-.561a.5.5,0,0,0-.707.707ZM10.5,6.5A5.5,5.5,0,1,1,16,12,5.506,5.506,0,0,1,10.5,6.5Z"/></svg>