<svg xmlns="http://www.w3.org/2000/svg" data-name="Layer 1" viewBox="0 0 32 32"><circle cx="16" cy="18" r="8.5" fill="#fedc55"/><path d="M16,9a9,9,0,1,0,9,9A9.01,9.01,0,0,0,16,9Zm0,17a8,8,0,1,1,8-8A8.009,8.009,0,0,1,16,26Zm13-8a12.915,12.915,0,0,0-1.091-5.2,5.491,5.491,0,1,0-8.057-7.221A12.953,12.953,0,0,0,16.5,5.025V1h2a.5.5,0,0,0,0-1h-5a.5.5,0,0,0,0,1h2V5.031a12.979,12.979,0,0,0-3.34.57,5.491,5.491,0,1,0-8.071,7.2A12.962,12.962,0,0,0,9.032,28.956L6.2,31.1a.5.5,0,1,0,.6.8L9.964,29.5a12.9,12.9,0,0,0,11.961.053l3.284,2.349a.5.5,0,0,0,.582-.812l-2.912-2.083A12.991,12.991,0,0,0,29,18ZM24.5,4a4.5,4.5,0,0,1,2.965,7.884,13.068,13.068,0,0,0-6.657-5.952A4.488,4.488,0,0,1,24.5,4ZM3,8.5a4.5,4.5,0,0,1,8.188-2.576,12.985,12.985,0,0,0-6.061,4.948c-.216.328-.41.667-.594,1.011A4.5,4.5,0,0,1,3,8.5ZM16.5,29.975V28.5a.5.5,0,0,0-1,0v1.475A12,12,0,0,1,4.025,18.5H5.5a.5.5,0,0,0,0-1H4.018A11.946,11.946,0,0,1,15.5,6.031V7.5a.5.5,0,0,0,1,0V6.025A12,12,0,0,1,27.975,17.5H26.5a.5.5,0,0,0,0,1h1.475A12,12,0,0,1,16.5,29.975ZM15.214,13.781h1.572a1.861,1.861,0,0,1,1.859,1.859.5.5,0,0,0,1,0,2.862,2.862,0,0,0-2.859-2.859H16.5V11.708a.5.5,0,1,0-1,0v1.073h-.286a2.859,2.859,0,0,0,0,5.719h1.572a1.859,1.859,0,0,1,0,3.719H15.214a1.861,1.861,0,0,1-1.859-1.859.5.5,0,0,0-1,0,2.862,2.862,0,0,0,2.859,2.859H15.5v1.073a.5.5,0,1,0,1,0V23.219h.286a2.859,2.859,0,0,0,0-5.719H15.214a1.859,1.859,0,0,1,0-3.719Z"/></svg>