<svg xmlns="http://www.w3.org/2000/svg" data-name="Layer 1" viewBox="0 0 32 32"><path fill="#8b8891" d="M29.5,12.5a2,2,0,0,1,2,2v15a2,2,0,0,1-2,2H2.5a2,2,0,0,1-2-2v-19"/><path fill="#d9d9db" d="M2.5 8.5h25a2 2 0 0 1 2 2v2a0 0 0 0 1 0 0H2.5a2 2 0 0 1-2-2v0a2 2 0 0 1 2-2zM26 18.5h5.5a0 0 0 0 1 0 0v7a0 0 0 0 1 0 0H26A3.5 3.5 0 0 1 22.5 22v0A3.5 3.5 0 0 1 26 18.5z"/><circle cx="26.531" cy="22" r="1" fill="#fff"/><circle cx="16" cy="12.5" r="6" fill="#fedc55"/><path d="M25.03,22a1.5,1.5,0,1,0,1.5-1.5A1.5,1.5,0,0,0,25.03,22Zm1.5-.5a.5.5,0,1,1-.5.5A.5.5,0,0,1,26.53,21.5ZM30,12.051V10.5A2.5,2.5,0,0,0,27.5,8H20.67a6.452,6.452,0,0,0-9.34,0H2.5A2.5,2.5,0,0,0,0,10.5v19A2.5,2.5,0,0,0,2.5,32h27A2.5,2.5,0,0,0,32,29.5v-15A2.5,2.5,0,0,0,30,12.051ZM27.5,9A1.5,1.5,0,0,1,29,10.5V12H22.48a6.31,6.31,0,0,0-1.01-3ZM11.76,9a5.492,5.492,0,0,1,9.71,3,4.178,4.178,0,0,1,0,1,5.208,5.208,0,0,1-.58,2,5.477,5.477,0,0,1-9.78,0,5.208,5.208,0,0,1-.58-2,4.178,4.178,0,0,1,0-1A5.4,5.4,0,0,1,11.76,9ZM2.5,9h8.03a6.31,6.31,0,0,0-1.01,3H2.5a1.5,1.5,0,0,1,0-3ZM31,25H26a3,3,0,0,1,0-6h5Zm0-7H26a4,4,0,0,0,0,8h5v3.5A1.5,1.5,0,0,1,29.5,31H2.5A1.5,1.5,0,0,1,1,29.5v-17a2.5,2.5,0,0,0,1.5.5H9.52A6.3,6.3,0,0,0,10,15H5.5a.5.5,0,0,0,0,1h5.03a6.487,6.487,0,0,0,10.94,0H26.5a.5.5,0,0,0,0-1H22a6.3,6.3,0,0,0,.48-2H29.5A1.5,1.5,0,0,1,31,14.5ZM5,28.5a.5.5,0,0,0,.5.5h21a.5.5,0,0,0,0-1H5.5A.5.5,0,0,0,5,28.5ZM16.5,15h-1a1,1,0,0,1-1-1,.5.5,0,0,0-1,0,2,2,0,0,0,2,2v.5a.5.5,0,0,0,1,0V16a2,2,0,0,0,0-4h-1a1,1,0,0,1,0-2h1a1,1,0,0,1,1,1,.5.5,0,0,0,1,0,2.006,2.006,0,0,0-2-2V8.5a.5.5,0,0,0-1,0V9a2,2,0,0,0,0,4h1a1,1,0,0,1,0,2Z"/></svg>